<svg width="211" height="284" viewBox="0 0 211 284" fill="none" xmlns="http://www.w3.org/2000/svg">
<path d="M207.277 97.4108L105.515 32.0924L4.71727 97.4108M207.277 97.4108L207.277 4.09888L4.02807 4.09888L4.71727 97.4108M207.277 97.4108L206.588 186.67M4.71727 97.4108L4.0281 186.67" stroke="#656565" stroke-width="2" stroke-linecap="round" stroke-linejoin="round"/>
<path d="M105.292 251.949L206.779 186.629L206.779 279.943H4.21851L4.21852 186.629L105.292 251.949Z" stroke="#656565" stroke-width="2" stroke-linecap="round" stroke-linejoin="round"/>
<rect width="211" height="284" transform="matrix(-1 0 0 1 211 0)" fill="#63606D" fill-opacity="0.33"/>
<path d="M83.2596 173.515C82.8921 173.313 82.4852 173.078 82.046 172.811C80.0754 171.612 77.452 169.743 74.8345 167.064C69.593 161.698 64.3843 153.089 64.4802 140.135C64.5761 127.181 69.9122 118.571 75.2331 113.206C77.8903 110.526 80.5413 108.658 82.5297 107.458C82.9728 107.191 83.3832 106.957 83.7537 106.754C79.9671 106.995 76.2375 107.83 72.714 109.23C68.4808 110.913 64.6287 113.379 61.3771 116.486C58.1256 119.594 55.5384 123.282 53.7622 127.339C51.986 131.396 51.0554 135.744 51.0229 140.135C50.9904 144.525 51.8567 148.873 53.5728 152.931C55.2889 156.988 57.8215 160.676 61.027 163.783C64.2326 166.891 68.0482 169.356 72.2565 171.039C75.7593 172.44 79.4766 173.275 83.2596 173.515Z" stroke="white" stroke-opacity="0.16"/>
<path d="M120.575 140.135C120.438 158.593 104.775 173.588 85.5494 173.588C66.324 173.588 50.8826 158.593 51.0192 140.135C51.1558 121.677 66.8192 106.682 86.0447 106.682C105.27 106.682 120.712 121.677 120.575 140.135Z" stroke="#FFD700" stroke-opacity="0.16"/>
<path d="M123.549 136.802C125.806 136.222 129.011 133.415 131.284 135.883C134.124 138.97 137.726 136.367 139.607 135.634C141.488 134.901 146.209 137.254 149.271 136.359C150.077 136.545 158.931 138.357 160.135 137.648C160.414 137.636 150.841 141.199 148.994 140.96C146.686 140.662 143.079 141.285 141.847 144.046C141.524 144.771 140.232 146.173 136.202 147.744C132.172 149.315 126.055 146.608 124.125 144.964" stroke="#FFD700" stroke-opacity="0.16"/>
<path d="M97.0928 176.41C97.7727 178.551 100.797 181.497 98.3125 183.802C95.2063 186.684 98.0323 190.021 98.8583 191.794C99.6842 193.567 97.4038 198.221 98.4378 201.123C98.2731 201.906 98.136 207.681 97.8936 207.457C96.403 206.076 93.4677 202.867 93.6518 201.08C93.8818 198.846 93.1111 195.407 90.2018 194.357C89.4378 194.081 87.9378 192.908 86.1679 189.109C84.398 185.31 86.9983 179.296 88.6384 177.36" stroke="#FFD700" stroke-opacity="0.16"/>
<path d="M111.906 167.112C113.731 168.496 117.971 169.258 117.273 172.504C116.402 176.561 120.708 177.753 122.437 178.754C124.166 179.756 125.023 184.815 127.589 186.628C127.914 187.359 131.444 192.204 130.873 192.115C128.826 191.798 124.505 190.772 123.603 189.206C122.477 187.25 119.812 184.854 116.785 185.582C115.99 185.773 114.057 185.631 110.353 183.484C106.648 181.338 105.255 174.99 105.47 172.508" stroke="#FFD700" stroke-opacity="0.16"/>
<path d="M122.422 154.244C124.72 154.606 128.831 153.307 129.841 156.464C131.104 160.41 135.489 159.456 137.511 159.529C139.533 159.603 142.818 163.623 145.983 164.017C146.635 164.505 150.22 167.459 151.617 167.287C153.604 167.287 145.342 169.064 143.766 168.115C141.795 166.929 138.252 166.071 135.953 168.109C135.349 168.644 133.577 169.415 129.244 169.257C124.91 169.099 120.509 164.203 119.458 161.936" stroke="#FFD700" stroke-opacity="0.16"/>
<path d="M117.548 118.664C119.54 117.485 121.778 113.915 124.696 115.645C128.345 117.808 131.025 114.324 132.61 113.102C134.196 111.881 139.431 112.823 142.103 111.12C142.931 111.074 147.667 111.026 148.611 110.015C149.64 108.912 145.056 115.31 143.212 115.594C140.908 115.948 137.632 117.542 137.275 120.522C137.181 121.304 136.361 123.002 132.962 125.619C129.564 128.236 122.884 127.342 120.54 126.305" stroke="#FFD700" stroke-opacity="0.16"/>
<path d="M105.368 108.669C106.312 106.611 106.039 102.465 109.474 102.274C113.767 102.036 113.91 97.7165 114.494 95.8472C115.077 93.9778 119.954 91.87 121.148 89.0108C121.804 88.5183 125.683 85.876 125.862 84.5315C126.041 83.187 126.071 90.8105 124.718 92.0553C123.027 93.6113 121.27 96.7136 122.744 99.3441C123.131 100.035 123.461 101.872 122.211 105.878C120.96 109.884 114.919 112.825 112.37 113.266" stroke="#FFD700" stroke-opacity="0.16"/>
<path d="M91.1357 96.4412L91.2947 96.914L91.1357 96.4412ZM98.4821 80.5777L98.0828 80.2798L97.9988 80.3918L97.9847 80.5307L98.4821 80.5777ZM101.704 75.0116L102.167 74.8197L102.167 74.8197L101.704 75.0116ZM102.805 82.5259L103.233 82.7811L102.805 82.5259ZM103.039 90.0402L102.689 90.4004L103.039 90.0402ZM89.5533 103.742C89.6377 103.126 89.5979 102.415 89.5539 101.728C89.5087 101.021 89.4574 100.325 89.4932 99.6651C89.5288 99.0072 89.6497 98.4361 89.9163 97.977C90.1742 97.5326 90.5899 97.1557 91.2947 96.914L90.9767 95.9684C90.0581 96.2833 89.4406 96.8109 89.0523 97.4798C88.6726 98.1338 88.5344 98.8847 88.4946 99.6184C88.455 100.35 88.5121 101.115 88.556 101.799C88.6011 102.505 88.631 103.115 88.5626 103.613L89.5533 103.742ZM91.2947 96.914C92.394 96.5371 93.1723 95.9597 93.7049 95.253C94.2341 94.5509 94.4973 93.7524 94.6198 92.9662C94.7419 92.1827 94.7269 91.3927 94.6861 90.6944C94.6437 89.9675 94.5794 89.3936 94.5828 88.9269L93.5828 88.9269C93.5791 89.4343 93.65 90.1128 93.6878 90.76C93.7273 91.4359 93.7373 92.1418 93.6318 92.8194C93.5266 93.4943 93.3095 94.1221 92.9078 94.655C92.5096 95.1833 91.9067 95.6495 90.9767 95.9684L91.2947 96.914ZM94.5828 88.9269C94.5853 88.5886 94.7739 88.1177 95.1583 87.4898C95.5338 86.8766 96.0372 86.2033 96.575 85.4613C97.1049 84.7302 97.6604 83.9426 98.1029 83.1384C98.5443 82.3362 98.8919 81.4852 98.9796 80.6248L97.9847 80.5307C97.9164 81.2009 97.638 81.9154 97.2275 82.6613C96.8182 83.4052 96.296 84.1483 95.7668 84.8784C95.2456 85.5974 94.7086 86.3157 94.3065 86.9722C93.9135 87.6141 93.5875 88.2912 93.5828 88.9269L94.5828 88.9269ZM98.8814 80.8757C99.03 80.6775 99.3053 80.1908 99.6122 79.6321C99.9288 79.056 100.308 78.3493 100.671 77.6796C101.036 77.0058 101.386 76.3694 101.65 75.9205C101.784 75.6932 101.888 75.5282 101.957 75.4324C101.997 75.3768 102.003 75.3764 101.982 75.3948C101.974 75.4017 101.956 75.4171 101.928 75.4339C101.903 75.4489 101.848 75.4792 101.768 75.4931C101.68 75.5084 101.556 75.5036 101.436 75.4306C101.321 75.3612 101.266 75.2641 101.241 75.2035L102.167 74.8197C102.139 74.7502 102.078 74.6469 101.958 74.5738C101.831 74.4972 101.699 74.4912 101.603 74.508C101.449 74.535 101.348 74.625 101.326 74.6449C101.253 74.7083 101.191 74.791 101.147 74.8515C101.049 74.988 100.925 75.1875 100.789 75.4179C100.515 75.8843 100.157 76.5356 99.7925 77.208C99.4257 77.8844 99.0515 78.5824 98.7366 79.1556C98.4121 79.7461 98.1776 80.1533 98.0828 80.2798L98.8814 80.8757ZM101.241 75.2035C101.611 76.1104 102.11 77.5694 102.4 78.984C102.545 79.6916 102.634 80.3723 102.635 80.959C102.635 81.5577 102.541 81.9971 102.377 82.2706L103.233 82.7811C103.537 82.2754 103.635 81.6179 103.635 80.9514C103.634 80.273 103.532 79.5204 103.38 78.7762C103.074 77.2871 102.554 75.7683 102.167 74.8197L101.241 75.2035ZM102.377 82.2706C101.755 83.3054 101.236 84.7336 101.163 86.1975C101.09 87.6687 101.467 89.2153 102.689 90.4004L103.388 89.6799C102.424 88.7455 102.099 87.5091 102.162 86.24C102.226 84.9637 102.684 83.6945 103.233 82.7811L102.377 82.2706ZM102.689 90.4004C103.112 90.81 103.968 92.3007 103.937 96.4412L104.937 96.4412C104.968 92.2326 104.114 90.3836 103.388 89.6799L102.689 90.4004ZM103.937 96.4412C103.923 98.3486 102.773 100.391 101.268 102.135C99.7694 103.871 98.005 105.212 96.9224 105.731L97.3494 106.632C98.5884 106.038 100.459 104.597 102.023 102.785C103.58 100.98 104.92 98.7084 104.937 96.4412L103.937 96.4412Z" fill="#FFD700" fill-opacity="0.16"/>
</svg>
