<svg width="60" height="66" viewBox="0 0 60 66" fill="none" xmlns="http://www.w3.org/2000/svg">
<path opacity="0.24" d="M11.6671 8.98944C9.08491 10.064 6.5978 11.5669 4.9994 13.8082C3.73208 15.5843 3.11268 17.7058 2.5313 19.7951C1.40022 23.8539 0.340424 28.1138 1.27824 32.2187C1.96417 35.2214 3.70357 38.0521 3.58317 41.1224C3.4105 45.5542 -0.608479 49.4427 0.0790405 53.8254C0.734877 58.0101 5.26078 60.3926 9.29243 62.0198C13.4968 63.7177 17.8056 65.3157 22.3284 65.8346C26.8511 66.3534 31.6621 65.6979 35.4166 63.2003C39.0506 60.7825 41.3666 56.8818 42.862 52.8629C44.3575 48.844 45.1416 44.6132 46.4295 40.5283C47.0236 38.6432 47.7381 36.7673 48.8992 35.1554C50.1111 33.4668 51.7507 32.1328 53.2287 30.656C55.3582 28.5174 57.1315 26.0709 58.4849 23.4041C59.3942 21.6127 60.1197 19.6569 59.9835 17.6643C59.692 13.4244 55.7174 10.3542 51.8125 8.44294C38.9508 2.13978 24.638 3.58432 11.6671 8.98944Z" fill="#68E1FD"/>
<path d="M14.6499 21.8678C13.8628 22.2379 13.2525 22.8869 12.9453 23.6807L14.4312 24.0829C14.5279 24.1155 14.6301 24.1295 14.7322 24.1244C14.8864 24.0865 15.0265 24.0072 15.1362 23.8957C16.2213 23.0068 17.6455 22.6369 19.0126 22.2623C20.5967 21.8263 20.7155 20.7272 18.927 21.1371C17.5282 21.4518 15.9615 21.2537 14.6499 21.8678Z" fill="#68E1FD"/>
<path d="M19.1895 20.2217C17.8318 21.9395 16.8132 23.8784 15.7962 25.8065C15.4411 26.4425 15.1356 27.1035 14.8822 27.7837C14.2976 29.4907 14.2406 31.6215 14.3451 33.4129C14.3626 33.7 14.5527 33.7445 14.7871 33.9195C15.0897 34.1483 15.5618 33.9748 15.7804 33.6693C15.999 33.3638 16.0386 32.9754 16.0972 32.607C16.2838 31.4408 16.7215 30.3257 17.3819 29.3342C17.5815 29.0363 17.8049 28.7401 17.8905 28.3947C17.9681 28.0876 18.5732 26.3054 18.5415 25.9876C18.3356 23.8722 17.9364 23.1707 18.616 21.1505" fill="white"/>
<path d="M19.1895 20.2217C17.8318 21.9395 16.8132 23.8784 15.7962 25.8065C15.4411 26.4425 15.1356 27.1035 14.8822 27.7837C14.2976 29.4907 14.2406 31.6215 14.3451 33.4129C14.3626 33.7 14.5527 33.7445 14.7871 33.9195C15.0897 34.1483 15.5618 33.9748 15.7804 33.6693C15.999 33.3638 16.0386 32.9754 16.0972 32.607C16.2838 31.4408 16.7215 30.3257 17.3819 29.3342C17.5815 29.0363 17.8049 28.7401 17.8905 28.3947C17.9681 28.0876 18.5732 26.3054 18.5415 25.9876C18.3356 23.8722 17.9364 23.1707 18.616 21.1505" fill="url(#paint0_linear_4062_848)"/>
<path d="M12.1388 36.2084C11.7317 36.3694 11.3642 36.6116 11.06 36.9191C10.6608 37.3689 10.5324 37.9814 10.4485 38.5678C10.3453 39.2731 10.284 39.9835 10.2647 40.6955C10.2505 41.2405 10.2742 41.8299 10.6227 42.2567C10.9396 42.6435 11.4671 42.8201 11.9756 42.8293C12.4845 42.8152 12.9884 42.7283 13.471 42.5714L17.4314 41.4968C17.867 41.3786 18.3423 41.2328 18.5815 40.8613C18.7652 40.5758 18.77 40.2196 18.7668 39.885C18.7557 38.683 18.7874 37.7987 18.6559 36.6044C18.5767 35.8829 18.0698 35.0908 17.292 34.9419C15.6793 34.6303 13.5407 35.5667 12.1388 36.2084Z" fill="#606161"/>
<path d="M13.1814 37.1233C12.84 37.2548 12.5308 37.4541 12.2736 37.7082C11.9378 38.0782 11.8301 38.5832 11.7588 39.0668C11.6712 39.6472 11.6183 40.232 11.6004 40.8184C11.5877 41.2666 11.6083 41.7517 11.903 42.1032C12.0464 42.2564 12.2223 42.3778 12.4186 42.4592C12.6149 42.5405 12.827 42.5798 13.0404 42.5745C13.4711 42.5635 13.898 42.4922 14.3077 42.3627L17.6439 41.4723C18.0098 41.3756 18.409 41.2543 18.6118 40.9488C18.7702 40.714 18.7702 40.4208 18.7702 40.1444C18.7607 39.1558 18.8209 38.1227 18.71 37.1402C18.6435 36.5461 18.4296 36.1194 17.7738 35.9981C16.4098 35.7463 14.3631 36.5953 13.1814 37.1233Z" fill="#606161"/>
<path d="M13.1814 37.1233C12.84 37.2548 12.5308 37.4541 12.2736 37.7082C11.9378 38.0782 11.8301 38.5832 11.7588 39.0668C11.6712 39.6472 11.6183 40.232 11.6004 40.8184C11.5877 41.2666 11.6083 41.7517 11.903 42.1032C12.0464 42.2564 12.2223 42.3778 12.4186 42.4592C12.6149 42.5405 12.827 42.5798 13.0404 42.5745C13.4711 42.5635 13.898 42.4922 14.3077 42.3627L17.6439 41.4723C18.0098 41.3756 18.409 41.2543 18.6118 40.9488C18.7702 40.714 18.7702 40.4208 18.7702 40.1444C18.7607 39.1558 18.8209 38.1227 18.71 37.1402C18.6435 36.5461 18.4296 36.1194 17.7738 35.9981C16.4098 35.7463 14.3631 36.5953 13.1814 37.1233Z" fill="url(#paint1_linear_4062_848)"/>
<path d="M31.9307 0V3.40334H26.5668V0H25.7383V65.9622H26.5684V63.0884H31.9323V64.6527H32.7624V0H31.9307ZM31.9307 4.20927V6.86808H26.5668V4.21388L31.9307 4.20927ZM26.5668 55.3576V52.6988H31.9307V55.3576H26.5668ZM31.9307 56.162V58.8208H26.5668V56.162H31.9307ZM26.5668 51.8929V49.2341H31.9307V51.8929H26.5668ZM26.5668 48.4297V45.7709H31.9307V48.4251L26.5668 48.4297ZM26.5668 44.9665V42.3076H31.9307V44.9665H26.5668ZM26.5668 41.5032V38.8444H31.9307V41.5032H26.5668ZM26.5668 38.04V35.3766H31.9307V38.037L26.5668 38.04ZM26.5668 34.5753V31.9165H31.9307V34.5753H26.5668ZM26.5668 31.1121V28.4533H31.9307V31.1121H26.5668ZM26.5668 27.6489V24.9901H31.9307V27.6489H26.5668ZM26.5668 24.1857V21.5269H31.9307V24.1857H26.5668ZM26.5668 20.7225V18.0621H31.9307V20.7225H26.5668ZM26.5668 17.2577V14.5989H31.9307V17.2623L26.5668 17.2577ZM26.5668 13.7945V11.1357H31.9307V13.7945H26.5668ZM26.5668 10.3313V7.67248H31.9307V10.3313H26.5668ZM26.5668 62.284V59.6314H31.9307V62.2902L26.5668 62.284Z" fill="#68E1FD"/>
<path d="M31.9307 0V3.40334H26.5668V0H25.7383V65.9622H26.5684V63.0884H31.9323V64.6527H32.7624V0H31.9307ZM31.9307 4.20927V6.86808H26.5668V4.21388L31.9307 4.20927ZM26.5668 55.3576V52.6988H31.9307V55.3576H26.5668ZM31.9307 56.162V58.8208H26.5668V56.162H31.9307ZM26.5668 51.8929V49.2341H31.9307V51.8929H26.5668ZM26.5668 48.4297V45.7709H31.9307V48.4251L26.5668 48.4297ZM26.5668 44.9665V42.3076H31.9307V44.9665H26.5668ZM26.5668 41.5032V38.8444H31.9307V41.5032H26.5668ZM26.5668 38.04V35.3766H31.9307V38.037L26.5668 38.04ZM26.5668 34.5753V31.9165H31.9307V34.5753H26.5668ZM26.5668 31.1121V28.4533H31.9307V31.1121H26.5668ZM26.5668 27.6489V24.9901H31.9307V27.6489H26.5668ZM26.5668 24.1857V21.5269H31.9307V24.1857H26.5668ZM26.5668 20.7225V18.0621H31.9307V20.7225H26.5668ZM26.5668 17.2577V14.5989H31.9307V17.2623L26.5668 17.2577ZM26.5668 13.7945V11.1357H31.9307V13.7945H26.5668ZM26.5668 10.3313V7.67248H31.9307V10.3313H26.5668ZM26.5668 62.284V59.6314H31.9307V62.2902L26.5668 62.284Z" fill="url(#paint2_linear_4062_848)"/>
<path d="M24.807 49.6007C24.8671 49.6273 24.9326 49.6404 24.9987 49.6391C26.1716 49.6995 27.3347 49.4032 28.3254 48.7917C28.5963 48.6229 28.8846 48.345 28.7895 48.0472C28.4728 47.893 28.1274 47.8018 27.7738 47.7788C27.4201 47.7559 27.0653 47.8017 26.7302 47.9137C26.675 47.9395 26.6121 47.9455 26.5527 47.9305C26.5143 47.9101 26.4841 47.8777 26.4672 47.8384C26.2597 47.4209 26.5068 46.9895 25.8842 46.9665C25.5405 46.9737 25.2114 47.1025 24.9591 47.3288C24.5868 47.6941 24.2937 49.3321 24.807 49.6007Z" fill="#606161"/>
<path d="M24.807 49.6007C24.8671 49.6273 24.9326 49.6404 24.9987 49.6391C26.1716 49.6995 27.3347 49.4032 28.3254 48.7917C28.5963 48.6229 28.8846 48.345 28.7895 48.0472C28.4728 47.893 28.1274 47.8018 27.7738 47.7788C27.4201 47.7559 27.0653 47.8017 26.7302 47.9137C26.675 47.9395 26.6121 47.9455 26.5527 47.9305C26.5143 47.9101 26.4841 47.8777 26.4672 47.8384C26.2597 47.4209 26.5068 46.9895 25.8842 46.9665C25.5405 46.9737 25.2114 47.1025 24.9591 47.3288C24.5868 47.6941 24.2937 49.3321 24.807 49.6007Z" fill="url(#paint3_linear_4062_848)"/>
<path d="M25.9287 42.3816C25.8679 42.3939 25.8048 42.3911 25.7453 42.3737C25.6859 42.3563 25.6318 42.3247 25.5882 42.2818C25.5503 42.2116 25.538 42.131 25.5533 42.0531C25.5941 41.5566 25.6821 41.0648 25.8163 40.584C25.8307 40.505 25.8668 40.4313 25.9208 40.3706C25.9764 40.3251 26.0419 40.2925 26.1125 40.2754L27.1026 39.9531C27.1216 40.1158 27.1438 40.2785 27.1739 40.4397C27.1779 40.5015 27.2017 40.5605 27.242 40.6086C27.2933 40.6497 27.3563 40.6749 27.4226 40.6807C27.7099 40.736 27.9945 40.8025 28.2764 40.8803C28.493 40.9304 28.6985 41.0177 28.8832 41.1382C29.7212 41.7522 28.7248 41.7845 28.2955 41.9195C27.53 42.1704 26.7347 42.3257 25.9287 42.3816Z" fill="#606161"/>
<path d="M25.9287 42.3816C25.8679 42.3939 25.8048 42.3911 25.7453 42.3737C25.6859 42.3563 25.6318 42.3247 25.5882 42.2818C25.5503 42.2116 25.538 42.131 25.5533 42.0531C25.5941 41.5566 25.6821 41.0648 25.8163 40.584C25.8307 40.505 25.8668 40.4313 25.9208 40.3706C25.9764 40.3251 26.0419 40.2925 26.1125 40.2754L27.1026 39.9531C27.1216 40.1158 27.1438 40.2785 27.1739 40.4397C27.1779 40.5015 27.2017 40.5605 27.242 40.6086C27.2933 40.6497 27.3563 40.6749 27.4226 40.6807C27.7099 40.736 27.9945 40.8025 28.2764 40.8803C28.493 40.9304 28.6985 41.0177 28.8832 41.1382C29.7212 41.7522 28.7248 41.7845 28.2955 41.9195C27.53 42.1704 26.7347 42.3257 25.9287 42.3816Z" fill="url(#paint4_linear_4062_848)"/>
<path d="M24.2664 16.4821C24.2902 16.6878 24.1571 16.8751 24.07 17.0639C23.9021 17.4231 23.891 17.8314 23.8086 18.2137C23.7262 18.5959 23.533 19.0027 23.1591 19.1578C22.8534 19.2837 22.4146 19.2668 22.2989 19.5692C22.2261 19.7642 22.348 19.9898 22.272 20.1832C22.1785 20.4242 21.8506 20.4718 21.5845 20.455C21.2138 20.4319 20.8209 20.3444 20.5611 20.0881C20.3724 19.8737 20.2412 19.6174 20.1793 19.342C19.8775 18.3375 19.7177 17.298 19.7041 16.2518C19.6962 15.7468 19.731 15.2156 20.0083 14.7858C20.6086 13.8555 22.0265 13.8095 22.9738 14.2193C23.1403 14.2866 23.287 14.3927 23.4009 14.5282C23.5147 14.6638 23.5922 14.8245 23.6264 14.9961C23.6993 15.2586 23.6898 15.5365 23.8165 15.7851C23.9433 16.0338 24.2316 16.1981 24.2664 16.4821Z" fill="#F4A982"/>
<path d="M23.3879 14.9594C23.1978 15.2802 22.9507 15.5735 22.7653 15.8805C22.5214 16.3036 22.3867 16.7776 22.3724 17.2621C22.3202 17.3158 22.214 17.279 22.176 17.2176C22.138 17.1561 22.1142 17.0794 22.0683 17.0211C21.9099 16.8154 21.5281 17.0211 21.5186 17.2851C21.5091 17.5491 21.7071 17.7579 21.894 17.9421C21.4711 18.2491 21.6897 18.9584 21.3554 19.3575C21.0212 19.7566 20.359 19.6231 19.8537 19.4465C19.6962 19.4073 19.5531 19.3265 19.4402 19.2132C19.3668 19.109 19.3176 18.9907 19.296 18.8663L18.8208 16.952C18.6545 16.2827 18.4897 15.5704 18.7162 14.918C18.9428 14.2655 19.54 13.7774 20.1055 13.3399C20.3425 13.1247 20.6285 12.9669 20.9404 12.8793C21.3887 12.7872 21.8101 12.9853 22.2362 13.085C22.5055 13.148 22.8382 13.1296 23.0932 13.2293C23.8283 13.5241 23.7142 14.4129 23.3879 14.9594Z" fill="#606161"/>
<path d="M23.3879 14.9594C23.1978 15.2802 22.9507 15.5735 22.7653 15.8805C22.5214 16.3036 22.3867 16.7776 22.3724 17.2621C22.3202 17.3158 22.214 17.279 22.176 17.2176C22.138 17.1561 22.1142 17.0794 22.0683 17.0211C21.9099 16.8154 21.5281 17.0211 21.5186 17.2851C21.5091 17.5491 21.7071 17.7579 21.894 17.9421C21.4711 18.2491 21.6897 18.9584 21.3554 19.3575C21.0212 19.7566 20.359 19.6231 19.8537 19.4465C19.6962 19.4073 19.5531 19.3265 19.4402 19.2132C19.3668 19.109 19.3176 18.9907 19.296 18.8663L18.8208 16.952C18.6545 16.2827 18.4897 15.5704 18.7162 14.918C18.9428 14.2655 19.54 13.7774 20.1055 13.3399C20.3425 13.1247 20.6285 12.9669 20.9404 12.8793C21.3887 12.7872 21.8101 12.9853 22.2362 13.085C22.5055 13.148 22.8382 13.1296 23.0932 13.2293C23.8283 13.5241 23.7142 14.4129 23.3879 14.9594Z" fill="url(#paint5_linear_4062_848)"/>
<path d="M28.3261 21.7138C28.3102 21.4068 28.258 21.089 28.4085 20.8265C28.6271 20.4489 29.1879 20.3767 29.5918 20.5578C29.7224 20.6094 29.8384 20.6903 29.9304 20.7939C30.0224 20.8974 30.0877 21.0207 30.1209 21.1535C30.1449 21.3742 30.0889 21.5962 29.9625 21.7813C29.8484 21.9717 29.7027 22.1436 29.5934 22.3355C29.4065 22.6656 29.0279 23.6941 28.4306 23.298C28.0029 23.0156 28.3467 22.116 28.3261 21.7138Z" fill="#F4A982"/>
<path d="M28.7364 33.9231C28.8881 34.303 28.9377 34.714 28.8805 35.1175C28.7586 36.5973 28.1835 38.0019 27.6132 39.382C27.549 39.5585 27.4606 39.7258 27.3503 39.8794C26.9479 40.3783 26.1891 40.3952 25.5364 40.366L25.4905 37.5475C25.507 37.2453 25.4579 36.943 25.3463 36.6602C25.1888 36.3722 24.9453 36.1368 24.6477 35.9848C23.9792 35.6041 23.1824 35.4598 22.544 35.033C21.7408 34.4957 21.3258 33.4979 21.4192 32.5661C21.5555 31.2152 22.4584 30.9466 23.74 31.0156C24.6271 31.0632 25.1657 31.4639 25.877 31.926C26.7705 32.5047 28.2596 32.9207 28.7364 33.9231Z" fill="#606161"/>
<path d="M28.7364 33.9231C28.8881 34.303 28.9377 34.714 28.8805 35.1175C28.7586 36.5973 28.1835 38.0019 27.6132 39.382C27.549 39.5585 27.4606 39.7258 27.3503 39.8794C26.9479 40.3783 26.1891 40.3952 25.5364 40.366L25.4905 37.5475C25.507 37.2453 25.4579 36.943 25.3463 36.6602C25.1888 36.3722 24.9453 36.1368 24.6477 35.9848C23.9792 35.6041 23.1824 35.4598 22.544 35.033C21.7408 34.4957 21.3258 33.4979 21.4192 32.5661C21.5555 31.2152 22.4584 30.9466 23.74 31.0156C24.6271 31.0632 25.1657 31.4639 25.877 31.926C26.7705 32.5047 28.2596 32.9207 28.7364 33.9231Z" fill="url(#paint6_linear_4062_848)"/>
<path d="M19.3896 35.3031C20.3401 36.9917 22.1191 38.5176 23.4466 39.956C23.6212 40.1279 23.77 40.3227 23.8886 40.5347C24.0581 40.8755 24.1658 42.4291 24.169 42.8082L24.2054 47.125C24.1983 47.2469 24.2138 47.3691 24.2514 47.4857C24.2977 47.5852 24.3672 47.673 24.4543 47.7422C24.5414 47.8115 24.6438 47.8603 24.7535 47.8848C25.3365 48.0384 25.967 47.7068 26.3107 47.2232C26.6545 46.7397 26.767 46.1486 26.8541 45.5622C27.1975 43.1246 27.2506 40.6569 27.0125 38.2075C26.9858 37.6324 26.8748 37.0638 26.683 36.5189C26.4418 35.9837 26.1275 35.4823 25.7484 35.0283L23.624 32.2313C23.3136 31.7787 22.9369 31.3722 22.5056 31.0247C21.6011 30.3646 19.3548 30.1405 18.7496 31.3318C18.0463 32.721 18.71 34.0996 19.3896 35.3031Z" fill="#606161"/>
<path d="M19.3896 35.3031C20.3401 36.9917 22.1191 38.5176 23.4466 39.956C23.6212 40.1279 23.77 40.3227 23.8886 40.5347C24.0581 40.8755 24.1658 42.4291 24.169 42.8082L24.2054 47.125C24.1983 47.2469 24.2138 47.3691 24.2514 47.4857C24.2977 47.5852 24.3672 47.673 24.4543 47.7422C24.5414 47.8115 24.6438 47.8603 24.7535 47.8848C25.3365 48.0384 25.967 47.7068 26.3107 47.2232C26.6545 46.7397 26.767 46.1486 26.8541 45.5622C27.1975 43.1246 27.2506 40.6569 27.0125 38.2075C26.9858 37.6324 26.8748 37.0638 26.683 36.5189C26.4418 35.9837 26.1275 35.4823 25.7484 35.0283L23.624 32.2313C23.3136 31.7787 22.9369 31.3722 22.5056 31.0247C21.6011 30.3646 19.3548 30.1405 18.7496 31.3318C18.0463 32.721 18.71 34.0996 19.3896 35.3031Z" fill="url(#paint7_linear_4062_848)"/>
<path d="M13.8128 34.963C13.8082 35.1718 13.8696 35.3769 13.9886 35.551C14.2151 35.8488 14.6397 35.924 15.023 35.9424C15.334 35.9795 15.6495 35.9317 15.9339 35.8043C16.2064 35.6584 16.4092 35.3437 16.3046 35.0505C16.2001 34.7573 15.8658 34.6115 15.747 34.3306C15.692 34.1513 15.6811 33.962 15.7153 33.7779C15.8626 32.1983 13.7858 33.9161 13.8128 34.963Z" fill="#F4A982"/>
<path d="M21.4137 19.9818C20.5995 19.819 19.6553 19.8467 19.0581 20.4085C18.5971 20.8429 18.4482 21.4969 18.3436 22.1125C18.0792 23.7794 17.9205 25.4604 17.8684 27.1461C17.8367 27.9413 17.8177 28.7442 17.9951 29.5209C18.1725 30.2977 18.5622 31.056 19.2165 31.5335C20.0086 32.1168 21.0636 32.2166 22.0585 32.2841C22.7618 32.3317 23.565 32.3394 24.0545 31.8466C24.2501 31.6287 24.393 31.3712 24.4727 31.0929C24.723 30.3391 24.78 29.5393 24.8228 28.7503C24.8862 27.5324 24.9157 26.3136 24.9115 25.0937C24.9115 23.9792 24.8624 22.791 24.3365 21.7763C23.7757 20.6925 22.5971 20.2182 21.4137 19.9818Z" fill="white"/>
<path d="M22.3376 27.682C22.3926 28.3352 22.3713 28.9923 22.2742 29.6408C22.2045 30.1013 22.0984 30.5619 22.1649 31.0117C22.2315 31.4614 22.5198 31.9327 22.9792 32.0478C23.4386 32.163 23.9566 31.879 24.2212 31.4799C24.4857 31.0807 24.5586 30.5926 24.6156 30.1197C24.7887 28.8296 24.8274 27.5259 24.7313 26.2282C24.7085 25.8049 24.622 25.387 24.4746 24.9879C24.2481 24.4368 22.7764 22.5839 22.0382 23.4282C21.6818 23.8365 21.9337 24.9173 21.9986 25.3947C22.1032 26.1653 22.2727 26.9144 22.3376 27.682Z" fill="url(#paint8_linear_4062_848)"/>
<path d="M22.7502 21.0907C22.5281 21.3799 22.4162 21.7346 22.4334 22.0946C22.4334 23.1293 22.9941 24.0749 23.3918 25.0359C23.6531 25.6668 23.8559 26.3377 24.29 26.878C24.6691 27.3431 25.1977 27.6721 25.7917 27.8129C25.9981 27.8681 26.2144 27.8786 26.4254 27.8436C26.8056 27.7669 27.1034 27.4859 27.3648 27.2065C28.3153 26.1872 29.1169 24.9576 29.2325 23.5883C29.2472 23.4823 29.2385 23.3746 29.2072 23.2721C29.1374 23.131 29.0275 23.0122 28.8903 22.9297C28.5735 22.6995 28.1886 22.4569 27.8115 22.5721C27.6067 22.6568 27.4286 22.7924 27.2951 22.965L26.2179 24.1333C25.8514 23.1838 25.3651 22.282 24.77 21.4484C24.3312 20.8128 23.3632 20.3722 22.7502 21.0907Z" fill="white"/>
<path d="M20.1236 19.9855C20.1098 20.0206 20.1098 20.0594 20.1236 20.0945C20.143 20.1199 20.1693 20.1396 20.1996 20.1513C21.0134 20.5304 21.9013 20.7366 22.804 20.7561C22.7258 20.5883 22.6648 20.4135 22.6218 20.2342C22.5949 20.1206 22.6107 19.7736 22.5378 19.6969C22.4238 19.5771 21.8535 19.6032 21.6713 19.5818L20.7905 19.4758C20.3026 19.4114 20.2377 19.5127 20.1236 19.9855Z" fill="white"/>
<path d="M20.1236 19.9855C20.1098 20.0206 20.1098 20.0594 20.1236 20.0945C20.143 20.1199 20.1693 20.1396 20.1996 20.1513C21.0134 20.5304 21.9013 20.7366 22.804 20.7561C22.7258 20.5883 22.6648 20.4135 22.6218 20.2342C22.5949 20.1206 22.6107 19.7736 22.5378 19.6969C22.4238 19.5771 21.8535 19.6032 21.6713 19.5818L20.7905 19.4758C20.3026 19.4114 20.2377 19.5127 20.1236 19.9855Z" fill="url(#paint9_linear_4062_848)"/>
<path d="M22.0198 17.2623C22.0197 17.2457 22.0141 17.2295 22.0039 17.2162C21.9918 17.2053 21.9761 17.1987 21.9596 17.1978C21.9363 17.1973 21.9134 17.2034 21.8937 17.2154C21.8739 17.2274 21.8583 17.2448 21.8487 17.2653C21.8298 17.3074 21.8217 17.3532 21.8249 17.3989C21.8241 17.4304 21.8273 17.4618 21.8344 17.4925C21.8547 17.5543 21.8864 17.6121 21.9279 17.6629C21.9452 17.695 21.9747 17.7193 22.0103 17.7305C22.1021 17.7474 22.2083 17.6215 22.1449 17.5463C22.1116 17.5079 22.0641 17.4864 22.0404 17.4403C22.0232 17.3825 22.0162 17.3223 22.0198 17.2623Z" fill="url(#paint10_linear_4062_848)"/>
<path opacity="0.24" d="M18.0941 53.8414C18.0943 54.5937 17.9324 55.3377 17.6188 56.0259C17.219 56.9484 16.5698 57.7492 15.7396 58.3441C14.9094 58.939 13.929 59.3058 12.9016 59.406C11.8743 59.5061 10.8381 59.3358 9.90233 58.9131C8.96651 58.4903 8.1657 57.8308 7.5843 57.0039C7.0029 56.1771 6.66244 55.2136 6.5988 54.215C6.53517 53.2163 6.75071 52.2195 7.22272 51.3296C7.69473 50.4398 8.40572 49.6898 9.28076 49.1587C10.1558 48.6276 11.1625 48.3351 12.1947 48.312H12.3373C13.09 48.3085 13.836 48.4488 14.5328 48.7249C15.2295 49.001 15.8633 49.4074 16.3979 49.9209C16.9325 50.4344 17.3575 51.0449 17.6485 51.7176C17.9396 52.3903 18.091 53.112 18.0941 53.8414Z" fill="#68E1FD"/>
<path opacity="0.4" d="M18.0947 53.8412C18.0949 54.5935 17.933 55.3375 17.6194 56.0257L12.1953 53.8412V48.3148H12.3379C13.0903 48.3114 13.8361 48.4516 14.5327 48.7275C15.2292 49.0033 15.8628 49.4095 16.3974 49.9226C16.932 50.4358 17.357 51.046 17.6482 51.7183C17.9394 52.3907 18.0911 53.1121 18.0947 53.8412Z" fill="#68E1FD"/>
<path d="M49.1147 22.4296H39.4941V14.9367C39.4984 14.8929 39.5193 14.8522 39.5529 14.8226C39.5864 14.793 39.6301 14.7766 39.6755 14.7766C39.7209 14.7766 39.7646 14.793 39.7982 14.8226C39.8317 14.8522 39.8527 14.8929 39.8569 14.9367V22.078H49.1147C49.1399 22.0757 49.1654 22.0786 49.1894 22.0864C49.2135 22.0942 49.2356 22.1067 49.2543 22.1233C49.273 22.1398 49.288 22.16 49.2983 22.1825C49.3085 22.2049 49.3138 22.2292 49.3138 22.2538C49.3138 22.2784 49.3085 22.3027 49.2983 22.3252C49.288 22.3476 49.273 22.3678 49.2543 22.3843C49.2356 22.4009 49.2135 22.4134 49.1894 22.4212C49.1654 22.429 49.1399 22.4319 49.1147 22.4296Z" fill="#68E1FD"/>
<path d="M39.6415 21.3748C39.6136 21.3748 39.586 21.3686 39.561 21.3566C39.536 21.3446 39.5142 21.3272 39.4973 21.3057C39.4686 21.2683 39.4561 21.2214 39.4626 21.1752C39.4691 21.129 39.4941 21.0871 39.5322 21.0585L42.7781 18.6837H45.0656L48.0121 16.8017C48.0522 16.776 48.1012 16.7669 48.1483 16.7762C48.1954 16.7856 48.2367 16.8127 48.2632 16.8516C48.2897 16.8904 48.2991 16.9379 48.2895 16.9836C48.2798 17.0292 48.2518 17.0692 48.2117 17.0949L45.1717 19.0368H42.9001L39.7508 21.3395C39.7194 21.3627 39.681 21.3751 39.6415 21.3748Z" fill="#68E1FD"/>
<path d="M47.4941 16.6041L48.5254 16.5704L48.2498 17.582L47.4941 16.6041Z" fill="#68E1FD"/>
<path d="M14.499 33.4066C14.4474 33.4356 14.4038 33.4763 14.3721 33.5252C14.3403 33.5742 14.3214 33.6299 14.3168 33.6875C14.3144 33.7196 14.3233 33.7516 14.3422 33.7781C14.3928 33.8395 14.4911 33.818 14.5671 33.795C14.7474 33.7342 14.9385 33.7091 15.1289 33.7213C15.3194 33.7334 15.5055 33.7825 15.676 33.8656C15.7008 33.8837 15.7305 33.8944 15.7615 33.8963C15.8328 33.8963 15.8613 33.8042 15.8629 33.7336C15.8645 33.6351 15.855 33.5368 15.8344 33.4404C15.8265 33.3823 15.8067 33.3263 15.7762 33.2757C15.7458 33.2251 15.7052 33.1809 15.657 33.1456C15.5822 33.1158 15.5016 33.1022 15.4209 33.1059C15.3401 33.1097 15.2612 33.1305 15.1897 33.1671C14.9515 33.2236 14.7201 33.3039 14.499 33.4066Z" fill="white"/>
<defs>
<linearGradient id="paint0_linear_4062_848" x1="15.8247" y1="26.9194" x2="47.1788" y2="32.1371" gradientUnits="userSpaceOnUse">
<stop stop-color="#010101" stop-opacity="0"/>
<stop offset="0.95" stop-color="#010101"/>
</linearGradient>
<linearGradient id="paint1_linear_4062_848" x1="11.602" y1="39.2633" x2="18.7718" y2="39.2633" gradientUnits="userSpaceOnUse">
<stop stop-color="#010101" stop-opacity="0"/>
<stop offset="0.95" stop-color="#010101"/>
</linearGradient>
<linearGradient id="paint2_linear_4062_848" x1="31.2543" y1="32.3632" x2="-8.68347" y2="37.5059" gradientUnits="userSpaceOnUse">
<stop stop-color="#010101" stop-opacity="0"/>
<stop offset="0.95" stop-color="#010101"/>
</linearGradient>
<linearGradient id="paint3_linear_4062_848" x1="26.765" y1="47.6158" x2="26.5283" y2="49.7805" gradientUnits="userSpaceOnUse">
<stop stop-color="#010101" stop-opacity="0"/>
<stop offset="0.95" stop-color="#010101"/>
</linearGradient>
<linearGradient id="paint4_linear_4062_848" x1="28.2099" y1="40.2754" x2="27.1215" y2="41.5421" gradientUnits="userSpaceOnUse">
<stop stop-color="#010101" stop-opacity="0"/>
<stop offset="0.95" stop-color="#010101"/>
</linearGradient>
<linearGradient id="paint5_linear_4062_848" x1="18.1555" y1="15.2327" x2="24.3084" y2="17.4292" gradientUnits="userSpaceOnUse">
<stop stop-color="#010101" stop-opacity="0"/>
<stop offset="0.95" stop-color="#010101"/>
</linearGradient>
<linearGradient id="paint6_linear_4062_848" x1="28.3689" y1="35.1236" x2="23.8943" y2="35.8467" gradientUnits="userSpaceOnUse">
<stop stop-color="#010101" stop-opacity="0"/>
<stop offset="0.95" stop-color="#010101"/>
</linearGradient>
<linearGradient id="paint7_linear_4062_848" x1="24.6442" y1="35.9325" x2="19.215" y2="45.0834" gradientUnits="userSpaceOnUse">
<stop stop-color="#010101" stop-opacity="0"/>
<stop offset="0.95" stop-color="#010101"/>
</linearGradient>
<linearGradient id="paint8_linear_4062_848" x1="23.1946" y1="27.5837" x2="43.3348" y2="23.7324" gradientUnits="userSpaceOnUse">
<stop stop-color="#010101" stop-opacity="0"/>
<stop offset="0.95" stop-color="#010101"/>
</linearGradient>
<linearGradient id="paint9_linear_4062_848" x1="21.6729" y1="19.8458" x2="18.4222" y2="27.7728" gradientUnits="userSpaceOnUse">
<stop stop-color="#010101" stop-opacity="0"/>
<stop offset="0.95" stop-color="#010101"/>
</linearGradient>
<linearGradient id="paint10_linear_4062_848" x1="21.9469" y1="17.471" x2="23.0125" y2="17.3714" gradientUnits="userSpaceOnUse">
<stop stop-color="#010101" stop-opacity="0"/>
<stop offset="0.95" stop-color="#010101"/>
</linearGradient>
</defs>
</svg>
