<svg width="60" height="46" viewBox="0 0 60 46" fill="none" xmlns="http://www.w3.org/2000/svg">
<path fill-rule="evenodd" clip-rule="evenodd" d="M4.91288 23.9838C4.91288 23.9838 10.5334 24.7156 8.31675 20.0827C6.10008 15.4499 4.27282 2.29427 13.4728 4.39196C22.6728 6.48965 29.3203 7.9746 29.5797 4.95202C29.8392 1.92945 32.6558 0 32.6558 0C32.6558 0 33.1895 6.48744 37.4182 6.50648C41.647 6.52552 51.714 3.96339 54.226 7.15642C56.738 10.3494 46.5226 21.9923 53.526 24.7386C60.5295 27.4849 53.7893 32.9346 53.7893 32.9346C53.7893 32.9346 58.4893 38.4339 48.2012 39.194C37.9131 39.9542 37.3515 38.9377 36.3613 41.0624C35.3711 43.1871 32.4345 48.1208 28.5572 44.984C24.68 41.8472 28.0153 38.406 22.2813 38.8C16.5472 39.194 0.14283 39.4141 4.46732 34.4576C8.79181 29.5012 7.59867 27.4849 7.59867 27.4849L4.91288 23.9838Z" fill="#E43535"/>
<path d="M26.6235 18.3544H24.0212V9.9215H26.7388C27.5569 9.9215 28.2569 10.0903 28.8388 10.428C29.4208 10.7629 29.8669 11.2446 30.1771 11.8733C30.4872 12.4991 30.6423 13.2486 30.6423 14.1215C30.6423 14.9999 30.4859 15.7562 30.1729 16.3903C29.86 17.0217 29.4043 17.5076 28.8059 17.848C28.2074 18.1856 27.48 18.3544 26.6235 18.3544ZM25.0424 17.4485H26.5576C27.2549 17.4485 27.8327 17.314 28.2912 17.045C28.7496 16.776 29.0914 16.3931 29.3165 15.8962C29.5416 15.3993 29.6541 14.8078 29.6541 14.1215C29.6541 13.4407 29.5429 12.8546 29.3206 12.3633C29.0982 11.8691 28.7661 11.4903 28.3241 11.2268C27.8822 10.9605 27.3318 10.8274 26.6729 10.8274H25.0424V17.4485ZM34.0847 18.5027C33.6839 18.5027 33.3202 18.4272 32.9935 18.2762C32.6669 18.1225 32.4074 17.9015 32.2153 17.6133C32.0231 17.3223 31.927 16.9709 31.927 16.5591C31.927 16.1968 31.9984 15.9031 32.1412 15.678C32.2839 15.4501 32.4747 15.2717 32.7135 15.1427C32.9523 15.0137 33.2159 14.9176 33.5041 14.8544C33.7951 14.7886 34.0874 14.7364 34.3812 14.698C34.7655 14.6486 35.077 14.6115 35.3159 14.5868C35.5574 14.5593 35.7331 14.514 35.8429 14.4509C35.9555 14.3878 36.0118 14.278 36.0118 14.1215V14.0886C36.0118 13.6823 35.9006 13.3666 35.6782 13.1415C35.4586 12.9164 35.1251 12.8038 34.6776 12.8038C34.2137 12.8038 33.85 12.9054 33.5865 13.1086C33.3229 13.3117 33.1376 13.5286 33.0306 13.7591L32.1082 13.4297C32.2729 13.0454 32.4925 12.7462 32.767 12.5321C33.0443 12.3152 33.3463 12.1642 33.6729 12.0791C34.0023 11.9913 34.3263 11.9474 34.6447 11.9474C34.8478 11.9474 35.0812 11.9721 35.3447 12.0215C35.611 12.0682 35.8676 12.1656 36.1147 12.3138C36.3645 12.4621 36.5717 12.6858 36.7365 12.985C36.9012 13.2842 36.9835 13.685 36.9835 14.1874V18.3544H36.0118V17.498H35.9623C35.8965 17.6352 35.7867 17.7821 35.6329 17.9385C35.4792 18.095 35.2747 18.2282 35.0194 18.338C34.7641 18.4478 34.4525 18.5027 34.0847 18.5027ZM34.2329 17.6297C34.6172 17.6297 34.9412 17.5542 35.2047 17.4033C35.471 17.2523 35.6714 17.0574 35.8059 16.8186C35.9431 16.5797 36.0118 16.3286 36.0118 16.065V15.1756C35.9706 15.225 35.88 15.2703 35.74 15.3115C35.6027 15.3499 35.4435 15.3842 35.2623 15.4144C35.0839 15.4419 34.9096 15.4666 34.7394 15.4886C34.5719 15.5078 34.4361 15.5242 34.3318 15.538C34.0792 15.5709 33.8431 15.6244 33.6235 15.6986C33.4067 15.7699 33.231 15.8784 33.0965 16.0238C32.9647 16.1666 32.8988 16.3615 32.8988 16.6086C32.8988 16.9462 33.0237 17.2015 33.2735 17.3744C33.5261 17.5446 33.8459 17.6297 34.2329 17.6297ZM38.7572 18.3544V12.0297H39.729V18.3544H38.7572ZM39.2513 10.9756C39.0619 10.9756 38.8986 10.9111 38.7613 10.7821C38.6268 10.6531 38.5595 10.498 38.5595 10.3168C38.5595 10.1356 38.6268 9.98052 38.7613 9.8515C38.8986 9.72248 39.0619 9.65797 39.2513 9.65797C39.4407 9.65797 39.6027 9.72248 39.7372 9.8515C39.8744 9.98052 39.9431 10.1356 39.9431 10.3168C39.9431 10.498 39.8744 10.6531 39.7372 10.7821C39.6027 10.9111 39.4407 10.9756 39.2513 10.9756ZM42.4806 9.9215V18.3544H41.5088V9.9215H42.4806ZM44.8863 20.7262C44.7216 20.7262 44.5747 20.7125 44.4457 20.685C44.3167 20.6603 44.2275 20.6356 44.1781 20.6109L44.4251 19.7544C44.6612 19.8148 44.8698 19.8368 45.051 19.8203C45.2322 19.8038 45.3928 19.7229 45.5328 19.5774C45.6755 19.4346 45.8059 19.2027 45.9239 18.8815L46.1051 18.3874L43.7663 12.0297H44.8204L46.5663 17.0697H46.6322L48.3781 12.0297H49.4322L46.7475 19.2768C46.6267 19.6034 46.4771 19.8738 46.2987 20.088C46.1202 20.3048 45.913 20.4654 45.6769 20.5697C45.4436 20.674 45.18 20.7262 44.8863 20.7262Z" fill="white"/>
<path d="M58.125 23.1196H1.875C0.839466 23.1196 0 24.0005 0 25.0872V32.9576C0 34.0442 0.839466 34.9252 1.875 34.9252H58.125C59.1605 34.9252 60 34.0442 60 32.9576V25.0872C60 24.0005 59.1605 23.1196 58.125 23.1196Z" fill="#FCC24C"/>
<path d="M6.318 25.8468V33.1196H5.43732V25.8468H6.318ZM13.8509 25.8468V33.1196H12.9986L9.03551 27.4093H8.96449V33.1196H8.08381V25.8468H8.93608L12.9134 31.5713H12.9844V25.8468H13.8509ZM19.5904 27.665C19.5478 27.3052 19.3749 27.0258 19.0719 26.827C18.7689 26.6281 18.3972 26.5287 17.9569 26.5287C17.6349 26.5287 17.3532 26.5807 17.1117 26.6849C16.8726 26.7891 16.6855 26.9323 16.5506 27.1146C16.418 27.2969 16.3517 27.504 16.3517 27.736C16.3517 27.9302 16.3979 28.0971 16.4902 28.2368C16.5849 28.3741 16.7057 28.4889 16.8525 28.5812C16.9992 28.6712 17.1531 28.7458 17.3141 28.8049C17.4751 28.8618 17.623 28.9079 17.758 28.9434L18.4966 29.1423C18.686 29.192 18.8967 29.2607 19.1287 29.3483C19.3631 29.4359 19.5868 29.5554 19.7999 29.7069C20.0153 29.8561 20.1929 30.0478 20.3326 30.2822C20.4722 30.5166 20.5421 30.8042 20.5421 31.1451C20.5421 31.5381 20.4391 31.8932 20.2331 32.2105C20.0295 32.5277 19.7312 32.7798 19.3382 32.9669C18.9476 33.1539 18.473 33.2474 17.9142 33.2474C17.3934 33.2474 16.9424 33.1634 16.5613 32.9953C16.1825 32.8272 15.8842 32.5928 15.6664 32.2922C15.4509 31.9915 15.329 31.6423 15.3006 31.2446H16.2097C16.2334 31.5192 16.3257 31.7465 16.4867 31.9264C16.65 32.1039 16.856 32.2365 17.1046 32.3241C17.3555 32.4093 17.6254 32.452 17.9142 32.452C18.2504 32.452 18.5523 32.3975 18.8198 32.2886C19.0873 32.1773 19.2992 32.0235 19.4554 31.827C19.6117 31.6281 19.6898 31.3961 19.6898 31.1309C19.6898 30.8895 19.6223 30.693 19.4874 30.5414C19.3525 30.3899 19.1749 30.2668 18.9547 30.1721C18.7346 30.0774 18.4966 29.9946 18.2409 29.9235L17.3461 29.6679C16.7779 29.5045 16.3281 29.2713 15.9966 28.9683C15.6652 28.6653 15.4995 28.2687 15.4995 27.7787C15.4995 27.3715 15.6096 27.0163 15.8297 26.7133C16.0523 26.4079 16.3506 26.1712 16.7246 26.0031C17.101 25.8326 17.5212 25.7474 17.9853 25.7474C18.454 25.7474 18.8707 25.8315 19.2353 25.9995C19.5998 26.1653 19.8887 26.3925 20.1017 26.6814C20.3172 26.9702 20.4308 27.2981 20.4426 27.665H19.5904ZM22.8707 25.8468V33.1196H21.9901V25.8468H22.8707ZM29.6081 28.1196C29.53 27.8805 29.427 27.6662 29.2992 27.4768C29.1737 27.2851 29.0234 27.1217 28.8482 26.9868C28.6754 26.8518 28.4789 26.7488 28.2587 26.6778C28.0385 26.6068 27.7971 26.5713 27.5343 26.5713C27.1034 26.5713 26.7116 26.6825 26.3588 26.9051C26.0061 27.1276 25.7256 27.4555 25.5172 27.8887C25.3089 28.322 25.2047 28.8535 25.2047 29.4832C25.2047 30.1129 25.3101 30.6444 25.5208 31.0777C25.7315 31.5109 26.0167 31.8388 26.3766 32.0613C26.7364 32.2839 27.1413 32.3951 27.5911 32.3951C28.0078 32.3951 28.3747 32.3064 28.6919 32.1288C29.0115 31.9489 29.2601 31.6956 29.4377 31.3689C29.6176 31.0398 29.7076 30.6527 29.7076 30.2076L29.9775 30.2645H27.79V29.4832H30.5598V30.2645C30.5598 30.8634 30.432 31.3842 30.1763 31.827C29.923 32.2697 29.5726 32.6129 29.1252 32.8568C28.6801 33.0983 28.1687 33.219 27.5911 33.219C26.9471 33.219 26.3813 33.0675 25.8936 32.7645C25.4083 32.4614 25.0295 32.0306 24.7573 31.4718C24.4874 30.9131 24.3525 30.2502 24.3525 29.4832C24.3525 28.9079 24.4294 28.3906 24.5833 27.9314C24.7395 27.4697 24.9597 27.0767 25.2438 26.7524C25.5279 26.428 25.8641 26.1795 26.2523 26.0066C26.6406 25.8338 27.0679 25.7474 27.5343 25.7474C27.9178 25.7474 28.2753 25.8054 28.6067 25.9214C28.9405 26.0351 29.2376 26.1972 29.498 26.4079C29.7608 26.6163 29.9798 26.866 30.155 27.1572C30.3302 27.446 30.4509 27.7668 30.5172 28.1196H29.6081ZM32.0682 33.1196V25.8468H32.9489V29.0855H36.8267V25.8468H37.7074V33.1196H36.8267V29.8667H32.9489V33.1196H32.0682ZM39.0728 26.6281V25.8468H44.5273V26.6281H42.2404V33.1196H41.3597V26.6281H39.0728ZM49.8638 27.665C49.8212 27.3052 49.6484 27.0258 49.3453 26.827C49.0423 26.6281 48.6706 26.5287 48.2303 26.5287C47.9083 26.5287 47.6266 26.5807 47.3851 26.6849C47.146 26.7891 46.959 26.9323 46.824 27.1146C46.6915 27.2969 46.6252 27.504 46.6252 27.736C46.6252 27.9302 46.6713 28.0971 46.7637 28.2368C46.8584 28.3741 46.9791 28.4889 47.1259 28.5812C47.2727 28.6712 47.4266 28.7458 47.5875 28.8049C47.7485 28.8618 47.8965 28.9079 48.0314 28.9434L48.7701 29.1423C48.9595 29.192 49.1702 29.2607 49.4022 29.3483C49.6365 29.4359 49.8603 29.5554 50.0733 29.7069C50.2888 29.8561 50.4663 30.0478 50.606 30.2822C50.7457 30.5166 50.8155 30.8042 50.8155 31.1451C50.8155 31.5381 50.7125 31.8932 50.5066 32.2105C50.303 32.5277 50.0047 32.7798 49.6117 32.9669C49.2211 33.1539 48.7464 33.2474 48.1877 33.2474C47.6668 33.2474 47.2158 33.1634 46.8347 32.9953C46.4559 32.8272 46.1576 32.5928 45.9398 32.2922C45.7244 31.9915 45.6025 31.6423 45.574 31.2446H46.4831C46.5068 31.5192 46.5991 31.7465 46.7601 31.9264C46.9235 32.1039 47.1294 32.2365 47.378 32.3241C47.629 32.4093 47.8989 32.452 48.1877 32.452C48.5239 32.452 48.8257 32.3975 49.0932 32.2886C49.3607 32.1773 49.5726 32.0235 49.7289 31.827C49.8851 31.6281 49.9632 31.3961 49.9632 31.1309C49.9632 30.8895 49.8958 30.693 49.7608 30.5414C49.6259 30.3899 49.4483 30.2668 49.2282 30.1721C49.008 30.0774 48.7701 29.9946 48.5144 29.9235L47.6195 29.6679C47.0513 29.5045 46.6015 29.2713 46.2701 28.9683C45.9386 28.6653 45.7729 28.2687 45.7729 27.7787C45.7729 27.3715 45.883 27.0163 46.1032 26.7133C46.3257 26.4079 46.624 26.1712 46.998 26.0031C47.3745 25.8326 47.7947 25.7474 48.2587 25.7474C48.7275 25.7474 49.1441 25.8315 49.5087 25.9995C49.8733 26.1653 50.1621 26.3925 50.3752 26.6814C50.5906 26.9702 50.7042 27.2981 50.7161 27.665H49.8638Z" fill="#333333"/>
</svg>
