<svg width="64" height="46" viewBox="0 0 64 46" fill="none" xmlns="http://www.w3.org/2000/svg">
<path d="M29.2302 37.235C24.3226 37.235 18.9997 44 13.4152 44C7.83065 44 2 38.2173 2 38.2173" stroke="#C59494" stroke-width="4" stroke-linecap="round" stroke-linejoin="round"/>
<path d="M34.7695 37.235C39.6771 37.235 45.0001 44 50.5846 44C56.1691 44 61.9998 38.2648 61.9998 38.2648" stroke="#C59494" stroke-width="4" stroke-linecap="round" stroke-linejoin="round"/>
<path d="M31.9977 40.0396C33.5271 40.0396 34.7669 38.7628 34.7669 37.1878C34.7669 35.6128 33.5271 34.3361 31.9977 34.3361C30.4683 34.3361 29.2285 35.6128 29.2285 37.1878C29.2285 38.7628 30.4683 40.0396 31.9977 40.0396Z" stroke="#C59494" stroke-width="4" stroke-linecap="round" stroke-linejoin="round"/>
<path d="M32 34.336V26.969" stroke="#C59494" stroke-width="4" stroke-linecap="round" stroke-linejoin="round"/>
<path d="M5.29297 15.736L18.6312 2" stroke="#C59494" stroke-width="4" stroke-linecap="round" stroke-linejoin="round"/>
<path d="M61.289 2L47.9508 15.736L42.0586 9.66806" stroke="#C59494" stroke-width="4" stroke-linecap="round" stroke-linejoin="round"/>
<path d="M32.0014 8.86011L23.4785 26.9688H40.5243L32.0014 8.86011Z" stroke="#C59494" stroke-width="4" stroke-linecap="round" stroke-linejoin="round"/>
<path d="M5.29297 2L18.6312 15.736" stroke="#C59494" stroke-width="4" stroke-linecap="round" stroke-linejoin="round"/>
<path d="M32 40.0394V41.1642" stroke="#C59494" stroke-width="4" stroke-linecap="round" stroke-linejoin="round"/>
</svg>
