<svg width="60" height="70" viewBox="0 0 60 70" fill="none" xmlns="http://www.w3.org/2000/svg">
<path d="M59.0678 40.1448L54.734 31.008C54.1891 29.8593 53.9591 28.5952 54.0558 27.3342C56.1689 13.0886 42.8107 0.688416 28.2244 0.688416C-7.67072 0.688416 -0.511672 32.2423 6.18173 45.5205C7.10817 47.3584 7.4069 49.4341 7.04597 51.4496L4.75654 69.306H32.9396L33.7194 58.8283L44.5169 61.7973C47.8258 62.7071 51.2117 60.6106 51.751 57.3181L53.6047 45.9981C53.6903 45.4757 54.0316 45.0257 54.5203 44.7907L57.9807 43.1264C59.1152 42.5808 59.5968 41.2601 59.0678 40.1448Z" fill="#FFB69F"/>
<path d="M33.7184 58.8276L32.9366 69.3059L29.1875 57.1075C30.0691 57.6634 31.0364 58.092 32.0579 58.3741L33.7184 58.8276Z" fill="#EA8F7D"/>
<path d="M40.3157 29.27L41.972 30.1958C42.2785 30.3673 42.4146 30.7276 42.2939 31.0501C41.5786 32.9604 40.5229 34.7132 39.1992 36.2391C38.9718 36.5013 38.5821 36.5668 38.2759 36.3957L36.6193 35.4684C34.6586 37.4363 32.1406 38.8807 29.3122 39.5607V41.4133C29.3122 41.7562 29.0589 42.0504 28.7105 42.1102C26.6764 42.458 24.5647 42.4586 22.5275 42.1102C22.1791 42.0507 21.9258 41.7562 21.9258 41.4133V39.5607C19.0974 38.8807 16.5791 37.4363 14.6186 35.4684L12.9621 36.3957C12.6559 36.5671 12.2661 36.5016 12.0387 36.2391C10.7151 34.7132 9.65943 32.9607 8.94413 31.0501C8.82344 30.7276 8.95954 30.3673 9.26597 30.1958L10.9223 29.27C10.1391 26.6271 10.1296 23.7637 10.9223 21.0887L9.26597 20.1629C8.95954 19.9914 8.82344 19.6311 8.94413 19.3086C9.65943 17.3983 10.7151 15.6455 12.0387 14.1196C12.2661 13.8574 12.6559 13.7919 12.9621 13.963L14.6186 14.8903C16.5794 12.9224 19.0974 11.478 21.9258 10.798V8.94544C21.9258 8.60253 22.1791 8.30829 22.5275 8.24855C24.561 7.90066 26.6733 7.90011 28.7105 8.24855C29.0589 8.30801 29.3122 8.60253 29.3122 8.94544V10.798C32.1406 11.478 34.6589 12.9224 36.6193 14.8903L38.2762 13.9633C38.5824 13.7919 38.9721 13.8574 39.1995 14.1198C40.5231 15.6458 41.5788 17.3983 42.2941 19.3089C42.4148 19.6313 42.2787 19.9917 41.9723 20.1631L40.316 21.089C41.0992 23.7316 41.1086 26.595 40.3157 29.27Z" fill="#72C2E9"/>
<path d="M25.6179 34.7684C31.0807 34.7684 35.5092 30.4762 35.5092 25.1815C35.5092 19.8868 31.0807 15.5946 25.6179 15.5946C20.1551 15.5946 15.7266 19.8868 15.7266 25.1815C15.7266 30.4762 20.1551 34.7684 25.6179 34.7684Z" fill="#EFEFEF"/>
<path d="M31.1488 25.6605L25.6158 31.0232L20.0828 25.6605C18.9698 24.5817 18.9698 22.8328 20.0828 21.754C21.1959 20.6752 23.0003 20.6752 24.1133 21.754L25.6158 23.2103L27.1183 21.754C28.2314 20.6752 30.0358 20.6752 31.1488 21.754C32.2619 22.8328 32.2619 24.5817 31.1488 25.6605Z" fill="#FC5D3D"/>
<path d="M8.31499 66.9565C8.2856 66.9565 8.25621 66.9549 8.22597 66.951C7.83507 66.904 7.55745 66.5586 7.60624 66.1797L9.44858 51.8086C9.44972 51.7989 9.45114 51.7892 9.45286 51.7798C9.56841 51.1109 9.62719 50.4311 9.62719 49.7591C9.62719 47.9232 9.20263 46.1503 8.3652 44.4896C5.28286 38.3741 3.12695 30.5305 3.12695 23.6767C3.12695 17.6259 4.83918 12.824 8.21655 9.40348C11.6473 5.92871 16.8299 3.85436 23.62 3.23878C24.0118 3.20449 24.3601 3.48269 24.3967 3.86294C24.4335 4.24291 24.145 4.58001 23.7527 4.61569C11.0133 5.77053 4.55357 12.1836 4.55357 23.677C4.55357 30.3721 6.68864 38.0124 9.64716 43.8826C10.5805 45.7338 11.0541 47.7111 11.0541 49.7591C11.0541 50.5025 10.9896 51.2541 10.8626 51.9936L9.02202 66.3504C8.97694 66.7005 8.66964 66.9565 8.31499 66.9565ZM26.5323 4.44865C26.1488 4.44865 25.8321 4.15358 25.8199 3.77914C25.8076 3.39751 26.1166 3.07838 26.5103 3.06622C27.0761 3.04879 27.6545 3.03607 28.2294 3.0405C28.6234 3.04077 28.9427 3.35023 28.9424 3.73213C28.9421 4.11404 28.6229 4.42321 28.2291 4.42321C27.6659 4.4293 27.1058 4.43123 26.5554 4.44838C26.5477 4.44866 26.5403 4.44865 26.5323 4.44865Z" fill="#FBE0E2"/>
<path d="M25.615 38.2463C23.3396 38.2463 21.0901 37.6863 19.1091 36.6268C18.7641 36.4424 18.6392 36.0218 18.8295 35.6877C19.0198 35.3531 19.4543 35.2319 19.7984 35.4167C21.5686 36.3636 23.5801 36.8638 25.615 36.8638C32.2788 36.8638 37.6711 31.6402 37.6711 25.1799C37.6711 22.0585 36.4174 19.1247 34.1411 16.9182C33.8623 16.648 33.8623 16.2105 34.1411 15.9406C34.4198 15.6707 34.8712 15.6704 35.1497 15.9406C37.6956 18.4082 39.0977 21.6894 39.0977 25.1799C39.0977 32.4015 33.0694 38.2463 25.615 38.2463ZM16.6562 34.9424C16.4599 34.7729 16.2673 34.5964 16.0835 34.4184C15.8051 34.1479 15.8056 33.7101 16.0844 33.4405C16.3637 33.1706 16.8154 33.1709 17.0933 33.4413C17.2571 33.6006 17.4294 33.7582 17.6052 33.9101C17.8993 34.1642 17.9253 34.6011 17.6631 34.886C17.4012 35.1714 16.9503 35.1965 16.6562 34.9424Z" fill="#C5E5FE"/>
<path d="M43.3787 51.5085C43.2605 51.8724 43.4691 52.2607 43.8449 52.3755C45.9389 53.0129 49.3779 53.7515 51.6502 53.5463L51.0499 57.2103C50.6016 59.9771 47.7056 61.9519 44.7157 61.1319C30.9785 57.3563 30.1845 57.4672 27.909 55.1918C27.6348 54.9177 27.1831 54.9111 26.9004 55.1766C26.6176 55.4423 26.6105 55.8801 26.8847 56.1541C29.1853 58.4541 31.6356 58.976 32.9704 59.3402L32.2328 69.2565C32.2008 69.6732 32.5478 70.0001 32.9432 70.0001C33.3173 70.0001 33.6309 69.718 33.6566 69.356C33.6566 69.356 34.367 59.802 34.3727 59.7268L44.3279 62.4618C48.0314 63.4928 51.8485 61.1327 52.4596 57.4287L54.3142 46.1073C54.3628 45.8059 54.5625 45.5459 54.8421 45.4102L58.3031 43.7454C59.8042 43.0236 60.403 41.3027 59.7214 39.8569L55.3874 30.7199C54.8832 29.6525 54.6866 28.4968 54.7711 27.4155C55.4008 23.1117 54.7074 18.8258 52.7253 14.8159C52.5598 14.4841 52.1175 14.332 51.7723 14.4924C51.4059 14.6641 51.2701 15.0761 51.4385 15.4132C53.3099 19.2055 53.951 23.2455 53.3559 27.2382L53.3501 27.2797C53.242 28.5618 53.4677 29.9826 54.092 31.2979L58.426 40.4349C58.7901 41.2136 58.4637 42.1259 57.6699 42.5089L54.209 44.171C53.5156 44.5056 53.0277 45.1499 52.905 45.8911L51.8827 52.1296C49.7285 52.4872 45.726 51.4991 44.2737 51.0563C43.8971 50.9424 43.4968 51.1443 43.3787 51.5085Z" fill="black"/>
<path d="M47.0497 33.2953V30.9389C47.0497 30.557 46.7304 30.2476 46.3364 30.2476C45.9423 30.2476 45.623 30.557 45.623 30.9389V33.2953C45.623 33.6772 45.9423 33.9867 46.3364 33.9867C46.7304 33.9867 47.0497 33.6772 47.0497 33.2953Z" fill="black"/>
<path d="M4.55227 39.9538C4.42416 39.6023 4.00445 39.4087 3.63952 39.5332C3.45976 39.594 3.3171 39.7212 3.23436 39.8872C3.15447 40.0556 3.14306 40.2439 3.20839 40.4154C3.30854 40.6919 3.5796 40.8772 3.87919 40.8772C3.96193 40.8772 4.04182 40.8634 4.11886 40.8357C4.4895 40.7057 4.6838 40.3105 4.55227 39.9538Z" fill="black"/>
<path d="M51.0772 13.2848C51.4081 13.0804 51.5051 12.6545 51.2997 12.3337C51.2966 12.3307 51.2966 12.3307 51.2966 12.3307C51.0911 12.0182 50.6349 11.9189 50.3125 12.1178C49.9846 12.3124 49.8768 12.7438 50.0925 13.0691C50.2928 13.3766 50.7139 13.4994 51.0772 13.2848Z" fill="black"/>
<path d="M28.2013 0C18.1608 0 10.6622 2.464 5.91475 7.32286C1.567 11.7755 0 17.7436 0 23.8242C0 28.1161 0.796052 32.9333 2.30541 37.7564C2.39672 38.0496 2.67063 38.2462 2.98762 38.2487C3.05581 38.2487 3.12714 38.2376 3.19562 38.2183C3.37851 38.163 3.5266 38.044 3.6179 37.8809C3.70635 37.7177 3.72632 37.5324 3.67182 37.3555C2.2027 32.66 1.42633 27.9809 1.42633 23.8242C1.42633 17.2535 3.28692 12.0213 6.95019 8.27417C12.2364 2.86941 20.5233 1.38272 28.2382 1.38272C35.9704 1.38272 43.5372 4.93657 48.4787 10.8875C48.7155 11.1751 49.1863 11.2249 49.4805 10.9926C49.7883 10.755 49.8371 10.3181 49.5889 10.0219C44.4651 3.85778 36.4657 0 28.2013 0Z" fill="black"/>
<path d="M4.67026 69.9944C4.69908 69.9999 4.73018 69.9999 4.759 69.9999C5.1185 69.9999 5.42066 69.7403 5.46631 69.3946L7.75204 51.5576C7.85732 50.9713 7.90897 50.3712 7.90897 49.7791C7.90897 48.2058 7.53491 46.6293 6.82474 45.2219C6.39076 44.3591 5.96563 43.4465 5.56332 42.5008C5.41781 42.1578 4.98982 41.9836 4.63317 42.1272C4.45627 42.1991 4.31931 42.3318 4.24542 42.5008C4.17408 42.6722 4.17408 42.8603 4.24542 43.0317C4.66199 44.0076 5.09825 44.9482 5.54364 45.8273C6.1568 47.0469 6.48235 48.4157 6.48235 49.7791C6.48235 50.2962 6.4367 50.8192 6.34539 51.336L4.0514 69.2256C4.02572 69.4081 4.07707 69.5879 4.19406 69.7345C4.31104 69.881 4.47909 69.9723 4.67026 69.9944Z" fill="black"/>
<path d="M22.3975 42.7923C24.5192 43.1537 26.7136 43.1534 28.8287 42.7923C29.516 42.6761 30.0185 42.0954 30.0185 41.4154V40.0935C32.5233 39.3994 34.8433 38.0996 36.7293 36.3353L37.9134 36.9962C38.4906 37.3236 39.2698 37.2263 39.7392 36.6865C41.1373 35.077 42.2186 33.2601 42.9576 31.2884C43.1984 30.6352 42.9137 29.9291 42.3216 29.6012L41.1401 28.9402C41.4542 27.7151 41.6137 26.4513 41.6137 25.182C41.6137 23.9127 41.454 22.6489 41.1401 21.4238L42.3216 20.7626C42.91 20.4338 43.1999 19.7313 42.9576 19.0757C42.2186 17.1039 41.1373 15.287 39.7392 13.6773C39.2712 13.1397 38.494 13.039 37.9134 13.3675L36.7293 14.0287C34.8436 12.2644 32.5236 10.9647 30.0185 10.2705V8.94865C30.0185 8.26836 29.516 7.68762 28.8287 7.5687C26.7199 7.2092 24.5003 7.2092 22.3975 7.5687C21.707 7.68789 21.2077 8.26836 21.2077 8.94865V10.2705C20.891 10.3563 20.574 10.4558 20.263 10.5609C19.8921 10.6881 19.6983 11.0861 19.8293 11.4458C19.9574 11.7943 20.3771 11.9906 20.7392 11.8662C21.1757 11.7141 21.6294 11.5813 22.0916 11.4707C22.4112 11.3958 22.6337 11.1192 22.6337 10.8015V8.94865C22.6306 8.94036 22.6395 8.93206 22.6452 8.93206C24.5854 8.60021 26.6365 8.60021 28.5799 8.93206C28.5856 8.93206 28.5913 8.93759 28.5913 8.94865V10.8015C28.5913 11.1192 28.8136 11.3958 29.1331 11.4707C31.7809 12.1068 34.1893 13.4563 36.1007 15.3725C36.3207 15.594 36.6942 15.6462 36.9681 15.4917L38.6261 14.565C38.6318 14.5622 38.6318 14.5622 38.6318 14.5622C38.6404 14.5622 38.6432 14.5622 38.6461 14.568C39.936 16.053 40.9347 17.7289 41.6163 19.5458V19.5513C41.6163 19.5571 41.6135 19.5651 41.608 19.5682L39.9529 20.4918C39.6676 20.6522 39.5335 20.9758 39.6222 21.2825C39.996 22.5438 40.1868 23.8546 40.1868 25.182C40.1868 26.5094 39.9957 27.8202 39.6222 29.0813C39.5335 29.3882 39.6676 29.7118 39.9529 29.8722L41.6109 30.7986C41.6166 30.7986 41.6166 30.8124 41.6166 30.8124V30.8207C40.9375 32.6351 39.9389 34.3079 38.6464 35.7957C38.6435 35.8013 38.6293 35.8013 38.6267 35.7985L36.9687 34.8721C36.6919 34.7169 36.321 34.767 36.1013 34.991C34.1928 36.9047 31.7844 38.2542 29.1337 38.893C28.8141 38.9677 28.5919 39.2442 28.5919 39.5622V41.4179C28.5919 41.4234 28.5859 41.4317 28.5805 41.4317C26.6371 41.7635 24.6002 41.7663 22.6426 41.4317C22.6397 41.4317 22.6312 41.4234 22.6343 41.4151V39.5622C22.6343 39.2442 22.4118 38.9677 22.0922 38.893C19.4416 38.2539 17.0334 36.9047 15.1246 34.991C14.9046 34.7698 14.5311 34.7172 14.2544 34.8721L12.5964 35.801C12.5935 35.801 12.5821 35.804 12.5767 35.7955C11.2867 34.3077 10.2881 32.6318 9.60931 30.8177C9.60931 30.8149 9.60645 30.8119 9.60645 30.8119C9.60645 30.8063 9.60931 30.8008 9.61216 30.798L11.2727 29.8716C11.5581 29.7112 11.6922 29.3877 11.6009 29.0807C11.2268 27.8224 11.0385 26.5089 11.0385 25.1815C11.0385 23.851 11.2268 22.5405 11.6009 21.2819C11.6919 20.9752 11.5552 20.6517 11.2727 20.4913L9.61473 19.5646C9.60902 19.5646 9.60645 19.5566 9.60645 19.5508L9.60931 19.5452C10.2884 17.7308 11.287 16.0553 12.5795 14.5675C12.5795 14.5608 12.5898 14.5616 12.5966 14.5616L14.2547 15.4908C14.5314 15.6457 14.9049 15.5932 15.1249 15.3716C15.4273 15.0702 15.744 14.7798 16.0693 14.5061C16.366 14.2547 16.3974 13.8177 16.1406 13.5301C15.8924 13.2536 15.4216 13.2204 15.1363 13.461C14.9163 13.6432 14.7023 13.8343 14.4943 14.0279L13.3131 13.3667C12.7556 13.0476 11.9627 13.1245 11.487 13.6764C10.0861 15.2887 9.00471 17.1056 8.26857 19.0748C8.26572 19.0748 8.26572 19.0776 8.26572 19.0776C8.0329 19.6865 8.28141 20.4144 8.90484 20.7645L10.0861 21.423C9.77223 22.6422 9.61245 23.906 9.61245 25.1812C9.61245 26.4505 9.77251 27.7143 10.0861 28.9394L8.90484 29.6003C8.28427 29.9416 8.02947 30.6719 8.26857 31.29C9.00471 33.2562 10.0861 35.0731 11.487 36.6854C11.953 37.2219 12.7376 37.3239 13.3102 36.9951L14.4943 36.3342C16.3803 38.0985 18.7 39.3983 21.208 40.0924V41.4143C21.2077 42.0957 21.707 42.6736 22.3975 42.7923Z" fill="black"/>
<path d="M18.2783 12.9751C18.6178 12.7845 18.732 12.3587 18.5351 12.0293C18.3439 11.714 17.8871 11.5951 17.5593 11.7832C17.2272 11.9662 17.0996 12.3866 17.3025 12.7262C17.5014 13.0558 17.9405 13.1736 18.2783 12.9751Z" fill="black"/>
<path d="M25.6133 35.4607C31.4827 35.4607 36.2159 30.8612 36.2159 25.1843C36.2159 19.4933 31.4647 14.9052 25.6133 14.9052C19.7573 14.9052 15.0078 19.5014 15.0078 25.1843C15.0078 30.794 19.6828 35.4607 25.6133 35.4607ZM25.6133 16.2879C30.6635 16.2959 34.7807 20.2867 34.7921 25.1843C34.7807 30.0791 30.6635 34.0697 25.6133 34.0807C20.5631 34.0697 16.4458 30.0791 16.4344 25.1843C16.4458 20.2867 20.5631 16.2959 25.6133 16.2879Z" fill="black"/>
<path d="M19.5804 26.1463L25.1131 31.5085C25.3824 31.7695 25.8304 31.7859 26.1231 31.5085L31.6556 26.1463V26.1433C33.0688 24.7741 33.0288 22.5875 31.6556 21.2626C30.2849 19.934 28.0254 19.8917 26.6167 21.2626L25.6181 22.2274L24.6195 21.2626C23.2522 19.9368 20.9919 19.8892 19.5807 21.2626C18.1983 22.5966 18.1752 24.7783 19.5804 26.1463ZM20.5876 22.2385C21.4273 21.4307 22.7717 21.4304 23.612 22.2385L25.1131 23.6934C25.381 23.9558 25.8521 23.9558 26.1231 23.6934L27.6239 22.2385C28.4711 21.4235 29.8189 21.4379 30.6455 22.2385C31.4861 23.0532 31.4761 24.3623 30.6455 25.1673L30.6427 25.1701L25.6181 30.0428L20.5879 25.1673C19.7556 24.3609 19.7516 23.0488 20.5876 22.2385Z" fill="black"/>
</svg>
