<svg width="60" height="60" viewBox="0 0 60 60" fill="none" xmlns="http://www.w3.org/2000/svg">
<path d="M33.7437 56.8974C33.7437 56.8974 33.1586 44.5653 34.7764 41.7537C36.3942 38.942 40.8931 37.2197 43.6468 34.2204C46.9513 30.6176 47.7361 27.5484 50.1594 26.3376C52.266 25.2888 53.3193 26.7682 53.3193 26.7682C53.3193 26.7682 53.0164 16.9312 53.4535 15.8382C53.8907 14.7452 55.9009 12.3273 57.9937 15.9155C60.0865 19.5036 60.0934 30.8678 58.6821 37.6945C57.2709 44.5211 49.8048 48.6208 49.2059 50.3394C48.607 52.058 48.7997 56.8974 48.7997 56.8974H33.7437Z" fill="#FFC9B0"/>
<path d="M48.7825 57.2651H33.7437C33.6525 57.2651 33.5649 57.2263 33.5003 57.1573C33.4358 57.0883 33.3995 56.9947 33.3995 56.8971C33.3754 56.3892 32.8281 44.4178 34.47 41.5436C35.4029 39.917 37.2238 38.6731 39.1273 37.3556C40.6315 36.3215 42.1873 35.2542 43.3887 33.9441C44.5576 32.6417 45.6184 31.2331 46.5589 29.7341C47.6673 28.0486 48.5416 26.7163 50.001 25.984C51.3779 25.3069 52.352 25.616 52.9406 25.9619C52.8752 23.4889 52.7307 16.6586 53.1265 15.6576C53.4329 14.8958 54.3141 13.7218 55.4913 13.6261C56.4895 13.5488 57.4258 14.2407 58.2691 15.6907C60.4376 19.4076 60.4377 30.7792 58.9954 37.742C58.0006 42.5262 54.1592 45.9708 51.6154 48.2414C50.5828 49.1762 49.6637 49.9858 49.5054 50.4495C48.9374 52.0761 49.1198 56.8161 49.1233 56.8603C49.1254 56.9103 49.1179 56.9603 49.1014 57.0071C49.0848 57.0539 49.0595 57.0966 49.0269 57.1326C48.9968 57.1714 48.9596 57.2032 48.9176 57.226C48.8755 57.2488 48.8296 57.2621 48.7825 57.2651ZM34.0708 56.5291H48.428C48.3936 55.333 48.3419 51.7081 48.8651 50.2103C49.0854 49.5773 49.9632 48.7934 51.1783 47.7078C53.6497 45.4997 57.3741 42.1655 58.3276 37.6132C59.7355 30.8418 59.7045 19.5806 57.6908 16.1102C57.0024 14.9142 56.2692 14.3364 55.5463 14.3953C54.6479 14.4689 53.9561 15.4993 53.7599 15.9814C53.4638 16.7174 53.5361 22.9737 53.6532 26.7531C53.6551 26.8307 53.6342 26.907 53.5932 26.971C53.5522 27.0351 53.4933 27.0836 53.425 27.1098C53.3566 27.1359 53.2823 27.1382 53.2126 27.1165C53.1429 27.0947 53.0815 27.05 53.037 26.9887C52.9992 26.9408 52.1111 25.7669 50.2833 26.6722C48.9856 27.3162 48.156 28.5785 47.1062 30.1757C46.1451 31.7073 45.0614 33.1468 43.8671 34.4777C42.6107 35.8468 41.0239 36.9397 39.4853 37.9959C37.6368 39.2619 35.8916 40.4616 35.0449 41.9447C33.6749 44.3699 33.995 54.5087 34.0708 56.5291Z" fill="#093F68"/>
<path d="M46.006 41.6028C45.9191 41.6024 45.8355 41.5669 45.772 41.5034C45.7079 41.4344 45.6719 41.3412 45.6719 41.2439C45.6719 41.1467 45.7079 41.0535 45.772 40.9845C48.24 38.125 50.7803 35.019 52.3121 31.2506C52.8925 29.8665 53.1194 28.3427 52.9695 26.8344C52.9616 26.7868 52.9625 26.738 52.9722 26.6908C52.982 26.6435 53.0003 26.5988 53.0262 26.5592C53.0521 26.5195 53.085 26.4857 53.1231 26.4597C53.1613 26.4337 53.2038 26.4159 53.2483 26.4075C53.2931 26.3991 53.339 26.4002 53.3834 26.4108C53.4277 26.4214 53.4697 26.4414 53.5068 26.4694C53.5439 26.4975 53.5755 26.5331 53.5997 26.5743C53.6238 26.6155 53.6401 26.6613 53.6476 26.7093C53.8287 28.361 53.5847 30.0342 52.942 31.5487C51.3483 35.4238 48.7666 38.5814 46.2608 41.485C46.2283 41.5225 46.1888 41.5523 46.145 41.5725C46.1011 41.5928 46.0538 41.6031 46.006 41.6028Z" fill="#093F68"/>
<path d="M32.8242 48.6211H51.8972V59.632H32.8242V48.6211Z" fill="#68E1FD"/>
<path d="M51.8957 59.9998H32.8227C32.7314 59.9998 32.6439 59.961 32.5793 59.892C32.5148 59.823 32.4785 59.7294 32.4785 59.6318V48.6208C32.4785 48.5232 32.5148 48.4296 32.5793 48.3606C32.6439 48.2916 32.7314 48.2528 32.8227 48.2528H51.8957C51.987 48.2528 52.0746 48.2916 52.1391 48.3606C52.2037 48.4296 52.2399 48.5232 52.2399 48.6208V59.6318C52.2399 59.7294 52.2037 59.823 52.1391 59.892C52.0746 59.961 51.987 59.9998 51.8957 59.9998ZM33.1669 59.2638H51.5515V48.9888H33.1669V59.2638Z" fill="#093F68"/>
<path d="M26.2591 56.8974C26.2591 56.8974 26.8443 44.5653 25.2265 41.7537C23.6087 38.942 19.1098 37.2197 16.3561 34.2204C13.0516 30.6176 12.2668 27.5484 9.84351 26.3376C7.73691 25.2888 6.68361 26.7682 6.68361 26.7682C6.68361 26.7682 6.98652 16.9312 6.54937 15.8382C6.11221 14.7452 4.102 12.3273 2.00917 15.9155C-0.083664 19.5036 -0.0905483 30.8678 1.32074 37.6945C2.73202 44.5211 10.1981 48.6208 10.797 50.3394C11.3959 52.058 11.2032 56.8974 11.2032 56.8974H26.2591Z" fill="#FFC9B0"/>
<path d="M26.2598 57.2652H11.221C11.1746 57.265 11.1288 57.2548 11.0862 57.2352C11.0436 57.2156 11.0052 57.187 10.9732 57.1511C10.9406 57.1151 10.9153 57.0724 10.8987 57.0256C10.8822 56.9788 10.8747 56.9288 10.8768 56.8788C10.8768 56.8346 11.0627 52.0946 10.4947 50.468C10.3364 50.019 9.43109 49.2094 8.38468 48.2599C5.84093 45.9893 1.99948 42.5557 1.0047 37.7605C-0.437563 30.8124 -0.437563 19.4261 1.73099 15.7092C2.57432 14.2592 3.5037 13.5637 4.50881 13.6446C5.68603 13.7403 6.5741 14.9143 6.87357 15.6761C7.26942 16.6623 7.12485 23.4927 7.05945 25.9804C7.64806 25.6124 8.63596 25.3254 9.99905 26.0025C11.462 26.7385 12.3363 28.0671 13.4412 29.7526C14.3817 31.2516 15.4425 32.6603 16.6114 33.9626C17.8127 35.2728 19.3652 36.34 20.8728 37.3741C22.7901 38.6916 24.5972 39.9502 25.53 41.5621C27.172 44.4363 26.6247 56.4077 26.6006 56.9156C26.5962 57.0093 26.5584 57.0978 26.4951 57.1628C26.4318 57.2277 26.3476 57.2644 26.2598 57.2652ZM11.5756 56.5292H25.9328C26.0085 54.5088 26.3286 44.3848 24.9449 41.9448C24.0981 40.4728 22.3529 39.262 20.5045 37.9961C18.9659 36.9399 17.379 35.8469 16.1226 34.4779C14.9284 33.1469 13.8446 31.7074 12.8836 30.1758C11.8337 28.5786 11.0042 27.3163 9.70646 26.6723C7.89245 25.767 7.00437 26.9409 6.95274 26.9925C6.90781 27.0535 6.846 27.0977 6.77614 27.1188C6.70627 27.14 6.63195 27.137 6.56378 27.1102C6.49382 27.0833 6.43388 27.033 6.39293 26.9666C6.35198 26.9003 6.33221 26.8216 6.3366 26.7422C6.45363 22.9738 6.52592 16.7139 6.22989 15.9705C6.03369 15.4847 5.34181 14.4579 4.44341 14.3843C3.72056 14.3255 2.99771 14.9032 2.29895 16.0993C0.274961 19.5807 0.254309 30.8198 1.66215 37.6023C2.60874 42.1546 6.34004 45.4925 8.81151 47.6969C10.0266 48.7825 10.9043 49.5664 11.1246 50.1994C11.6616 51.7119 11.61 55.3331 11.5756 56.5292Z" fill="#093F68"/>
<path d="M13.9966 41.6027C13.9486 41.6025 13.9011 41.5917 13.8572 41.5708C13.8134 41.5498 13.7741 41.5193 13.7419 41.4812C11.236 38.5776 8.65439 35.42 7.06067 31.5449C6.42382 30.0287 6.1858 28.3555 6.37224 26.7055C6.37973 26.6576 6.39603 26.6117 6.4202 26.5705C6.44437 26.5293 6.47593 26.4937 6.51306 26.4656C6.55018 26.4376 6.59214 26.4177 6.6365 26.407C6.68087 26.3964 6.72675 26.3953 6.77153 26.4037C6.81606 26.4122 6.8586 26.4299 6.89672 26.4559C6.93484 26.4819 6.96779 26.5158 6.99368 26.5554C7.01958 26.595 7.03791 26.6398 7.04763 26.687C7.05735 26.7342 7.05828 26.783 7.05035 26.8306C6.90047 28.3389 7.12732 29.8628 7.70779 31.2468C9.25676 35.0152 11.7971 38.1213 14.2479 40.9807C14.312 41.0497 14.348 41.1429 14.348 41.2402C14.348 41.3374 14.312 41.4307 14.2479 41.4996C14.2146 41.534 14.1752 41.5608 14.1321 41.5785C14.0889 41.5962 14.0428 41.6044 13.9966 41.6027Z" fill="#093F68"/>
<path d="M8.19531 48.6211H27.2683V59.632H8.19531V48.6211Z" fill="#68E1FD"/>
<path d="M27.2688 59.9998H8.19578C8.10449 59.9998 8.01693 59.961 7.95238 59.892C7.88783 59.823 7.85156 59.7294 7.85156 59.6318V48.6208C7.85156 48.5232 7.88783 48.4296 7.95238 48.3606C8.01693 48.2916 8.10449 48.2528 8.19578 48.2528H27.2688C27.36 48.2528 27.4476 48.2916 27.5122 48.3606C27.5767 48.4296 27.613 48.5232 27.613 48.6208V59.6318C27.613 59.7294 27.5767 59.823 27.5122 59.892C27.4476 59.961 27.36 59.9998 27.2688 59.9998ZM8.53999 59.2638H26.9245V48.9888H8.53999V59.2638Z" fill="#093F68"/>
<path d="M30.0012 36.314C29.1545 35.4749 28.3352 34.6322 27.4885 33.8299C25.1294 31.5973 22.7647 29.3721 20.3942 27.1542C18.7947 25.7053 17.2688 24.166 15.823 22.543C14.5236 21.1015 13.4746 19.4242 12.7251 17.5895C12.2496 16.3356 11.9302 15.0204 11.775 13.6775C11.6221 12.4754 11.5668 11.2613 11.6098 10.0489C11.775 5.8315 14.2018 2.26178 17.8332 0.981093C21.7573 -0.398955 25.1822 0.557877 28.1459 3.60502C28.8175 4.31035 29.4038 5.10285 29.8911 5.96399L30.0012 6.14431L30.1355 5.91983C31.1959 4.04875 32.7132 2.52199 34.5242 1.50367C36.1126 0.619836 37.9033 0.236943 39.6875 0.399632C41.6799 0.547111 43.5749 1.37686 45.0916 2.76596C46.7788 4.28335 47.8982 6.39986 48.2447 8.72776C48.4092 9.93542 48.4381 11.1598 48.3307 12.3748C48.2618 13.6762 48.0551 14.9652 47.7146 16.2168C47.1669 18.1241 46.2694 19.8955 45.0744 21.4279C43.8363 23.0043 42.479 24.469 41.0161 25.8072C38.851 27.8497 36.6618 29.8554 34.5036 31.9089C33.0269 33.311 31.5846 34.761 30.1286 36.1852L30.0012 36.314Z" fill="#F56132"/>
<path d="M30.0026 36.6823C29.9156 36.682 29.832 36.6465 29.7685 36.583L28.9699 35.7881C28.4123 35.2287 27.834 34.6509 27.2489 34.1063C25.2937 32.2515 23.334 30.4114 21.3697 28.5861L20.1718 27.4231C18.5644 25.9641 17.0294 24.4164 15.5731 22.7862C14.2458 21.3146 13.1777 19.5992 12.4201 17.7223C11.9313 16.4395 11.6037 15.0931 11.4459 13.7183C11.2914 12.499 11.235 11.2678 11.2773 10.0382C11.4494 5.6478 13.9828 1.94191 17.7382 0.635464C21.7001 -0.762985 25.2834 0.149687 28.3882 3.34404C28.9992 3.98342 29.5408 4.69451 30.0026 5.4638C31.0806 3.6507 32.5875 2.17423 34.3707 1.1838C36.0139 0.276596 37.8632 -0.116292 39.706 0.050325C41.7709 0.19266 43.7381 1.04169 45.3167 2.47185C47.0653 4.04701 48.2269 6.24093 48.5902 8.65447C48.7582 9.89017 48.7882 11.1428 48.6797 12.3861C48.6077 13.7149 48.3964 15.0308 48.0498 16.3091C47.4921 18.2651 46.572 20.0811 45.3443 21.649C44.0929 23.2371 42.723 24.714 41.2481 26.0652C40.2636 26.9926 39.2757 27.9175 38.2844 28.84C37.1003 29.944 35.9128 31.0481 34.7355 32.1521C33.7201 33.1163 32.7012 34.121 31.7168 35.0962C31.2659 35.5415 30.8184 35.9868 30.364 36.4284L30.2332 36.5572C30.1745 36.6294 30.0918 36.6743 30.0026 36.6823ZM21.2113 0.738508C20.1033 0.749325 19.004 0.949346 17.955 1.33101C14.475 2.55649 12.124 5.98269 11.9657 10.064C11.9238 11.2554 11.978 12.4485 12.1275 13.63C12.2784 14.9404 12.591 16.2236 13.0569 17.4463C13.783 19.2433 14.8068 20.8853 16.0791 22.293C17.5168 23.9026 19.0323 25.4307 20.6193 26.8711L21.8378 28.012C23.7998 29.8569 25.7607 31.7044 27.7204 33.5542C28.3056 34.1099 28.8839 34.6914 29.4415 35.2508L30.0026 35.8138L31.2452 34.5847C32.2331 33.6131 33.252 32.6048 34.2743 31.6406C35.455 30.5365 36.6425 29.4325 37.83 28.3064C38.8191 27.3863 39.8058 26.4626 40.7903 25.5352C42.2355 24.2058 43.5777 22.7535 44.8039 21.1927C45.9737 19.7022 46.8506 17.975 47.382 16.1141C47.7203 14.8833 47.9259 13.6153 47.9947 12.3346C48.1002 11.1492 48.0736 9.95461 47.9156 8.77591C47.578 6.52888 46.4985 4.48557 44.8727 3.01651C43.3974 1.69207 41.5634 0.909032 39.6406 0.78267C37.925 0.628057 36.2033 0.99415 34.6736 1.83887C32.9144 2.82035 31.4424 4.30124 30.4191 6.11886L30.2814 6.34335C30.2503 6.39517 30.2075 6.43783 30.157 6.4674C30.1065 6.49698 30.0499 6.51253 29.9923 6.51263C29.9355 6.50829 29.8803 6.49091 29.8304 6.4617C29.7805 6.43249 29.7371 6.39212 29.7031 6.34335L29.5895 6.15566C29.1203 5.3224 28.5561 4.55473 27.9098 3.8703C25.872 1.78735 23.6415 0.738508 21.2113 0.738508Z" fill="#093F68"/>
<path d="M34.2079 25.1122H34.1838C34.1115 25.1069 34.0427 25.0774 33.9871 25.0278C33.9315 24.9783 33.8919 24.9112 33.874 24.8362L30.4835 10.1267L25.7711 21.9032C25.746 21.9663 25.7047 22.0206 25.6522 22.06C25.5997 22.0994 25.5378 22.1223 25.4738 22.1261C25.4097 22.13 25.3459 22.1145 25.2895 22.0817C25.2332 22.0488 25.1866 21.9997 25.155 21.94L22.3359 16.6332H13.3071C13.2158 16.6332 13.1283 16.5944 13.0637 16.5254C12.9992 16.4564 12.9629 16.3628 12.9629 16.2652C12.9629 16.1676 12.9992 16.074 13.0637 16.005C13.1283 15.936 13.2158 15.8972 13.3071 15.8972H22.5355C22.5965 15.8973 22.6564 15.9147 22.709 15.9477C22.7616 15.9807 22.8051 16.028 22.835 16.0849L25.4132 20.9316L30.2563 8.81293C30.2848 8.74225 30.3334 8.68294 30.3952 8.64333C30.4569 8.60372 30.5287 8.58581 30.6005 8.59212C30.6721 8.59819 30.7402 8.62807 30.7951 8.67757C30.85 8.72706 30.8891 8.7937 30.9068 8.86813L34.287 23.5224L38.1319 13.1923C38.1574 13.1238 38.2016 13.0651 38.2587 13.0238C38.3157 12.9824 38.3831 12.9604 38.452 12.9604H47.2123C47.3036 12.9604 47.3912 12.9992 47.4557 13.0682C47.5203 13.1372 47.5565 13.2308 47.5565 13.3284C47.5565 13.4261 47.5203 13.5197 47.4557 13.5887C47.3912 13.6577 47.3036 13.6965 47.2123 13.6965H38.6861L34.528 24.862C34.5053 24.9339 34.4623 24.9965 34.405 25.0413C34.3477 25.0861 34.2789 25.1109 34.2079 25.1122Z" fill="white"/>
</svg>
