<svg width="361" height="485" viewBox="0 0 361 485" fill="none" xmlns="http://www.w3.org/2000/svg">
<rect width="360" height="485" transform="matrix(-1 0 0 1 360.571 0)" fill="#63606D" fill-opacity="0.33"/>
<path d="M354.22 166.353L180.597 54.8059L8.61958 166.353M354.22 166.353L354.22 7L7.44369 7L8.61958 166.353M354.22 166.353L353.044 318.786M8.61958 166.353L7.44374 318.786" stroke="#656565" stroke-width="2" stroke-linecap="round" stroke-linejoin="round"/>
<path d="M180.216 430.264L353.369 318.714L353.369 478.071H7.76893L7.76892 318.714L180.216 430.264Z" stroke="#656565" stroke-width="2" stroke-linecap="round" stroke-linejoin="round"/>
<path d="M217.56 296.852C218.48 296.383 219.657 295.742 221.018 294.912C224.361 292.876 228.812 289.702 233.254 285.152C242.144 276.044 250.983 261.427 250.821 239.412C250.658 217.398 241.602 202.781 232.578 193.673C228.069 189.122 223.571 185.949 220.198 183.912C218.825 183.083 217.638 182.442 216.711 181.973C223.757 182.239 230.712 183.704 237.254 186.307C244.519 189.197 251.13 193.433 256.711 198.772C262.293 204.11 266.735 210.447 269.784 217.42C272.834 224.393 274.432 231.866 274.488 239.412C274.543 246.959 273.056 254.431 270.109 261.404C267.162 268.377 262.814 274.714 257.312 280.053C251.809 285.392 245.261 289.628 238.039 292.518C231.535 295.121 224.601 296.586 217.56 296.852Z" stroke="white" stroke-opacity="0.16"/>
<path d="M155.113 239.413C155.347 271.143 182.244 296.897 215.227 296.897C248.211 296.897 274.727 271.143 274.493 239.413C274.258 207.683 247.362 181.929 214.378 181.929C181.394 181.929 154.878 207.683 155.113 239.413Z" stroke="#FFD700" stroke-opacity="0.16"/>
<path d="M150.391 233.72C146.541 232.73 141.072 227.936 137.195 232.152C132.349 237.422 126.203 232.978 122.994 231.726C119.785 230.474 111.73 234.492 106.505 232.965C105.131 233.281 90.0249 236.376 87.9705 235.165C87.494 235.145 103.827 241.229 106.978 240.822C110.916 240.313 117.07 241.376 119.172 246.092C119.724 247.33 121.927 249.724 128.803 252.407C135.68 255.091 146.116 250.467 149.409 247.66" stroke="#FFD700" stroke-opacity="0.16"/>
<path d="M195.532 301.36C194.371 305.018 189.211 310.048 193.451 313.985C198.75 318.906 193.928 324.605 192.519 327.633C191.11 330.661 195.001 338.609 193.237 343.564C193.518 344.901 193.751 354.764 194.165 354.381C196.708 352.023 201.716 346.544 201.402 343.491C201.01 339.676 202.325 333.804 207.288 332.01C208.592 331.539 211.151 329.535 214.171 323.047C217.191 316.56 212.754 306.29 209.956 302.984" stroke="#FFD700" stroke-opacity="0.16"/>
<path d="M170.258 285.484C167.144 287.846 159.91 289.148 161.1 294.691C162.587 301.619 155.24 303.654 152.29 305.365C149.341 307.075 147.878 315.715 143.5 318.811C142.945 320.06 136.923 328.333 137.896 328.182C141.39 327.64 148.761 325.887 150.3 323.214C152.222 319.873 156.769 315.781 161.933 317.024C163.289 317.351 166.587 317.108 172.907 313.442C179.228 309.777 181.606 298.937 181.238 294.698" stroke="#FFD700" stroke-opacity="0.16"/>
<path d="M152.316 263.507C148.395 264.125 141.38 261.908 139.657 267.299C137.503 274.038 130.021 272.408 126.571 272.534C123.12 272.659 117.516 279.524 112.117 280.197C111.004 281.031 104.887 286.075 102.503 285.781C99.1135 285.781 113.21 288.816 115.9 287.195C119.261 285.17 125.307 283.705 129.23 287.185C130.26 288.099 133.283 289.416 140.677 289.146C148.07 288.876 155.579 280.515 157.373 276.643" stroke="#FFD700" stroke-opacity="0.16"/>
<path d="M160.632 202.746C157.233 200.732 153.416 194.635 148.436 197.59C142.211 201.284 137.639 195.333 134.933 193.248C132.227 191.162 123.296 192.77 118.737 189.863C117.324 189.784 109.244 189.702 107.634 187.976C105.879 186.091 113.699 197.018 116.844 197.502C120.777 198.107 126.366 200.829 126.975 205.918C127.135 207.254 128.534 210.153 134.333 214.623C140.131 219.092 151.528 217.565 155.527 215.795" stroke="#FFD700" stroke-opacity="0.16"/>
<path d="M181.413 185.677C179.803 182.162 180.268 175.082 174.407 174.756C167.082 174.349 166.838 166.972 165.843 163.78C164.847 160.588 156.526 156.988 154.488 152.105C153.369 151.264 146.752 146.752 146.447 144.456C146.142 142.16 146.09 155.179 148.398 157.305C151.284 159.962 154.281 165.26 151.766 169.752C151.106 170.932 150.542 174.069 152.676 180.91C154.81 187.751 165.117 192.773 169.465 193.527" stroke="#FFD700" stroke-opacity="0.16"/>
<path d="M205.695 164.795L205.536 165.268L205.695 164.795ZM193.161 137.704L193.561 137.406L193.645 137.518L193.659 137.657L193.161 137.704ZM187.664 128.198L187.201 128.007L187.201 128.007L187.664 128.198ZM185.786 141.031L185.358 141.286L185.786 141.031ZM185.387 153.863L185.737 154.223L185.387 153.863ZM208.745 177.216C208.607 176.207 208.671 175.028 208.747 173.849C208.823 172.65 208.913 171.436 208.85 170.284C208.788 169.133 208.576 168.094 208.081 167.241C207.595 166.403 206.814 165.706 205.536 165.268L205.855 164.322C207.347 164.834 208.329 165.682 208.945 166.744C209.553 167.792 209.783 169.011 209.849 170.237C209.915 171.461 209.82 172.743 209.745 173.92C209.668 175.118 209.613 176.195 209.736 177.088L208.745 177.216ZM205.536 165.268C203.72 164.644 202.455 163.697 201.593 162.554C200.736 161.415 200.303 160.112 200.1 158.808C199.897 157.508 199.921 156.189 199.99 155.004C200.061 153.791 200.173 152.774 200.167 151.962L201.167 151.962C201.174 152.814 201.055 153.936 200.989 155.069C200.921 156.232 200.902 157.467 201.088 158.662C201.273 159.854 201.66 160.986 202.391 161.956C203.118 162.921 204.208 163.757 205.855 164.322L205.536 165.268ZM200.167 151.962C200.162 151.279 199.792 150.402 199.133 149.325C198.483 148.262 197.612 147.096 196.7 145.837C195.796 144.589 194.861 143.26 194.117 141.908C193.375 140.558 192.807 139.153 192.664 137.751L193.659 137.657C193.782 138.869 194.282 140.137 194.993 141.431C195.703 142.723 196.606 144.008 197.509 145.255C198.404 146.491 199.308 147.702 199.985 148.807C200.652 149.899 201.16 150.982 201.167 151.962L200.167 151.962ZM192.762 138.002C192.527 137.689 192.072 136.886 191.542 135.92C191.003 134.937 190.358 133.734 189.737 132.588C189.114 131.437 188.515 130.345 188.06 129.573C187.831 129.183 187.647 128.889 187.519 128.711C187.449 128.615 187.419 128.585 187.422 128.587C187.425 128.59 187.439 128.602 187.463 128.617C187.484 128.63 187.536 128.659 187.613 128.672C187.698 128.687 187.819 128.682 187.938 128.611C188.051 128.542 188.104 128.448 188.128 128.39L187.201 128.007C187.231 127.934 187.293 127.828 187.416 127.754C187.545 127.676 187.679 127.67 187.778 127.687C187.938 127.715 188.046 127.81 188.078 127.838C188.169 127.917 188.256 128.029 188.329 128.131C188.486 128.349 188.69 128.678 188.921 129.07C189.386 129.861 189.993 130.968 190.615 132.116C191.24 133.269 191.88 134.464 192.418 135.444C192.965 136.441 193.38 137.165 193.561 137.406L192.762 138.002ZM188.128 128.39C187.49 129.954 186.631 132.466 186.131 134.909C185.881 136.13 185.724 137.318 185.723 138.352C185.723 139.399 185.884 140.227 186.214 140.776L185.358 141.286C184.888 140.505 184.723 139.459 184.723 138.345C184.724 137.219 184.894 135.959 185.151 134.701C185.667 132.184 186.547 129.612 187.201 128.007L188.128 128.39ZM186.214 140.776C187.249 142.5 188.112 144.883 188.234 147.316C188.356 149.757 187.731 152.288 185.737 154.223L185.037 153.503C186.774 151.819 187.347 149.598 187.235 147.359C187.123 145.113 186.32 142.889 185.358 141.286L186.214 140.776ZM185.737 154.223C184.908 155.027 183.449 157.7 183.501 164.795L182.501 164.795C182.448 157.632 183.906 154.601 185.037 153.503L185.737 154.223ZM183.501 164.795C183.526 168.18 185.555 171.748 188.141 174.748C190.721 177.74 193.769 180.066 195.671 180.979L195.244 181.88C193.186 180.892 190.031 178.465 187.386 175.397C184.748 172.337 182.529 168.539 182.501 164.795L183.501 164.795Z" fill="#FFD700" fill-opacity="0.16"/>
</svg>
