<svg width="60" height="61" viewBox="0 0 60 61" fill="none" xmlns="http://www.w3.org/2000/svg">
<path d="M23.1255 34.3924C23.912 32.4259 23.8919 30.9144 23.6856 29.9069C23.2225 30.2512 22.6508 30.4574 22.0293 30.4574C21.8776 30.4574 21.73 30.4419 21.5849 30.4185C21.4286 32.7496 20.0608 34.7627 18.1084 35.8267V37.8471C18.1084 38.5523 18.5089 39.1964 19.1415 39.5083L20.7887 40.3204C21.1569 40.5018 21.5432 40.6439 21.9414 40.7442L25.3002 41.5922C25.5974 38.4799 22.2327 36.6246 23.1255 34.3924Z" fill="#FCDD86"/>
<path d="M8.29454 30.4185C8.14946 30.4419 8.0018 30.4574 7.85016 30.4574C7.22883 30.4574 6.65695 30.2512 6.19382 29.9069C5.98757 30.9144 5.96741 32.4259 6.75398 34.3923C7.64672 36.6245 4.28201 38.4799 4.5792 41.5924L7.93805 40.7444C8.33602 40.6441 8.72251 40.5021 9.09071 40.3207L10.7379 39.5085C11.3705 39.1966 11.771 38.5525 11.771 37.8473V35.827C9.81868 34.7627 8.45086 32.7496 8.29454 30.4185Z" fill="#FCDD86"/>
<path d="M28.7645 44.4437C28.698 43.2501 27.8631 42.2382 26.7039 41.9465L22.1694 40.8018C19.5001 47.0041 16.6086 44.706 15.4437 43.3597C15.3568 43.2592 15.3188 43.1408 15.3162 43.0236H14.5611C14.5585 43.1408 14.5205 43.2592 14.4336 43.3597C13.2687 44.706 10.3772 47.0041 7.70793 40.8018L3.17345 41.9465C2.01423 42.2382 1.17914 43.2501 1.11282 44.4437L0.586172 58.9106C0.561797 59.3458 0.908439 59.7122 1.34438 59.7122H5.56245C5.84604 59.7122 6.07597 59.4822 6.07597 59.1986V50.1557L6.82081 52.5417C7.30785 54.1017 7.55558 55.7266 7.55558 57.3609V59.1984C7.55558 59.482 7.7855 59.7119 8.0691 59.7119H21.8085C22.0921 59.7119 22.322 59.482 22.322 59.1984V57.3609C22.322 55.7266 22.5697 54.1017 23.0568 52.5417L23.8016 50.1557V59.1986C23.8016 59.4822 24.0315 59.7122 24.3151 59.7122H28.5332C28.9691 59.7122 29.3158 59.3458 29.2914 58.9106L28.7645 44.4437Z" fill="#FC657E"/>
<path d="M21.9414 40.7443C21.5434 40.644 21.1569 40.502 20.7887 40.3206L19.5299 39.7C18.6683 40.7089 17.3242 41.9823 15.7105 42.4829C15.3308 42.6008 15.1846 43.0595 15.4447 43.3602C16.6096 44.7065 19.5011 47.0045 22.1704 40.8022L21.9414 40.7443Z" fill="#EDF4FC"/>
<path d="M14.1679 42.4829C12.5542 41.9825 11.2101 40.7089 10.3485 39.7L9.08966 40.3206C8.72145 40.502 8.3352 40.644 7.93699 40.7443L7.70801 40.8022C10.3773 47.0045 13.2688 44.7065 14.4337 43.3602C14.6936 43.0595 14.5476 42.6006 14.1679 42.4829Z" fill="#EDF4FC"/>
<path d="M19.142 39.5086C18.5094 39.1967 18.1089 38.5526 18.1089 37.8473V35.827C17.165 36.3415 16.085 36.6342 14.9399 36.6342C13.7947 36.6342 12.7147 36.3415 11.7711 35.827V37.8473C11.7711 38.5526 11.3706 39.1967 10.738 39.5086L10.3496 39.7001C11.2114 40.7091 12.5553 41.9824 14.169 42.4831C14.4217 42.5616 14.5674 42.791 14.5623 43.0242H15.3174C15.3123 42.7908 15.4581 42.5614 15.7107 42.4831C17.3244 41.9827 18.6686 40.7091 19.5301 39.7001L19.142 39.5086Z" fill="#F9D0B4"/>
<path d="M15.264 42.4383H14.6025C14.2789 42.4383 14.0166 42.7006 14.0166 43.0242C14.0166 43.3479 14.2789 43.6102 14.6025 43.6102H15.264C15.5876 43.6102 15.8499 43.3479 15.8499 43.0242C15.8499 42.7006 15.5876 42.4383 15.264 42.4383Z" fill="black"/>
<path d="M29.8775 58.8893L29.3504 44.4114C29.2691 42.9538 28.2634 41.735 26.848 41.3788L22.3135 40.2341C21.9997 40.1558 21.6811 40.3449 21.6019 40.6588C21.5227 40.9726 21.7128 41.2911 22.0266 41.3703L26.5616 42.515C27.4773 42.7454 28.1277 43.5339 28.1797 44.4653L28.7068 58.9432C28.7105 59.0081 28.6787 59.0517 28.6597 59.0721C28.6405 59.0922 28.5985 59.1262 28.5336 59.1262H24.3879V50.1559C24.3879 49.8665 24.1765 49.6204 23.8904 49.5766C23.6049 49.5332 23.3288 49.7048 23.2428 49.9813L22.4979 52.3673C21.9926 53.9854 21.7365 55.6656 21.7365 57.3611V59.1262H8.1424V57.3611C8.1424 55.6659 7.88622 53.9859 7.38091 52.3673L6.63606 49.9813C6.54981 49.705 6.27418 49.5337 5.98848 49.5766C5.70231 49.6204 5.4909 49.8662 5.4909 50.1559V59.1262H1.34549C1.28056 59.1262 1.23861 59.0922 1.21939 59.0721C1.20017 59.0517 1.16853 59.0081 1.17275 58.9319L1.69869 44.4765C1.75119 43.5339 2.40182 42.7454 3.31776 42.5148L7.85224 41.3701C8.16607 41.2909 8.35615 40.9724 8.27693 40.6585C8.19771 40.3447 7.87919 40.1556 7.56536 40.2338L3.03112 41.3783C1.61525 41.7348 0.609544 42.9536 0.527747 44.4224L0.00204122 58.8778C-0.0183495 59.2453 0.114776 59.6097 0.367902 59.8771C0.621029 60.1446 0.977281 60.2981 1.34549 60.2981H5.56355C6.16965 60.2981 6.66301 59.805 6.66301 59.1986V54.2788C6.86762 55.292 6.97075 56.3235 6.97075 57.3609V59.1984C6.97075 59.8045 7.46388 60.2979 8.06997 60.2979H21.8093C22.4154 60.2979 22.9088 59.8047 22.9088 59.1984V57.3609C22.9088 56.3231 23.0119 55.2916 23.2165 54.2786V59.1986C23.2165 59.8047 23.7097 60.2981 24.3158 60.2981H28.5338C28.902 60.2981 29.2583 60.1446 29.5112 59.8771C29.7641 59.6097 29.8974 59.2455 29.8775 58.8893Z" fill="black"/>
<path d="M22.0303 24.8942C21.8848 24.8942 21.7423 24.9064 21.6028 24.9282V29.9718C21.6028 30.122 21.596 30.2706 21.5859 30.4185C21.731 30.4419 21.8787 30.4574 22.0303 30.4574C23.5664 30.4574 24.8119 29.2121 24.8119 27.6758C24.8119 26.1397 23.5664 24.8942 22.0303 24.8942Z" fill="#F9D0B4"/>
<path d="M21.1919 24.0819C20.5179 23.9256 19.6992 23.5351 18.761 22.6827C18.5754 22.5142 18.2892 22.528 18.1261 22.7183C17.1114 23.9026 13.5135 27.4956 8.27734 26.0043V29.9718C8.27734 33.636 11.2752 36.6339 14.9395 36.6339C18.6037 36.6339 21.6016 33.636 21.6016 29.9718V24.5893C21.6019 24.3447 21.4305 24.1372 21.1919 24.0819Z" fill="#F9D0B4"/>
<path d="M8.27744 29.9719V26.0043C7.81994 25.874 7.35025 25.7055 6.86837 25.4927C6.55782 25.3556 6.19477 25.4186 5.94704 25.6509C5.40656 26.1576 5.06836 26.8765 5.06836 27.6759C5.06836 29.212 6.3136 30.4575 7.84994 30.4575C8.00158 30.4575 8.14923 30.442 8.29431 30.4186C8.28447 30.2707 8.27744 30.1221 8.27744 29.9719Z" fill="#F9D0B4"/>
<path d="M14.9392 15.0238C9.95662 15.0238 5.87988 19.1005 5.87988 24.0831V25.7203C5.90262 25.6975 5.92324 25.6732 5.94668 25.6511C6.19442 25.4189 6.55723 25.3556 6.86801 25.4929C7.34989 25.7057 7.81958 25.8742 8.27708 26.0046C13.5133 27.4961 17.1112 23.9029 18.1258 22.7186C18.2889 22.5283 18.5751 22.5142 18.7605 22.683C19.6987 23.5354 20.5174 23.9259 21.1914 24.0822C21.4298 24.1375 21.6011 24.3449 21.6011 24.5896V24.9285C21.7406 24.907 21.8831 24.8946 22.0286 24.8946C22.7983 24.8946 23.4947 25.2072 23.9983 25.7123V24.0829C23.9986 19.1005 19.9218 15.0238 14.9392 15.0238Z" fill="#FCDD86"/>
<path d="M22.0296 24.3082C21.9232 24.3082 21.8179 24.3134 21.7141 24.3232C21.3918 24.3537 21.1556 24.6396 21.1861 24.9619C21.2165 25.2842 21.5039 25.5218 21.8247 25.49C21.8922 25.4836 21.9607 25.4801 22.0298 25.4801C23.2406 25.4801 24.2254 26.465 24.2254 27.6757C24.2254 28.8865 23.2406 29.8714 22.0298 29.8714C21.9618 29.8714 21.8948 29.8672 21.8287 29.8604C21.5076 29.828 21.2186 30.0603 21.1849 30.3821C21.1511 30.7039 21.3848 30.9922 21.7066 31.0259C21.8189 31.0376 21.9246 31.0435 22.0298 31.0435C23.8865 31.0435 25.3973 29.5329 25.3973 27.676C25.3973 25.819 23.8863 24.3082 22.0296 24.3082Z" fill="black"/>
<path d="M17.3479 31.7251C17.0999 31.5168 16.7303 31.5496 16.5226 31.7978C16.1975 32.1854 15.6423 32.417 15.0374 32.417C14.4324 32.417 13.8774 32.1854 13.5524 31.7978C13.3447 31.5498 12.9753 31.517 12.7271 31.7251C12.4792 31.933 12.4466 32.3026 12.6545 32.5504C13.1994 33.2005 14.0903 33.5886 15.0374 33.5886C15.9847 33.5886 16.8756 33.2005 17.4205 32.5504C17.6284 32.3026 17.5958 31.933 17.3479 31.7251Z" fill="black"/>
<path d="M21.3244 23.5112C20.6294 23.3501 19.8996 22.9255 19.155 22.249C18.9485 22.0615 18.6715 21.9638 18.3947 21.9814C18.1162 21.9987 17.8629 22.1253 17.6812 22.3372C16.7543 23.4191 13.3488 26.8395 8.43789 25.4408C8.26094 25.3904 8.0711 25.426 7.92438 25.5366C7.77766 25.6473 7.69141 25.8205 7.69141 26.0042V29.9717C7.69141 33.9683 10.9429 37.2198 14.9395 37.2198C18.9361 37.2198 22.1876 33.9683 22.1876 29.9717V24.5893C22.1878 24.0727 21.8327 23.6291 21.3244 23.5112ZM21.0159 29.972C21.0159 33.3224 18.2901 36.0482 14.9397 36.0482C11.5893 36.0482 8.86352 33.3224 8.86352 29.972V26.7509C13.8825 27.7831 17.3606 24.4719 18.4736 23.2119C19.3188 23.9569 20.1733 24.4377 21.0159 24.6425V29.972Z" fill="black"/>
<path d="M6.63165 26.0288C7.11728 26.2432 7.61041 26.4227 8.09744 26.5624C8.40916 26.652 8.73307 26.4717 8.82237 26.1607C8.91143 25.8495 8.73166 25.5251 8.42064 25.4358C7.9847 25.3109 7.54197 25.1496 7.10509 24.9567C6.57915 24.7245 5.96719 24.829 5.54626 25.2234C4.87008 25.8574 4.48242 26.7513 4.48242 27.676C4.48242 29.5327 5.99298 31.0435 7.84994 31.0435C7.94369 31.0435 8.03627 31.0388 8.12791 31.0303C8.45018 31.001 8.6876 30.7158 8.6583 30.3935C8.62901 30.0713 8.34307 29.835 8.0215 29.8632C7.96502 29.8683 7.90806 29.8714 7.85017 29.8714C6.63939 29.8714 5.65454 28.8865 5.65454 27.6757C5.65454 27.0647 5.90087 26.4975 6.34806 26.0782C6.42517 26.006 6.53649 25.9863 6.63165 26.0288Z" fill="black"/>
<path d="M14.9402 14.4378C9.62174 14.4378 5.29492 18.7646 5.29492 24.0831V25.6839C5.29492 26.0076 5.55719 26.2698 5.88086 26.2698C6.20454 26.2698 6.4668 26.0076 6.4668 25.6839V24.0831C6.4668 19.4108 10.2679 15.6097 14.9402 15.6097C19.6125 15.6097 23.4136 19.4108 23.4136 24.0831V25.5423C23.4136 25.866 23.6759 26.1283 23.9995 26.1283C24.3232 26.1283 24.5855 25.866 24.5855 25.5423V24.0831C24.5855 18.7646 20.2587 14.4378 14.9402 14.4378Z" fill="black"/>
<path d="M24.5029 37.3782C23.7754 36.1892 23.346 35.4193 23.6699 34.6097C24.3289 32.9623 24.5401 31.4077 24.2978 29.9897C24.2432 29.6709 23.9413 29.4565 23.6214 29.5109C23.3024 29.5655 23.0882 29.8683 23.1425 30.1873C23.3481 31.3892 23.1594 32.7307 22.5817 34.1745C22.0234 35.5707 22.7757 36.8004 23.5032 37.9897C24.1511 39.0486 24.8209 40.1433 24.7236 41.4605C24.6997 41.7833 24.9421 42.0643 25.2648 42.088C25.2796 42.0891 25.2941 42.0896 25.3086 42.0896C25.6126 42.0896 25.8697 41.855 25.8925 41.5468C26.0174 39.8539 25.2128 38.5386 24.5029 37.3782Z" fill="black"/>
<path d="M7.29803 34.1748C6.72123 32.7327 6.53209 31.3925 6.73646 30.1916C6.79084 29.8726 6.57615 29.57 6.25717 29.5156C5.93748 29.4608 5.63537 29.6759 5.58123 29.9949C5.34029 31.4117 5.55193 32.9645 6.21006 34.61C6.53373 35.4196 6.10435 36.1892 5.37685 37.3785C4.68638 38.507 3.90379 39.7862 3.97973 41.4193C3.99426 41.7332 4.25325 41.9781 4.5645 41.9781C4.57364 41.9781 4.58302 41.9779 4.59216 41.9774C4.91536 41.9624 5.16521 41.6882 5.15021 41.365C5.09114 40.0911 5.74459 39.0231 6.37646 37.9902C7.1042 36.8005 7.85655 35.5707 7.29803 34.1748Z" fill="black"/>
<path d="M22.6946 40.5429C22.6187 40.3891 22.479 40.2761 22.3126 40.2342L22.0833 40.1763C21.7262 40.0863 21.3772 39.9581 21.0467 39.7952L19.7879 39.1746C19.5474 39.0557 19.2572 39.1155 19.0833 39.3197C18.2865 40.2527 17.0239 41.4619 15.5358 41.9233C15.1627 42.0391 14.8765 42.3304 14.7699 42.7029C14.6658 43.0673 14.7518 43.4564 15.0005 43.7435C15.9903 44.8873 17.1071 45.4978 18.189 45.4978C18.3343 45.4978 18.4791 45.4868 18.6228 45.4645C20.1708 45.2252 21.5452 43.7344 22.7075 41.0339C22.7752 40.8761 22.7705 40.6969 22.6946 40.5429ZM18.4435 44.3067C17.3965 44.4684 16.4361 43.5984 15.931 43.0275C17.4795 42.5325 18.7779 41.4014 19.6714 40.4238L20.5283 40.8464C20.7945 40.9776 21.0704 41.0906 21.3528 41.1836C20.4462 43.0758 19.4468 44.1513 18.4435 44.3067Z" fill="black"/>
<path d="M15.1083 42.7027C15.0019 42.3303 14.7155 42.0387 14.3424 41.9232C12.8541 41.4617 11.5917 40.2525 10.7948 39.3195C10.6207 39.1156 10.3305 39.0558 10.0903 39.1744L8.83124 39.795C8.501 39.9579 8.15225 40.0861 7.79459 40.1761L7.5656 40.234C7.3992 40.276 7.25951 40.389 7.18357 40.5427C7.10763 40.6967 7.10295 40.876 7.17068 41.0337C8.33295 43.7342 9.70733 45.2251 11.2556 45.4644C11.3993 45.4866 11.5439 45.4977 11.6892 45.4977C12.7709 45.4977 13.8879 44.8871 14.8777 43.7433C15.1263 43.4562 15.2124 43.0672 15.1083 42.7027ZM11.4349 44.3066C10.4316 44.1514 9.43218 43.0758 8.52537 41.1835C8.8078 41.0904 9.08366 40.9775 9.34968 40.8462L10.2068 40.4236C11.1 41.4012 12.3982 42.5321 13.947 43.0273C13.4424 43.5983 12.4826 44.4685 11.4349 44.3066Z" fill="black"/>
<path d="M11.7702 35.4642C11.4465 35.4642 11.1843 35.7265 11.1843 36.0502V37.8471C11.1843 38.3328 10.9136 38.768 10.4781 38.9829L10.0897 39.1744C9.79957 39.3174 9.68004 39.6687 9.82325 39.9591C9.9252 40.1661 10.1331 40.2861 10.3492 40.2861C10.4361 40.2861 10.5245 40.2666 10.6079 40.2256L10.9963 40.0341C11.8351 39.6204 12.3562 38.7825 12.3562 37.8474V36.0504C12.3562 35.7267 12.0939 35.4642 11.7702 35.4642Z" fill="black"/>
<path d="M19.7899 39.1744L19.4017 38.9829C18.966 38.768 18.6953 38.333 18.6953 37.8472V36.0111C18.6953 35.6874 18.4331 35.4251 18.1094 35.4251C17.7857 35.4251 17.5234 35.6874 17.5234 36.0111V37.8472C17.5234 38.7823 18.0445 39.6202 18.8833 40.0339L19.2716 40.2254C19.3549 40.2664 19.4432 40.2858 19.5304 40.2858C19.7465 40.2858 19.9544 40.1658 20.0563 39.9589C20.1995 39.6687 20.08 39.3174 19.7899 39.1744Z" fill="black"/>
<path d="M51.4399 23.7205C51.4359 23.5199 51.2753 23.3547 51.0747 23.3488C48.137 23.2628 46.589 22.0984 45.9944 21.5153C45.832 21.3561 45.5699 21.373 45.4284 21.5509C42.8455 24.7991 39.0353 24.3407 37.7542 24.0726C37.5214 24.0238 37.2981 24.1994 37.2979 24.4373V30.1305C37.2979 34.02 40.48 37.2021 44.3694 37.2021C48.2589 37.2021 51.441 34.02 51.441 30.1305V23.8312C51.4408 23.7941 51.4406 23.7573 51.4399 23.7205Z" fill="#F9C1A8"/>
<path d="M49.9031 16.2198C49.1496 16.2198 48.4451 16.4326 47.8397 16.7959C47.1326 15.6155 45.8442 14.8187 44.3756 14.8187H42.3014C38.2867 14.8187 35.002 18.1034 35.002 22.1181V25.3888C35.507 24.9845 36.1469 24.7414 36.8442 24.7414C36.9986 24.7414 37.15 24.7546 37.2979 24.7775V24.4377C37.2981 24.1998 37.5215 24.0245 37.7542 24.073C39.0353 24.3411 42.8456 24.7996 45.4284 21.5514C45.57 21.3735 45.832 21.3566 45.9944 21.5157C46.5893 22.0989 48.1371 23.263 51.0748 23.3493C51.2752 23.3551 51.4359 23.5203 51.4399 23.721C51.4406 23.7578 51.4411 23.7946 51.4411 23.8316V24.7775C51.5892 24.7546 51.7404 24.7414 51.8949 24.7414C52.6908 24.7414 53.4117 25.0579 53.9426 25.57V20.2592C53.9426 18.0376 52.1248 16.2198 49.9031 16.2198Z" fill="#414344"/>
<path d="M51.8954 24.7413C51.7409 24.7413 51.5895 24.7542 51.4416 24.7774V30.131C51.4416 30.2904 51.4344 30.4483 51.4238 30.6051C51.5778 30.63 51.7346 30.6464 51.8954 30.6464C53.526 30.6464 54.8478 29.3245 54.8478 27.6939C54.8478 26.0632 53.526 24.7413 51.8954 24.7413Z" fill="#F9C1A8"/>
<path d="M37.2988 30.1306V24.7769C37.1506 24.754 36.9995 24.7408 36.845 24.7408C35.2145 24.7408 33.8926 26.0627 33.8926 27.6933C33.8926 29.3238 35.2145 30.6457 36.845 30.6457C37.006 30.6457 37.1626 30.6293 37.3166 30.6045C37.306 30.4479 37.2988 30.2902 37.2988 30.1306Z" fill="#F9C1A8"/>
<path d="M58.6307 44.6322C58.5627 43.4128 57.7099 42.3794 56.5255 42.0813L51.0336 40.6989L49.0925 39.742C48.2582 39.3307 47.7299 38.481 47.7299 37.5508V36.347C46.7289 36.8922 45.5835 37.2023 44.3692 37.2023C43.2369 37.2023 42.1656 36.9311 41.2142 36.4528V37.5508C41.2142 38.481 40.6859 39.3304 39.8516 39.742L37.9105 40.6989L32.4186 42.0813C31.2342 42.3794 30.3814 43.413 30.3134 44.6322L29.5315 58.8936C29.5067 59.3382 29.8606 59.7125 30.3061 59.7125H58.638C59.0833 59.7125 59.4374 59.3382 59.4126 58.8936L58.6307 44.6322Z" fill="#70D6F9"/>
<path d="M49.0938 39.742C48.2594 39.3307 47.7311 38.481 47.7311 37.5508V36.347C46.7301 36.8922 45.5847 37.2023 44.3704 37.2023C43.2381 37.2023 42.1668 36.9311 41.2154 36.4528V37.5508C41.2154 38.481 40.6872 39.3304 39.8528 39.742L39.5479 39.8922C40.469 41.6796 42.3339 42.9098 44.4733 42.9098C46.6127 42.9098 48.4774 41.6793 49.3987 39.8922L49.0938 39.742Z" fill="#F9C1A8"/>
<path d="M52.0266 23.7091C52.0165 23.1938 51.6063 22.7782 51.0928 22.763C48.3133 22.6816 46.8886 21.5707 46.4055 21.097C46.21 20.9053 45.9398 20.8045 45.6689 20.8219C45.3958 20.8387 45.1413 20.9716 44.9707 21.1863C42.6339 24.1252 39.2301 23.7827 37.8752 23.4994C37.5883 23.4391 37.2941 23.5109 37.0675 23.6951C36.8425 23.8777 36.7131 24.1481 36.7129 24.4423V30.1308C36.7129 34.3533 40.1479 37.7884 44.3704 37.7884C48.5929 37.7884 52.028 34.3531 52.028 30.1308V23.8315L52.0266 23.7091ZM50.8556 30.1304C50.8556 33.7067 47.9463 36.616 44.37 36.616C40.7936 36.616 37.8843 33.7065 37.8843 30.1304V24.694C39.329 24.9497 43.1013 25.2394 45.7479 22.0866C46.5255 22.7855 48.1141 23.8006 50.8556 23.9266V30.1304Z" fill="black"/>
<path d="M49.9024 15.6338C49.2579 15.6338 48.6192 15.772 48.0285 16.0369C47.1564 14.9124 45.801 14.2327 44.3746 14.2327H42.3004C37.9525 14.2327 34.415 17.7699 34.415 22.118V25.2739C34.415 25.5976 34.6773 25.8598 35.001 25.8598C35.3247 25.8598 35.5869 25.5976 35.5869 25.2739V22.118C35.5869 18.4163 38.5987 15.4045 42.3004 15.4045H44.3746C45.5758 15.4045 46.7106 16.0531 47.3362 17.097C47.4161 17.2303 47.5457 17.3264 47.6964 17.3642C47.8469 17.4017 48.0067 17.3782 48.1401 17.2983C48.6778 16.976 49.2871 16.8056 49.9026 16.8056C51.8069 16.8056 53.3559 18.3549 53.3559 20.2592V25.3911C53.3559 25.7148 53.6182 25.977 53.9419 25.977C54.2655 25.977 54.5278 25.7148 54.5278 25.3911V20.2592C54.5276 17.7087 52.4529 15.6338 49.9024 15.6338Z" fill="black"/>
<path d="M54.2666 47.4012C53.9429 47.4012 53.6807 47.6635 53.6807 47.9872V59.5297C53.6807 59.8534 53.9429 60.1157 54.2666 60.1157C54.5903 60.1157 54.8525 59.8534 54.8525 59.5297V47.9872C54.8525 47.6635 54.5903 47.4012 54.2666 47.4012Z" fill="black"/>
<path d="M34.6787 47.4012C34.355 47.4012 34.0928 47.6635 34.0928 47.9872V59.5297C34.0928 59.8534 34.355 60.1157 34.6787 60.1157C35.0024 60.1157 35.2647 59.8534 35.2647 59.5297V47.9872C35.2647 47.6635 35.0024 47.4012 34.6787 47.4012Z" fill="black"/>
<path d="M51.8958 24.1552C51.8039 24.1552 51.7135 24.159 51.6237 24.166C51.3012 24.192 51.0607 24.4744 51.0865 24.7969C51.1125 25.1194 51.3945 25.3601 51.7174 25.3341C51.776 25.3292 51.8356 25.3269 51.8958 25.3269C53.2006 25.3269 54.2623 26.3883 54.2623 27.6934C54.2623 28.9984 53.2008 30.0599 51.8958 30.0599C51.825 30.0599 51.7556 30.0556 51.687 30.0488C51.3635 30.0153 51.0776 30.2509 51.045 30.5727C51.0124 30.8947 51.2468 31.182 51.5688 31.2146C51.6821 31.2261 51.7889 31.2317 51.8958 31.2317C53.8468 31.2317 55.4342 29.6445 55.4342 27.6934C55.4342 25.7424 53.8468 24.1552 51.8958 24.1552Z" fill="black"/>
<path d="M37.0292 30.0513C36.968 30.0569 36.9064 30.0602 36.844 30.0602C35.5393 30.0602 34.4775 28.9984 34.4775 27.6937C34.4775 26.3889 35.539 25.3272 36.844 25.3272C36.9216 25.3272 36.9983 25.3314 37.0737 25.3389C37.3941 25.3708 37.6829 25.1364 37.715 24.8144C37.7473 24.4923 37.5125 24.2052 37.1904 24.1729C35.0811 23.9617 33.3057 25.6288 33.3057 27.6934C33.3057 29.6446 34.8929 31.2318 36.844 31.2318C36.9425 31.2318 37.0395 31.2269 37.1358 31.218C37.4581 31.1884 37.6955 30.9032 37.666 30.5809C37.6367 30.2591 37.3512 30.0243 37.0292 30.0513Z" fill="black"/>
<path d="M59.998 58.8611L59.2161 44.5993C59.1336 43.1157 58.1101 41.8754 56.6692 41.5126L51.2375 40.1455L49.3522 39.216C48.7132 38.901 48.3165 38.2628 48.3165 37.5505V36.5382C48.3165 36.2145 48.0542 35.9523 47.7305 35.9523C47.4068 35.9523 47.1446 36.2145 47.1446 36.5382V37.5505C47.1446 38.7125 47.7919 39.7534 48.834 40.2671L50.7751 41.2241C50.8121 41.2424 50.851 41.2567 50.8911 41.2668L56.383 42.6491C57.324 42.8861 57.9922 43.6958 58.0461 44.664L58.828 58.9261C58.832 58.9968 58.7973 59.0447 58.7764 59.0669C58.7553 59.0892 58.7096 59.1262 58.6384 59.1262H30.307C30.2357 59.1262 30.19 59.0889 30.1692 59.0669C30.1481 59.0447 30.1136 58.9968 30.1174 58.9254L30.8993 44.6645C30.9529 43.6961 31.6214 42.8861 32.5624 42.6491L38.0543 41.2668C38.0944 41.2567 38.1333 41.2424 38.1703 41.2241L40.1114 40.2671C41.1534 39.7534 41.8008 38.7125 41.8008 37.5505V36.6188C41.8008 36.2952 41.5385 36.0329 41.2149 36.0329C40.8912 36.0329 40.6289 36.2952 40.6289 36.6188V37.5505C40.6289 38.263 40.2321 38.9012 39.5932 39.216L37.7079 40.1455L32.2762 41.5126C30.8353 41.8754 29.8115 43.1157 29.7293 44.5998L28.9474 58.8607C28.9267 59.2326 29.0617 59.6013 29.3179 59.872C29.5739 60.1427 29.9346 60.2979 30.3072 60.2979H58.6388C59.0117 60.2979 59.3722 60.1425 59.6284 59.8718C59.8841 59.6011 60.0189 59.2324 59.998 58.8611Z" fill="black"/>
<path d="M49.6015 39.5319C49.3188 39.3751 48.9619 39.4766 48.8048 39.7598C47.9264 41.3416 46.2668 42.3238 44.4733 42.3238C42.6869 42.3238 41.0303 41.347 40.15 39.7743C39.9918 39.4916 39.6339 39.3913 39.3527 39.5493C39.0702 39.7073 38.9695 40.0644 39.1274 40.3469C40.2147 42.2891 42.2631 43.4959 44.4735 43.4959C46.6924 43.4959 48.7448 42.2823 49.8297 40.3288C49.9861 40.0459 49.8844 39.6892 49.6015 39.5319Z" fill="black"/>
<path d="M46.8495 31.7477C46.6015 31.5398 46.2319 31.5724 46.0242 31.8206C45.6956 32.213 45.1338 32.4471 44.5219 32.4471C43.9099 32.4471 43.3481 32.2127 43.0193 31.8204C42.8107 31.5722 42.4418 31.5396 42.1938 31.7477C41.9459 31.9556 41.9135 32.3252 42.1212 32.5732C42.6701 33.228 43.5675 33.619 44.5219 33.619C45.4763 33.619 46.3737 33.228 46.9224 32.5732C47.13 32.325 47.0974 31.9554 46.8495 31.7477Z" fill="black"/>
<path d="M38.4541 7.89366C37.9213 7.39748 37.0823 7.43545 36.5676 7.95038C36.5179 8.00006 36.437 8.00006 36.3873 7.95038C35.8724 7.43545 35.0336 7.39725 34.5008 7.89366C33.9414 8.41467 33.9297 9.29077 34.4657 9.82679L36.2003 11.5614C36.3536 11.7147 36.602 11.7147 36.7553 11.5614L38.4899 9.82679C39.0252 9.29077 39.0135 8.41467 38.4541 7.89366Z" fill="#FC657E"/>
<path d="M38.8531 7.46452C38.1924 6.84929 37.2151 6.78976 36.4765 7.2721C35.739 6.79046 34.7616 6.84905 34.1004 7.46452C33.7135 7.82499 33.495 8.31414 33.4857 8.84219C33.4763 9.37047 33.6767 9.86711 34.0503 10.2407L35.7847 11.9749C35.9694 12.1598 36.2152 12.2615 36.4765 12.2615C36.7379 12.2615 36.9837 12.1598 37.1682 11.9751L38.9028 10.2405C39.2764 9.86688 39.4768 9.37024 39.4674 8.84195C39.4585 8.31437 39.2403 7.82499 38.8531 7.46452ZM38.0748 9.41219L36.477 11.0097L34.8793 9.41219C34.7328 9.26571 34.654 9.07047 34.6578 8.86328C34.6615 8.65609 34.7475 8.4639 34.8997 8.32211C35.0389 8.1925 35.2198 8.12828 35.4033 8.12828C35.6082 8.12828 35.8161 8.20773 35.9731 8.36476C36.2513 8.64226 36.7034 8.64203 36.9816 8.36429C37.2795 8.06664 37.7607 8.04789 38.0546 8.32211C38.2067 8.46367 38.293 8.65609 38.2965 8.86328C38.3 9.0707 38.2212 9.26571 38.0748 9.41219Z" fill="black"/>
<path d="M30.9861 3.80155C30.5591 3.40381 29.8869 3.43452 29.4744 3.84702C29.4346 3.88686 29.3699 3.88686 29.3298 3.84702C28.9173 3.43452 28.2451 3.40381 27.8181 3.80155C27.3697 4.21898 27.3603 4.92117 27.7899 5.35054L29.1798 6.74039C29.3026 6.86321 29.5016 6.86321 29.6244 6.74039L31.0143 5.35054C31.4436 4.92117 31.4343 4.21898 30.9861 3.80155Z" fill="#FC657E"/>
<path d="M31.3855 3.37302C31.3855 3.37278 31.3855 3.37278 31.3855 3.37302C30.8344 2.85997 30.0289 2.79528 29.4019 3.16676C28.7752 2.79504 27.9694 2.8602 27.4186 3.37278C27.0851 3.68333 26.8969 4.10521 26.889 4.56013C26.8807 5.01529 27.0537 5.44303 27.3753 5.76482L28.7654 7.15491C28.9409 7.33046 29.1713 7.41835 29.4019 7.41835C29.6326 7.41835 29.8632 7.33046 30.0387 7.15491L31.4286 5.76482C31.7504 5.44303 31.9231 5.01529 31.9151 4.56013C31.9072 4.10521 31.719 3.68356 31.3855 3.37302ZM30.6001 4.9363L29.4022 6.1342L28.2043 4.9363C28.1093 4.84138 28.0585 4.71529 28.0608 4.58099C28.0632 4.44693 28.119 4.32224 28.2176 4.23036C28.3069 4.14716 28.4234 4.10591 28.5422 4.10591C28.6761 4.10591 28.8125 4.15818 28.9158 4.2613C29.1755 4.52122 29.629 4.52122 29.8887 4.2613C30.083 4.06677 30.3966 4.05271 30.5869 4.23013C30.6856 4.322 30.7412 4.44646 30.7437 4.58052C30.7458 4.71529 30.6948 4.84138 30.6001 4.9363Z" fill="black"/>
<path d="M32.0299 12.0708C30.9503 11.0656 29.2511 11.1427 28.2079 12.1859C28.1071 12.2867 27.9435 12.2867 27.8425 12.1859C26.7995 11.1429 25.1001 11.0656 24.0205 12.0708C22.8873 13.1262 22.8634 14.9012 23.9491 15.9868L27.4631 19.5008C27.7734 19.8111 28.2768 19.8111 28.5871 19.5008L32.1011 15.9868C33.187 14.9012 33.1633 13.1262 32.0299 12.0708Z" fill="#FC657E"/>
<path d="M32.43 11.6417C31.2192 10.5137 29.3055 10.4992 28.0261 11.5602C26.7469 10.4992 24.8332 10.5142 23.6222 11.6417C22.9584 12.26 22.5841 13.0989 22.5679 14.0038C22.5518 14.9094 22.8954 15.7607 23.5357 16.401L27.0497 19.9148C27.3105 20.1756 27.6572 20.3193 28.0261 20.3193C28.395 20.3193 28.7416 20.1756 29.0025 19.9148L32.5163 16.401C33.1566 15.7607 33.5004 14.9094 33.4842 14.0038C33.4683 13.0989 33.0938 12.26 32.43 11.6417ZM31.6877 15.5725L28.174 19.0862C28.0922 19.1678 27.9595 19.1676 27.8784 19.0862L24.3647 15.5725C23.9512 15.159 23.7295 14.6094 23.7398 14.0249C23.7501 13.4406 23.9922 12.8989 24.4211 12.4996C24.8172 12.1304 25.3317 11.9478 25.8515 11.9478C26.4208 11.9478 26.9962 12.167 27.4294 12.5999C27.7481 12.9189 28.3043 12.9186 28.6233 12.5999C29.4518 11.7711 30.8011 11.7261 31.6313 12.4996C32.0604 12.8989 32.3023 13.4408 32.3126 14.0249C32.3231 14.6094 32.1012 15.159 31.6877 15.5725Z" fill="black"/>
<path d="M47.4324 27.0311C46.9187 27.0311 46.502 27.4476 46.502 27.9615C46.502 28.4753 46.9184 28.892 47.4324 28.892C47.9464 28.892 48.3629 28.4755 48.3629 27.9615C48.3629 27.4478 47.9464 27.0311 47.4324 27.0311Z" fill="black"/>
<path d="M41.6297 27.0311C41.1159 27.0311 40.6992 27.4476 40.6992 27.9615C40.6992 28.4753 41.1157 28.892 41.6297 28.892C42.1437 28.892 42.5602 28.4755 42.5602 27.9615C42.5602 27.4478 42.1434 27.0311 41.6297 27.0311Z" fill="black"/>
<path d="M17.9022 27.4998C17.3884 27.4998 16.9717 27.9162 16.9717 28.4302C16.9717 28.944 17.3882 29.3607 17.9022 29.3607C18.4161 29.3607 18.8326 28.9442 18.8326 28.4302C18.8326 27.9165 18.4161 27.4998 17.9022 27.4998Z" fill="black"/>
<path d="M12.0994 27.4998C11.5857 27.4998 11.1689 27.9162 11.1689 28.4302C11.1689 28.944 11.5854 29.3607 12.0994 29.3607C12.6134 29.3607 13.0299 28.9442 13.0299 28.4302C13.0299 27.9165 12.6132 27.4998 12.0994 27.4998Z" fill="black"/>
<path d="M22.2622 4.68017C21.208 4.48376 20.3772 3.67001 20.1768 2.63711C20.1667 2.58532 20.0943 2.58532 20.0842 2.63711C19.8838 3.66978 19.0529 4.48376 17.9987 4.68017C17.9457 4.69002 17.9457 4.76103 17.9987 4.77088C19.0529 4.96728 19.8838 5.78104 20.0842 6.81393C20.0943 6.86573 20.1667 6.86573 20.1768 6.81393C20.3772 5.78127 21.208 4.96728 22.2622 4.77088C22.3152 4.76103 22.3152 4.69002 22.2622 4.68017Z" fill="#F5C84C"/>
<path d="M4.93361 19.6982C4.29915 19.58 3.79899 19.0902 3.67852 18.4686C3.67243 18.4375 3.62883 18.4375 3.62274 18.4686C3.50204 19.0902 3.00211 19.58 2.36766 19.6982C2.33578 19.704 2.33578 19.7469 2.36766 19.7528C3.00211 19.8709 3.50227 20.3607 3.62274 20.9823C3.62883 21.0135 3.67243 21.0135 3.67852 20.9823C3.79923 20.3607 4.29915 19.8709 4.93361 19.7528C4.96548 19.7469 4.96548 19.7043 4.93361 19.6982Z" fill="#FC657E"/>
<path d="M56.1779 35.7594H55.6321V35.2133C55.6321 34.8046 55.3009 34.4734 54.8922 34.4734C54.4834 34.4734 54.1522 34.8046 54.1522 35.2133V35.7594H53.6061C53.1974 35.7594 52.8662 36.0906 52.8662 36.4993C52.8662 36.9081 53.1974 37.2393 53.6061 37.2393H54.1522V37.7854C54.1522 38.1941 54.4834 38.5253 54.8922 38.5253C55.3009 38.5253 55.6321 38.1939 55.6321 37.7854V37.2393H56.1779C56.5867 37.2393 56.9179 36.9081 56.9179 36.4993C56.9179 36.0906 56.5867 35.7594 56.1779 35.7594Z" fill="#87D147"/>
<path d="M57.8032 30.0779C57.3661 30.0779 57.0117 30.4323 57.0117 30.8694C57.0117 31.3065 57.3661 31.6609 57.8032 31.6609C58.2403 31.6609 58.5947 31.3065 58.5947 30.8694C58.5947 30.4323 58.2403 30.0779 57.8032 30.0779Z" fill="#F5C84C"/>
<path d="M24.8442 1.88095C25.2813 1.88095 25.6357 1.52659 25.6357 1.08946C25.6357 0.652335 25.2813 0.297974 24.8442 0.297974C24.4071 0.297974 24.0527 0.652335 24.0527 1.08946C24.0527 1.52659 24.4071 1.88095 24.8442 1.88095Z" fill="#70D6F9"/>
</svg>
