<svg width="60" height="70" viewBox="0 0 60 70" fill="none" xmlns="http://www.w3.org/2000/svg">
<path d="M53.2261 42.1329C53.5751 41.0725 53.7123 39.9569 53.6255 38.8463C53.5013 37.2608 53.36 34.8309 53.4681 32.9824C53.4853 32.6883 53.2865 32.4256 52.9936 32.355C51.4661 31.9876 49.9386 32.9659 49.6846 34.4808C49.5006 35.577 49.3806 36.9436 49.3514 38.6412L46.2853 26.4595C46.0324 25.4549 44.993 24.8408 43.9634 25.0873C42.9338 25.334 42.3042 26.3482 42.5571 27.3528L41.9682 25.0129C41.7153 24.0083 40.6759 23.3942 39.6464 23.6407C38.6168 23.8874 37.9874 24.9016 38.24 25.9062L38.8288 28.246C38.5759 27.2415 37.5366 26.6273 36.507 26.8738L36.4523 26.8869C35.4227 27.1336 34.793 28.1478 35.0459 29.1524L35.6122 31.4019C35.3674 30.4295 34.3471 29.8419 33.3513 30.1118C32.3889 30.3726 31.8491 31.377 32.0873 32.3236L34.5322 42.0378C34.9912 43.861 35.7905 45.5862 36.8906 47.1269L37.5711 48.0802C38.6709 49.6205 39.4702 51.3458 39.9292 53.1687L40.4873 55.3864L52.7178 52.4558L52.0629 49.8532C51.6722 48.3014 51.7307 46.6742 52.2316 45.153L53.2261 42.1329Z" fill="#F9D0B4"/>
<path d="M59.2935 68.2794L56.0365 55.8522C55.9137 55.3645 55.4093 55.0665 54.9095 55.186L39.8953 58.7837C39.3955 58.9034 39.0901 59.3956 39.2126 59.8833L41.3275 68.6824C41.4196 69.0651 41.7694 69.3356 42.1723 69.3356H58.4528C59.0194 69.3358 59.4337 68.8149 59.2935 68.2794Z" fill="#70D6F9"/>
<path d="M54.2235 52.9509C54.1113 52.5055 53.6504 52.2332 53.1939 52.3427L40.0623 55.4892C39.6057 55.5987 39.3267 56.0484 39.4388 56.4938L40.0084 58.7567L54.793 55.2141L54.2235 52.9509Z" fill="#EDF4FC"/>
<path d="M27.8347 30.1119C26.8389 29.842 25.8186 30.4298 25.5738 31.402L26.1401 29.1525C26.393 28.1479 25.7633 27.1337 24.7337 26.887L24.679 26.8739C23.6494 26.6272 22.61 27.2416 22.3571 28.2462L22.9457 25.906C23.1986 24.9014 22.5689 23.8873 21.5394 23.6405C20.5098 23.3937 19.4704 24.0081 19.2175 25.0127L18.6286 27.3526C18.8816 26.348 18.2519 25.3339 17.2223 25.0871C16.1927 24.8403 15.1533 25.4547 14.9004 26.4593L11.8346 38.6411C11.8057 36.9432 11.6854 35.5768 11.5013 34.4806C11.2474 32.9658 9.71986 31.9875 8.19237 32.3548C7.89944 32.4252 7.70072 32.6882 7.71787 32.9822C7.82594 34.8307 7.68465 37.2606 7.56052 38.8461C7.47367 39.9564 7.61061 41.0723 7.95988 42.1327L8.95434 45.1534C9.45525 46.6746 9.51378 48.3018 9.12313 49.8536L8.46814 52.4562L20.6987 55.3868L21.2568 53.1691C21.7158 51.3459 22.515 49.6209 23.6148 48.0805L24.2954 47.1272C25.3952 45.5866 26.1948 43.8614 26.6538 42.0381L29.0987 32.324C29.3369 31.3771 28.7971 30.3727 27.8347 30.1119Z" fill="#F9D0B4"/>
<path d="M21.2928 58.7836L6.27867 55.1858C5.77885 55.066 5.27441 55.3643 5.15163 55.8519L1.89465 68.2792C1.75445 68.8147 2.16878 69.3355 2.7353 69.3355H19.0159C19.4188 69.3355 19.7686 69.0649 19.8606 68.6824L21.9756 59.8833C22.0981 59.3956 21.7926 58.9032 21.2928 58.7836Z" fill="#70D6F9"/>
<path d="M21.1233 55.4887L7.99167 52.3422C7.53514 52.2327 7.07425 52.5053 6.96209 52.9504L6.39258 55.2133L21.1772 58.7559L21.7467 56.4931C21.8589 56.0479 21.5799 55.5982 21.1233 55.4887Z" fill="#EDF4FC"/>
<path d="M49.9865 38.4008C49.8504 38.0587 49.4557 37.8895 49.1058 38.0223C48.8959 38.1018 43.9596 40.0363 43.4886 45.702C43.4581 46.0675 43.7374 46.3882 44.112 46.4176C44.1308 46.4192 44.1493 46.4198 44.1678 46.4198C44.5187 46.4198 44.8166 46.1568 44.8454 45.8094C45.2456 40.9971 49.4118 39.3324 49.5999 39.2599C49.9492 39.1268 50.1226 38.7424 49.9865 38.4008Z" fill="black"/>
<path d="M53.875 42.3357C54.2539 41.1845 54.3985 39.9932 54.3048 38.7955C54.1758 37.1471 54.044 34.8072 54.1486 33.0201C54.1842 32.4078 53.7674 31.8569 53.1574 31.7103C52.2437 31.4906 51.2689 31.6545 50.4838 32.1602C49.7011 32.6644 49.1651 33.4714 49.014 34.3737C49.0094 34.4013 49.0047 34.4292 49.0001 34.4571L46.9472 26.3011C46.7817 25.6429 46.3633 25.0872 45.7693 24.736C45.175 24.3852 44.4764 24.281 43.8021 24.4425C43.375 24.5448 42.99 24.7461 42.6734 25.0272L42.6299 24.8548C42.288 23.4964 40.877 22.6626 39.4848 22.9959C38.0926 23.3296 37.2381 24.706 37.58 26.0647L37.6238 26.2392C37.2179 26.1346 36.7802 26.125 36.3446 26.2294L36.2907 26.2424C34.8985 26.576 34.044 27.9525 34.3859 29.3112L34.4202 29.4477C34.0129 29.3529 33.5858 29.3595 33.1698 29.4724C31.8792 29.8219 31.0973 31.1721 31.427 32.4822L33.8719 42.1963C34.3527 44.1061 35.1805 45.893 36.3326 47.5067L37.0132 48.46C38.0692 49.9395 38.8282 51.5771 39.2689 53.3275L39.7698 55.3178C39.846 55.6209 40.124 55.8236 40.4302 55.8236C40.4839 55.8236 40.5386 55.8175 40.593 55.8042C40.9581 55.7168 41.1813 55.3572 41.0918 55.001L40.5909 53.0106C40.1104 51.1011 39.2825 49.3145 38.1302 47.7006L37.4496 46.7472C36.3936 45.2682 35.6346 43.6304 35.1939 41.8794L32.749 32.1653C32.593 31.5456 32.9452 30.9113 33.5341 30.7519C33.836 30.6706 34.1499 30.7102 34.4188 30.8637C34.6875 31.0173 34.8764 31.2638 34.9513 31.5583L34.9519 31.5605C35.0414 31.9167 35.4095 32.135 35.7751 32.0471C36.1401 31.9597 36.3634 31.6 36.2738 31.2438L35.7076 28.9943C35.6286 28.6806 35.6795 28.356 35.851 28.0797C36.0225 27.8035 36.2937 27.609 36.6163 27.5317L36.6702 27.5187C36.9914 27.4417 37.3241 27.4914 37.6075 27.6587C37.8906 27.8258 38.0899 28.0906 38.1688 28.4043C38.2584 28.7605 38.6267 28.9786 38.992 28.8909C39.3571 28.8035 39.5803 28.4439 39.4908 28.0877C39.4908 28.0872 39.4905 28.0866 39.4905 28.0861L38.9019 25.7478C38.7391 25.1005 39.1461 24.4447 39.8096 24.2856C40.1308 24.2088 40.4637 24.2582 40.7469 24.4255C41.03 24.5929 41.2292 24.8574 41.3082 25.1711L41.8959 27.5065C41.8962 27.5081 41.8968 27.5094 41.897 27.511C41.9866 27.8672 42.3552 28.0853 42.7203 27.9976C43.0853 27.9103 43.3086 27.5506 43.219 27.1944L43.2187 27.1925C43.057 26.5457 43.464 25.891 44.1269 25.7321C44.7903 25.5738 45.4624 25.9704 45.6255 26.6177L48.6917 38.7995C48.7733 39.1236 49.0878 39.3392 49.4289 39.301C49.7689 39.2635 50.0275 38.9857 50.0332 38.6521C50.0599 37.078 50.1691 35.7106 50.3575 34.5878C50.4489 34.0419 50.7601 33.5734 51.2338 33.2684C51.6971 32.9701 52.247 32.8713 52.7874 32.9892C52.6831 34.843 52.8168 37.2214 52.948 38.8965C53.0283 39.922 52.9042 40.9426 52.5794 41.9293L51.5849 44.95C51.0454 46.5895 50.9825 48.3396 51.4034 50.0117L52.0235 52.4762C52.1131 52.8324 52.4817 53.0505 52.8467 52.9628C53.2118 52.8754 53.435 52.5158 53.3455 52.1596L52.7253 49.6951C52.3646 48.2618 52.4185 46.7616 52.881 45.3564L53.875 42.3357Z" fill="black"/>
<path d="M38.1962 38.8754L36.2753 31.2443C36.1858 30.8881 35.8166 30.67 35.4521 30.7577C35.087 30.845 34.8638 31.2047 34.9534 31.5609L36.8742 39.192C36.9505 39.4951 37.2287 39.6978 37.5347 39.6978C37.5883 39.6978 37.643 39.6916 37.6975 39.6784C38.0625 39.5912 38.2858 39.2316 38.1962 38.8754Z" fill="black"/>
<path d="M41.977 37.9686L39.4902 28.0877C39.4006 27.7315 39.0325 27.5134 38.6669 27.601C38.3019 27.6884 38.0786 28.0481 38.1682 28.4043L40.655 38.2852C40.7313 38.5883 41.0092 38.791 41.3155 38.791C41.3691 38.791 41.4238 38.7849 41.4783 38.7716C41.8433 38.6845 42.0666 38.3248 41.977 37.9686Z" fill="black"/>
<path d="M45.7055 37.0754L43.2187 27.1945C43.1291 26.8383 42.7602 26.6202 42.3954 26.7079C42.0304 26.7952 41.8072 27.1549 41.8967 27.5111L44.3836 37.392C44.4598 37.6951 44.7377 37.8978 45.044 37.8978C45.0976 37.8978 45.1523 37.8917 45.2068 37.8784C45.5721 37.7913 45.7954 37.4316 45.7055 37.0754Z" fill="black"/>
<path d="M59.9508 68.1151L56.6955 55.6937C56.5928 55.2857 56.3334 54.9412 55.9651 54.7234C55.5967 54.5059 55.1633 54.441 54.7452 54.5412L39.7311 58.1388C38.8678 58.3454 38.3378 59.1992 38.5479 60.0351L40.6632 68.8339C40.8282 69.5202 41.448 69.9997 42.1705 69.9997H58.4511C58.9329 69.9997 59.3786 69.7867 59.674 69.4156C59.9691 69.0445 60.0701 68.5704 59.9508 68.1151ZM58.5986 68.6012C58.5777 68.6275 58.5306 68.6718 58.4511 68.6718H42.1705C42.0834 68.6718 42.0086 68.6139 41.9887 68.5311L39.8718 59.7254C39.8389 59.5941 39.9214 59.4611 40.0558 59.4289L55.07 55.8313C55.0912 55.8263 55.1113 55.8241 55.1304 55.8241C55.1892 55.8241 55.2347 55.8449 55.26 55.8597C55.2932 55.8794 55.352 55.9251 55.3754 56.017L58.6324 68.4445C58.6517 68.5196 58.6196 68.5749 58.5986 68.6012Z" fill="black"/>
<path d="M55.4039 54.8522L54.8853 52.792C54.7878 52.4045 54.5414 52.0769 54.1913 51.87C53.8415 51.6634 53.4302 51.6017 53.0327 51.6971L39.9008 54.8437C39.0808 55.0402 38.5775 55.8512 38.7787 56.6515L39.3011 58.7274C39.3773 59.0305 39.6555 59.2331 39.9615 59.2331C40.0151 59.2331 40.0699 59.227 40.1243 59.2137C40.4894 59.1263 40.7126 58.7667 40.623 58.4105L40.1006 56.3346C40.0783 56.2456 40.1344 56.1553 40.2256 56.1333L53.3572 52.9867C53.4138 52.9729 53.4585 52.9896 53.4863 53.0061C53.5138 53.0226 53.5494 53.0534 53.5636 53.1086L54.0822 55.1688C54.1717 55.5247 54.5401 55.7428 54.9054 55.6554C55.2705 55.568 55.4937 55.2084 55.4039 54.8522Z" fill="black"/>
<path d="M12.0805 38.0223C11.7312 37.8898 11.3378 38.059 11.2012 38.3993C11.0645 38.7401 11.2368 39.1249 11.5858 39.2593C11.7633 39.3279 15.9407 40.9904 16.3412 45.8091C16.37 46.1565 16.6679 46.4195 17.0188 46.4195C17.0373 46.4195 17.0558 46.419 17.0746 46.4174C17.4492 46.3879 17.7282 46.0675 17.698 45.7018C17.227 40.0363 12.2904 38.102 12.0805 38.0223Z" fill="black"/>
<path d="M28.0147 29.4723C27.5985 29.3597 27.1714 29.3528 26.7647 29.4476L26.799 29.311C27.1409 27.9526 26.2863 26.5759 24.8952 26.2426L24.8392 26.229C24.412 26.1265 23.9751 26.131 23.5613 26.237L23.6049 26.0643C23.9468 24.7059 23.0922 23.3292 21.6998 22.9956C21.0255 22.8343 20.3269 22.9385 19.7326 23.2894C19.1386 23.6405 18.7202 24.1962 18.5547 24.8544L18.5111 25.0268C18.1948 24.7458 17.8096 24.5447 17.3825 24.4422C16.7084 24.2807 16.0093 24.3848 15.4153 24.7357C14.821 25.0868 14.4029 25.6425 14.2371 26.3007L12.1842 34.4564C12.1796 34.4286 12.1752 34.4009 12.1706 34.3733C12.0192 33.471 11.4835 32.664 10.7005 32.1599C9.91541 31.6541 8.94082 31.49 8.02721 31.7102C7.41686 31.8568 7.00007 32.4077 7.03574 33.0202C7.14027 34.8092 7.00824 37.1483 6.8792 38.7957C6.78556 39.9934 6.93011 41.1844 7.30906 42.3359L8.30352 45.3566C8.76632 46.7617 8.81994 48.262 8.45924 49.6953L7.85869 52.0806C7.76886 52.4368 7.99236 52.7964 8.35742 52.8838C8.72276 52.9712 9.09109 52.7534 9.18065 52.3972L9.7812 50.0119C10.2021 48.3395 10.1392 46.5893 9.59962 44.9502L8.60515 41.9295C8.28011 40.9425 8.15624 39.9219 8.23655 38.8966C8.36777 37.2227 8.50143 34.8453 8.39744 32.9894C8.93701 32.8712 9.48719 32.97 9.9508 33.2683C10.4245 33.5735 10.7359 34.0421 10.8274 34.5879C11.0158 35.711 11.1249 37.0784 11.1516 38.6522C11.1573 38.9859 11.4159 39.2637 11.756 39.3012C12.0957 39.3391 12.4115 39.1237 12.4932 38.7997L15.5596 26.6176C15.6385 26.3042 15.8378 26.0394 16.1209 25.872C16.4041 25.7049 16.7367 25.6553 17.0582 25.732C17.3797 25.8091 17.6509 26.0035 17.8224 26.2797C17.9936 26.556 18.0445 26.8806 17.9658 27.1943C17.876 27.5505 18.0995 27.9101 18.4646 27.9975C18.8291 28.0852 19.1982 27.8671 19.2878 27.5109C19.2881 27.5101 19.2881 27.5093 19.2883 27.5085L19.8766 25.171C19.9556 24.8573 20.1549 24.5925 20.438 24.4254C20.7211 24.2581 21.0538 24.2087 21.3753 24.2854C22.0387 24.4446 22.446 25.1004 22.2829 25.7477L21.6938 28.0878C21.604 28.4441 21.8275 28.8037 22.1925 28.8911C22.5576 28.9785 22.9262 28.7607 23.0157 28.4045L23.0163 28.4021C23.0958 28.0894 23.2945 27.8257 23.5771 27.6589C23.8602 27.4915 24.1931 27.4424 24.5133 27.5186L24.5694 27.5322C24.8909 27.6092 25.1623 27.8036 25.3335 28.0799C25.505 28.3561 25.5559 28.6807 25.477 28.9944L24.9108 31.244C24.8209 31.6002 25.0444 31.9598 25.4095 32.0472C25.7745 32.1346 26.1431 31.9168 26.2327 31.5606C26.307 31.265 26.4965 31.0177 26.7657 30.8636C27.035 30.7098 27.3494 30.6702 27.6508 30.7518C28.2396 30.9114 28.5919 31.5455 28.4359 32.1652L25.991 41.8793C25.5502 43.6303 24.7912 45.2679 23.7353 46.7471L23.0547 47.7007C21.9026 49.3144 21.075 51.1007 20.5942 53.0105L20.0933 55.0011C20.0035 55.3573 20.227 55.717 20.5921 55.8044C20.6465 55.8174 20.7012 55.8238 20.7549 55.8238C21.0609 55.8238 21.3391 55.6208 21.4153 55.318L21.9162 53.3274C22.3569 51.5767 23.1157 49.9391 24.1716 48.4599L24.8522 47.5065C26.0043 45.8929 26.8322 44.1063 27.3129 42.1962L29.7578 32.4821C30.0875 31.172 29.3057 29.8218 28.0147 29.4723Z" fill="black"/>
<path d="M25.7363 30.7575C25.3707 30.6699 25.0027 30.888 24.9131 31.2442L22.9925 38.8753C22.9027 39.2315 23.1262 39.5911 23.4912 39.6785C23.5457 39.6915 23.6004 39.6979 23.654 39.6979C23.96 39.6979 24.2382 39.495 24.3145 39.1922L26.2351 31.561C26.3249 31.2046 26.1014 30.8449 25.7363 30.7575Z" fill="black"/>
<path d="M22.5194 27.6014C22.1538 27.5137 21.7857 27.7318 21.6961 28.088L19.2093 37.969C19.1195 38.3252 19.343 38.6848 19.708 38.7722C19.7625 38.7852 19.8172 38.7916 19.8708 38.7916C20.1768 38.7916 20.455 38.5887 20.5313 38.2859L23.0181 28.4049C23.1077 28.0484 22.8844 27.6888 22.5194 27.6014Z" fill="black"/>
<path d="M18.7889 26.708C18.4238 26.6199 18.0552 26.8382 17.9657 27.1947L15.4788 37.0756C15.389 37.4318 15.6125 37.7915 15.9776 37.8788C16.032 37.8919 16.0867 37.8982 16.1404 37.8982C16.4464 37.8982 16.7246 37.6953 16.8008 37.3925L19.2876 27.5116C19.3772 27.1551 19.154 26.7954 18.7889 26.708Z" fill="black"/>
<path d="M21.4542 58.1388L6.4401 54.5412C6.02168 54.4405 5.58856 54.5053 5.2205 54.7234C4.8519 54.9412 4.59246 55.2857 4.49147 55.6876L1.23448 68.1151C1.11525 68.5703 1.21624 69.0445 1.51189 69.4158C1.80726 69.7869 2.2529 69.9999 2.73475 69.9999H19.0153C19.7378 69.9999 20.3577 69.5205 20.5227 68.8341L22.636 60.042C22.8475 59.1991 22.3175 58.3454 21.4542 58.1388ZM21.3119 59.7317L19.1969 68.5305C19.177 68.6134 19.1022 68.6713 19.0148 68.6713H2.73448C2.65499 68.6713 2.60762 68.6269 2.58693 68.6006C2.56597 68.5743 2.53357 68.5188 2.55318 68.4434L5.81179 56.0098C5.83357 55.924 5.89237 55.8783 5.92558 55.8587C5.9509 55.8438 5.99636 55.8231 6.05544 55.8231C6.07422 55.8231 6.09437 55.8252 6.1156 55.8302L21.1297 59.4278C21.2642 59.4608 21.3467 59.5939 21.3119 59.7317Z" fill="black"/>
<path d="M21.2867 54.8438L8.15505 51.6972C7.33454 51.5001 6.50396 51.9917 6.30224 52.7921L5.79915 54.7906C5.70932 55.1468 5.93282 55.5065 6.29788 55.5939C6.66267 55.6813 7.03155 55.4635 7.12111 55.1073L7.6242 53.1087C7.64679 53.0197 7.73935 52.9647 7.83055 52.9868L20.9619 56.1334C21.0531 56.1554 21.1095 56.2454 21.0869 56.3347L20.5694 58.3914C20.4795 58.7476 20.703 59.1073 21.0681 59.1947C21.1225 59.2077 21.1773 59.2141 21.2309 59.2141C21.5369 59.2141 21.8151 59.0111 21.8913 58.7083L22.4088 56.6516C22.6103 55.8515 22.1069 55.0406 21.2867 54.8438Z" fill="black"/>
<g filter="url(#filter0_d_4062_1545)">
<path d="M54.1417 12.7238H53.4794C53.1035 12.7238 52.7988 13.021 52.7988 13.3878C52.7988 13.7546 53.1035 14.0519 53.4794 14.0519H54.1417C54.5177 14.0519 54.8223 13.7546 54.8223 13.3878C54.8223 13.021 54.5177 12.7238 54.1417 12.7238Z" fill="#F5EDC6"/>
</g>
<g filter="url(#filter1_d_4062_1545)">
<path d="M50.8294 12.7238H45.8876C45.5117 12.7238 45.207 13.021 45.207 13.3878C45.207 13.7546 45.5117 14.0519 45.8876 14.0519H50.8294C51.2054 14.0519 51.51 13.7546 51.51 13.3878C51.51 13.021 51.2054 12.7238 50.8294 12.7238Z" fill="#F5EDC6"/>
</g>
<g filter="url(#filter2_d_4062_1545)">
<path d="M43.1018 12.7238H36.0009C35.6249 12.7238 35.3203 13.021 35.3203 13.3878C35.3203 13.7546 35.6249 14.0519 36.0009 14.0519H43.1018C43.4777 14.0519 43.7824 13.7546 43.7824 13.3878C43.7824 13.021 43.4777 12.7238 43.1018 12.7238Z" fill="#F5EDC6"/>
</g>
<g filter="url(#filter3_d_4062_1545)">
<path d="M49.9469 2.48499C49.7591 2.1673 49.3428 2.05813 49.0172 2.24194L48.3111 2.63985C47.9855 2.82313 47.8741 3.22926 48.062 3.54695C48.188 3.75998 48.4167 3.87898 48.6519 3.87898C48.7673 3.87898 48.8844 3.85029 48.9916 3.79L49.6978 3.39209C50.0234 3.20881 50.1347 2.80267 49.9469 2.48499Z" fill="#F5EDC6"/>
</g>
<g filter="url(#filter4_d_4062_1545)">
<path d="M47.3153 3.9671C47.1275 3.64942 46.7112 3.54025 46.3856 3.72406L42.6724 5.81584C42.3468 5.99913 42.2355 6.40526 42.4233 6.72295C42.5493 6.93598 42.778 7.05498 43.0132 7.05498C43.1287 7.05498 43.2457 7.02629 43.353 6.966L47.0662 4.87421C47.3918 4.69093 47.5031 4.28479 47.3153 3.9671Z" fill="#F5EDC6"/>
</g>
<g filter="url(#filter5_d_4062_1545)">
<path d="M41.4109 7.2945C41.223 6.97681 40.8065 6.86791 40.4812 7.05145L34.938 10.1741C34.6124 10.3574 34.5011 10.7635 34.6889 11.0812C34.815 11.2943 35.0436 11.4133 35.2789 11.4133C35.3943 11.4133 35.5113 11.3846 35.6186 11.3243L41.1618 8.20161C41.4871 8.01806 41.5987 7.61192 41.4109 7.2945Z" fill="#F5EDC6"/>
</g>
<g filter="url(#filter6_d_4062_1545)">
<path d="M37.1886 2.24201C36.863 2.05846 36.4465 2.16763 36.2589 2.48505L32.7085 8.4855C32.5206 8.80318 32.632 9.20932 32.9576 9.3926C33.0648 9.45316 33.1819 9.48159 33.2973 9.48159C33.5325 9.48159 33.7615 9.36232 33.8872 9.14956L37.4377 3.14911C37.6255 2.83143 37.5142 2.42529 37.1886 2.24201Z" fill="#F5EDC6"/>
</g>
<g filter="url(#filter7_d_4062_1545)">
<path d="M28.2287 17.383C27.9032 17.1992 27.4866 17.3086 27.2991 17.626L24.1733 22.9085C23.9855 23.2262 24.0968 23.6323 24.4224 23.8156C24.5297 23.8762 24.6467 23.9046 24.7621 23.9046C24.9973 23.9046 25.2263 23.7856 25.3521 23.5726L28.4778 18.2901C28.6657 17.9724 28.5541 17.5665 28.2287 17.383Z" fill="#F5EDC6"/>
</g>
<g filter="url(#filter8_d_4062_1545)">
<path d="M30.5931 2C30.2169 2 29.9121 2.29723 29.9121 2.66406V8.11041C29.9121 8.47724 30.2169 8.77447 30.5931 8.77447C30.9692 8.77447 31.274 8.47724 31.274 8.11041V2.66406C31.274 2.29723 30.9692 2 30.5931 2Z" fill="#F5EDC6"/>
</g>
<g filter="url(#filter9_d_4062_1545)">
<path d="M30.5931 18.0012C30.2169 18.0012 29.9121 18.2984 29.9121 18.6652V28.7172C29.9121 29.084 30.2169 29.3813 30.5931 29.3813C30.9692 29.3813 31.274 29.084 31.274 28.7172V18.6652C31.274 18.2984 30.9692 18.0012 30.5931 18.0012Z" fill="#F5EDC6"/>
</g>
<g filter="url(#filter10_d_4062_1545)">
<path d="M28.4787 8.48555L24.9282 2.48511C24.7404 2.16743 24.3239 2.05852 23.9986 2.24207C23.673 2.42535 23.5616 2.83149 23.7495 3.14917L27.2999 9.14961C27.426 9.36264 27.6546 9.48164 27.8898 9.48164C28.0053 9.48164 28.1223 9.45296 28.2296 9.39266C28.5549 9.20938 28.6665 8.80324 28.4787 8.48555Z" fill="#F5EDC6"/>
</g>
<g filter="url(#filter11_d_4062_1545)">
<path d="M37.0497 22.9709L33.8872 17.6263C33.6994 17.3089 33.2829 17.1994 32.9576 17.3832C32.632 17.5665 32.5206 17.9727 32.7085 18.2903L35.871 23.635C35.997 23.848 36.2257 23.967 36.4609 23.967C36.5763 23.967 36.6934 23.9383 36.8006 23.878C37.126 23.6947 37.2376 23.2886 37.0497 22.9709Z" fill="#F5EDC6"/>
</g>
<g filter="url(#filter12_d_4062_1545)">
<path d="M46.2286 21.4282L35.6186 15.4514C35.2927 15.2676 34.8768 15.377 34.6889 15.6945C34.5011 16.0121 34.6124 16.4183 34.938 16.6016L45.548 22.5784C45.6552 22.6389 45.7723 22.6674 45.8877 22.6674C46.1229 22.6674 46.3519 22.5481 46.4777 22.3353C46.6655 22.0176 46.5542 21.6118 46.2286 21.4282Z" fill="#F5EDC6"/>
</g>
<g filter="url(#filter13_d_4062_1545)">
<path d="M49.9494 23.5246L49.0366 23.0103C48.7104 22.8268 48.2947 22.9359 48.1069 23.2534C47.9191 23.5711 48.0304 23.9772 48.356 24.1605L49.2688 24.6747C49.376 24.7353 49.4931 24.7637 49.6085 24.7637C49.8437 24.7637 50.0727 24.6444 50.1985 24.4317C50.3866 24.114 50.275 23.7078 49.9494 23.5246Z" fill="#F5EDC6"/>
</g>
<g filter="url(#filter14_d_4062_1545)">
<path d="M7.7062 12.7238H7.04386C6.66791 12.7238 6.36328 13.021 6.36328 13.3878C6.36328 13.7546 6.66791 14.0519 7.04386 14.0519H7.7062C8.08215 14.0519 8.38678 13.7546 8.38678 13.3878C8.38678 13.021 8.08215 12.7238 7.7062 12.7238Z" fill="#F5EDC6"/>
</g>
<g filter="url(#filter15_d_4062_1545)">
<path d="M15.2982 12.7238H10.3564C9.98041 12.7238 9.67578 13.021 9.67578 13.3878C9.67578 13.7546 9.98041 14.0519 10.3564 14.0519H15.2982C15.6741 14.0519 15.9788 13.7546 15.9788 13.3878C15.9788 13.021 15.6741 12.7238 15.2982 12.7238Z" fill="#F5EDC6"/>
</g>
<g filter="url(#filter16_d_4062_1545)">
<path d="M25.1838 12.7238H18.0829C17.707 12.7238 17.4023 13.021 17.4023 13.3878C17.4023 13.7546 17.707 14.0519 18.0829 14.0519H25.1835C25.5595 14.0519 25.8641 13.7546 25.8641 13.3878C25.8641 13.021 25.5595 12.7238 25.1838 12.7238Z" fill="#F5EDC6"/>
</g>
<g filter="url(#filter17_d_4062_1545)">
<path d="M12.8756 2.63985L12.1694 2.24194C11.8435 2.05813 11.4275 2.1673 11.2397 2.48499C11.0519 2.80267 11.1632 3.20881 11.4888 3.39209L12.195 3.79C12.3022 3.85056 12.4193 3.87898 12.5347 3.87898C12.7699 3.87898 12.9989 3.75998 13.1246 3.54695C13.3125 3.22926 13.2011 2.82313 12.8756 2.63985Z" fill="#F5EDC6"/>
</g>
<g filter="url(#filter18_d_4062_1545)">
<path d="M18.5135 5.81591L14.8002 3.72412C14.4747 3.54031 14.0581 3.64975 13.8706 3.96717C13.6827 4.28485 13.7941 4.69099 14.1197 4.87427L17.8332 6.96606C17.9404 7.02662 18.0575 7.05504 18.1729 7.05504C18.4081 7.05504 18.6371 6.93578 18.7628 6.72301C18.9507 6.40533 18.8391 5.99946 18.5135 5.81591Z" fill="#F5EDC6"/>
</g>
<g filter="url(#filter19_d_4062_1545)">
<path d="M26.2477 10.1741L20.7045 7.05145C20.3789 6.86791 19.9624 6.97681 19.7749 7.2945C19.587 7.61219 19.6984 8.01832 20.024 8.20161L25.5671 11.3243C25.6744 11.3848 25.7915 11.4133 25.9069 11.4133C26.1421 11.4133 26.371 11.2943 26.4968 11.0812C26.6849 10.7635 26.5733 10.3574 26.2477 10.1741Z" fill="#F5EDC6"/>
</g>
<g filter="url(#filter20_d_4062_1545)">
<path d="M26.4989 15.6945C26.311 15.3768 25.8945 15.2676 25.5692 15.4514L14.9595 21.4282C14.6339 21.6115 14.5226 22.0176 14.7104 22.3353C14.8365 22.5483 15.0651 22.6673 15.3003 22.6673C15.4158 22.6673 15.5328 22.6387 15.6401 22.5784L26.2501 16.6016C26.5754 16.418 26.687 16.0119 26.4989 15.6945Z" fill="#F5EDC6"/>
</g>
<g filter="url(#filter21_d_4062_1545)">
<path d="M13.0793 23.2537C12.8915 22.936 12.475 22.8271 12.1496 23.0106L11.2368 23.5249C10.9113 23.7082 10.7999 24.1143 10.9878 24.432C11.1138 24.645 11.3425 24.764 11.5777 24.764C11.6931 24.764 11.8102 24.7353 11.9174 24.675L12.8302 24.1608C13.1555 23.9775 13.2672 23.5711 13.0793 23.2537Z" fill="#F5EDC6"/>
</g>
<path d="M55.9046 19.4505C54.6801 19.2279 53.715 18.3057 53.4822 17.1351C53.4705 17.0764 53.3864 17.0764 53.3747 17.1351C53.142 18.3054 52.1769 19.2279 50.9524 19.4505C50.8909 19.4617 50.8909 19.5422 50.9524 19.5533C52.1769 19.7759 53.142 20.6982 53.3747 21.8688C53.3864 21.9275 53.4705 21.9275 53.4822 21.8688C53.715 20.6984 54.6801 19.7759 55.9046 19.5533C55.9661 19.5422 55.9661 19.4617 55.9046 19.4505Z" fill="#F5C84C"/>
<path d="M59.4171 44.6993C58.5332 44.5386 57.8365 43.8727 57.6683 43.0277C57.6598 42.9852 57.5991 42.9852 57.5907 43.0277C57.4227 43.8727 56.7261 44.5386 55.8419 44.6993C55.7975 44.7073 55.7975 44.7654 55.8419 44.7734C56.7258 44.9341 57.4225 45.6 57.5907 46.445C57.5991 46.4875 57.6598 46.4875 57.6683 46.445C57.8362 45.6 58.5329 44.9341 59.4171 44.7734C59.4615 44.7654 59.4615 44.7073 59.4171 44.6993Z" fill="#FC657E"/>
<path d="M4.64742 47.2364H4.01339V46.6175C4.01339 46.1543 3.62873 45.7789 3.15395 45.7789C2.67918 45.7789 2.29452 46.1543 2.29452 46.6175V47.2364H1.66022C1.18544 47.2364 0.800781 47.6117 0.800781 48.075C0.800781 48.5382 1.18544 48.9136 1.66022 48.9136H2.29452V49.5325C2.29452 49.9957 2.67918 50.371 3.15395 50.371C3.62873 50.371 4.01339 49.9957 4.01339 49.5325V48.9136H4.64742C5.12219 48.9136 5.50685 48.5382 5.50685 48.075C5.50685 47.6117 5.12219 47.2364 4.64742 47.2364Z" fill="#70D6F9"/>
<path d="M55.9115 26.4532C55.4038 26.4532 54.9922 26.8549 54.9922 27.3503C54.9922 27.8456 55.4038 28.2473 55.9115 28.2473C56.4192 28.2473 56.8308 27.8456 56.8308 27.3503C56.8311 26.8549 56.4195 26.4532 55.9115 26.4532Z" fill="#87D147"/>
<path d="M0.919327 54.6094C0.411615 54.6094 0 55.011 0 55.5064C0 56.0018 0.411615 56.4034 0.919327 56.4034C1.42704 56.4034 1.83865 56.0018 1.83865 55.5064C1.83893 55.011 1.42731 54.6094 0.919327 54.6094Z" fill="#F5C84C"/>
<defs>
<filter id="filter0_d_4062_1545" x="50.7988" y="10.7238" width="6.02344" height="5.32812" filterUnits="userSpaceOnUse" color-interpolation-filters="sRGB">
<feFlood flood-opacity="0" result="BackgroundImageFix"/>
<feColorMatrix in="SourceAlpha" type="matrix" values="0 0 0 0 0 0 0 0 0 0 0 0 0 0 0 0 0 0 127 0" result="hardAlpha"/>
<feOffset/>
<feGaussianBlur stdDeviation="1"/>
<feComposite in2="hardAlpha" operator="out"/>
<feColorMatrix type="matrix" values="0 0 0 0 0.959115 0 0 0 0 0.959115 0 0 0 0 0.959115 0 0 0 1 0"/>
<feBlend mode="normal" in2="BackgroundImageFix" result="effect1_dropShadow_4062_1545"/>
<feBlend mode="normal" in="SourceGraphic" in2="effect1_dropShadow_4062_1545" result="shape"/>
</filter>
<filter id="filter1_d_4062_1545" x="43.207" y="10.7238" width="10.3027" height="5.32812" filterUnits="userSpaceOnUse" color-interpolation-filters="sRGB">
<feFlood flood-opacity="0" result="BackgroundImageFix"/>
<feColorMatrix in="SourceAlpha" type="matrix" values="0 0 0 0 0 0 0 0 0 0 0 0 0 0 0 0 0 0 127 0" result="hardAlpha"/>
<feOffset/>
<feGaussianBlur stdDeviation="1"/>
<feComposite in2="hardAlpha" operator="out"/>
<feColorMatrix type="matrix" values="0 0 0 0 0.959115 0 0 0 0 0.959115 0 0 0 0 0.959115 0 0 0 1 0"/>
<feBlend mode="normal" in2="BackgroundImageFix" result="effect1_dropShadow_4062_1545"/>
<feBlend mode="normal" in="SourceGraphic" in2="effect1_dropShadow_4062_1545" result="shape"/>
</filter>
<filter id="filter2_d_4062_1545" x="33.3203" y="10.7238" width="12.4629" height="5.32812" filterUnits="userSpaceOnUse" color-interpolation-filters="sRGB">
<feFlood flood-opacity="0" result="BackgroundImageFix"/>
<feColorMatrix in="SourceAlpha" type="matrix" values="0 0 0 0 0 0 0 0 0 0 0 0 0 0 0 0 0 0 127 0" result="hardAlpha"/>
<feOffset/>
<feGaussianBlur stdDeviation="1"/>
<feComposite in2="hardAlpha" operator="out"/>
<feColorMatrix type="matrix" values="0 0 0 0 0.959115 0 0 0 0 0.959115 0 0 0 0 0.959115 0 0 0 1 0"/>
<feBlend mode="normal" in2="BackgroundImageFix" result="effect1_dropShadow_4062_1545"/>
<feBlend mode="normal" in="SourceGraphic" in2="effect1_dropShadow_4062_1545" result="shape"/>
</filter>
<filter id="filter3_d_4062_1545" x="45.9707" y="0.152649" width="6.06836" height="5.72632" filterUnits="userSpaceOnUse" color-interpolation-filters="sRGB">
<feFlood flood-opacity="0" result="BackgroundImageFix"/>
<feColorMatrix in="SourceAlpha" type="matrix" values="0 0 0 0 0 0 0 0 0 0 0 0 0 0 0 0 0 0 127 0" result="hardAlpha"/>
<feOffset/>
<feGaussianBlur stdDeviation="1"/>
<feComposite in2="hardAlpha" operator="out"/>
<feColorMatrix type="matrix" values="0 0 0 0 0.959115 0 0 0 0 0.959115 0 0 0 0 0.959115 0 0 0 1 0"/>
<feBlend mode="normal" in2="BackgroundImageFix" result="effect1_dropShadow_4062_1545"/>
<feBlend mode="normal" in="SourceGraphic" in2="effect1_dropShadow_4062_1545" result="shape"/>
</filter>
<filter id="filter4_d_4062_1545" x="40.332" y="1.63477" width="9.07422" height="7.42023" filterUnits="userSpaceOnUse" color-interpolation-filters="sRGB">
<feFlood flood-opacity="0" result="BackgroundImageFix"/>
<feColorMatrix in="SourceAlpha" type="matrix" values="0 0 0 0 0 0 0 0 0 0 0 0 0 0 0 0 0 0 127 0" result="hardAlpha"/>
<feOffset/>
<feGaussianBlur stdDeviation="1"/>
<feComposite in2="hardAlpha" operator="out"/>
<feColorMatrix type="matrix" values="0 0 0 0 0.959115 0 0 0 0 0.959115 0 0 0 0 0.959115 0 0 0 1 0"/>
<feBlend mode="normal" in2="BackgroundImageFix" result="effect1_dropShadow_4062_1545"/>
<feBlend mode="normal" in="SourceGraphic" in2="effect1_dropShadow_4062_1545" result="shape"/>
</filter>
<filter id="filter5_d_4062_1545" x="32.5977" y="4.96228" width="10.9043" height="8.45099" filterUnits="userSpaceOnUse" color-interpolation-filters="sRGB">
<feFlood flood-opacity="0" result="BackgroundImageFix"/>
<feColorMatrix in="SourceAlpha" type="matrix" values="0 0 0 0 0 0 0 0 0 0 0 0 0 0 0 0 0 0 127 0" result="hardAlpha"/>
<feOffset/>
<feGaussianBlur stdDeviation="1"/>
<feComposite in2="hardAlpha" operator="out"/>
<feColorMatrix type="matrix" values="0 0 0 0 0.959115 0 0 0 0 0.959115 0 0 0 0 0.959115 0 0 0 1 0"/>
<feBlend mode="normal" in2="BackgroundImageFix" result="effect1_dropShadow_4062_1545"/>
<feBlend mode="normal" in="SourceGraphic" in2="effect1_dropShadow_4062_1545" result="shape"/>
</filter>
<filter id="filter6_d_4062_1545" x="30.6172" y="0.152893" width="8.91211" height="11.3287" filterUnits="userSpaceOnUse" color-interpolation-filters="sRGB">
<feFlood flood-opacity="0" result="BackgroundImageFix"/>
<feColorMatrix in="SourceAlpha" type="matrix" values="0 0 0 0 0 0 0 0 0 0 0 0 0 0 0 0 0 0 127 0" result="hardAlpha"/>
<feOffset/>
<feGaussianBlur stdDeviation="1"/>
<feComposite in2="hardAlpha" operator="out"/>
<feColorMatrix type="matrix" values="0 0 0 0 0.959115 0 0 0 0 0.959115 0 0 0 0 0.959115 0 0 0 1 0"/>
<feBlend mode="normal" in2="BackgroundImageFix" result="effect1_dropShadow_4062_1545"/>
<feBlend mode="normal" in="SourceGraphic" in2="effect1_dropShadow_4062_1545" result="shape"/>
</filter>
<filter id="filter7_d_4062_1545" x="22.082" y="15.2938" width="8.48633" height="10.6108" filterUnits="userSpaceOnUse" color-interpolation-filters="sRGB">
<feFlood flood-opacity="0" result="BackgroundImageFix"/>
<feColorMatrix in="SourceAlpha" type="matrix" values="0 0 0 0 0 0 0 0 0 0 0 0 0 0 0 0 0 0 127 0" result="hardAlpha"/>
<feOffset/>
<feGaussianBlur stdDeviation="1"/>
<feComposite in2="hardAlpha" operator="out"/>
<feColorMatrix type="matrix" values="0 0 0 0 0.959115 0 0 0 0 0.959115 0 0 0 0 0.959115 0 0 0 1 0"/>
<feBlend mode="normal" in2="BackgroundImageFix" result="effect1_dropShadow_4062_1545"/>
<feBlend mode="normal" in="SourceGraphic" in2="effect1_dropShadow_4062_1545" result="shape"/>
</filter>
<filter id="filter8_d_4062_1545" x="27.9121" y="0" width="5.36133" height="10.7745" filterUnits="userSpaceOnUse" color-interpolation-filters="sRGB">
<feFlood flood-opacity="0" result="BackgroundImageFix"/>
<feColorMatrix in="SourceAlpha" type="matrix" values="0 0 0 0 0 0 0 0 0 0 0 0 0 0 0 0 0 0 127 0" result="hardAlpha"/>
<feOffset/>
<feGaussianBlur stdDeviation="1"/>
<feComposite in2="hardAlpha" operator="out"/>
<feColorMatrix type="matrix" values="0 0 0 0 0.959115 0 0 0 0 0.959115 0 0 0 0 0.959115 0 0 0 1 0"/>
<feBlend mode="normal" in2="BackgroundImageFix" result="effect1_dropShadow_4062_1545"/>
<feBlend mode="normal" in="SourceGraphic" in2="effect1_dropShadow_4062_1545" result="shape"/>
</filter>
<filter id="filter9_d_4062_1545" x="27.9121" y="16.0012" width="5.36133" height="15.3801" filterUnits="userSpaceOnUse" color-interpolation-filters="sRGB">
<feFlood flood-opacity="0" result="BackgroundImageFix"/>
<feColorMatrix in="SourceAlpha" type="matrix" values="0 0 0 0 0 0 0 0 0 0 0 0 0 0 0 0 0 0 127 0" result="hardAlpha"/>
<feOffset/>
<feGaussianBlur stdDeviation="1"/>
<feComposite in2="hardAlpha" operator="out"/>
<feColorMatrix type="matrix" values="0 0 0 0 0.959115 0 0 0 0 0.959115 0 0 0 0 0.959115 0 0 0 1 0"/>
<feBlend mode="normal" in2="BackgroundImageFix" result="effect1_dropShadow_4062_1545"/>
<feBlend mode="normal" in="SourceGraphic" in2="effect1_dropShadow_4062_1545" result="shape"/>
</filter>
<filter id="filter10_d_4062_1545" x="21.6582" y="0.152893" width="8.91211" height="11.3287" filterUnits="userSpaceOnUse" color-interpolation-filters="sRGB">
<feFlood flood-opacity="0" result="BackgroundImageFix"/>
<feColorMatrix in="SourceAlpha" type="matrix" values="0 0 0 0 0 0 0 0 0 0 0 0 0 0 0 0 0 0 127 0" result="hardAlpha"/>
<feOffset/>
<feGaussianBlur stdDeviation="1"/>
<feComposite in2="hardAlpha" operator="out"/>
<feColorMatrix type="matrix" values="0 0 0 0 0.959115 0 0 0 0 0.959115 0 0 0 0 0.959115 0 0 0 1 0"/>
<feBlend mode="normal" in2="BackgroundImageFix" result="effect1_dropShadow_4062_1545"/>
<feBlend mode="normal" in="SourceGraphic" in2="effect1_dropShadow_4062_1545" result="shape"/>
</filter>
<filter id="filter11_d_4062_1545" x="30.6172" y="15.294" width="8.52344" height="10.673" filterUnits="userSpaceOnUse" color-interpolation-filters="sRGB">
<feFlood flood-opacity="0" result="BackgroundImageFix"/>
<feColorMatrix in="SourceAlpha" type="matrix" values="0 0 0 0 0 0 0 0 0 0 0 0 0 0 0 0 0 0 127 0" result="hardAlpha"/>
<feOffset/>
<feGaussianBlur stdDeviation="1"/>
<feComposite in2="hardAlpha" operator="out"/>
<feColorMatrix type="matrix" values="0 0 0 0 0.959115 0 0 0 0 0.959115 0 0 0 0 0.959115 0 0 0 1 0"/>
<feBlend mode="normal" in2="BackgroundImageFix" result="effect1_dropShadow_4062_1545"/>
<feBlend mode="normal" in="SourceGraphic" in2="effect1_dropShadow_4062_1545" result="shape"/>
</filter>
<filter id="filter12_d_4062_1545" x="32.5977" y="13.3622" width="15.9707" height="11.3052" filterUnits="userSpaceOnUse" color-interpolation-filters="sRGB">
<feFlood flood-opacity="0" result="BackgroundImageFix"/>
<feColorMatrix in="SourceAlpha" type="matrix" values="0 0 0 0 0 0 0 0 0 0 0 0 0 0 0 0 0 0 127 0" result="hardAlpha"/>
<feOffset/>
<feGaussianBlur stdDeviation="1"/>
<feComposite in2="hardAlpha" operator="out"/>
<feColorMatrix type="matrix" values="0 0 0 0 0.959115 0 0 0 0 0.959115 0 0 0 0 0.959115 0 0 0 1 0"/>
<feBlend mode="normal" in2="BackgroundImageFix" result="effect1_dropShadow_4062_1545"/>
<feBlend mode="normal" in="SourceGraphic" in2="effect1_dropShadow_4062_1545" result="shape"/>
</filter>
<filter id="filter13_d_4062_1545" x="46.0156" y="20.9212" width="6.27344" height="5.84247" filterUnits="userSpaceOnUse" color-interpolation-filters="sRGB">
<feFlood flood-opacity="0" result="BackgroundImageFix"/>
<feColorMatrix in="SourceAlpha" type="matrix" values="0 0 0 0 0 0 0 0 0 0 0 0 0 0 0 0 0 0 127 0" result="hardAlpha"/>
<feOffset/>
<feGaussianBlur stdDeviation="1"/>
<feComposite in2="hardAlpha" operator="out"/>
<feColorMatrix type="matrix" values="0 0 0 0 0.959115 0 0 0 0 0.959115 0 0 0 0 0.959115 0 0 0 1 0"/>
<feBlend mode="normal" in2="BackgroundImageFix" result="effect1_dropShadow_4062_1545"/>
<feBlend mode="normal" in="SourceGraphic" in2="effect1_dropShadow_4062_1545" result="shape"/>
</filter>
<filter id="filter14_d_4062_1545" x="4.36328" y="10.7238" width="6.02344" height="5.32812" filterUnits="userSpaceOnUse" color-interpolation-filters="sRGB">
<feFlood flood-opacity="0" result="BackgroundImageFix"/>
<feColorMatrix in="SourceAlpha" type="matrix" values="0 0 0 0 0 0 0 0 0 0 0 0 0 0 0 0 0 0 127 0" result="hardAlpha"/>
<feOffset/>
<feGaussianBlur stdDeviation="1"/>
<feComposite in2="hardAlpha" operator="out"/>
<feColorMatrix type="matrix" values="0 0 0 0 0.959115 0 0 0 0 0.959115 0 0 0 0 0.959115 0 0 0 1 0"/>
<feBlend mode="normal" in2="BackgroundImageFix" result="effect1_dropShadow_4062_1545"/>
<feBlend mode="normal" in="SourceGraphic" in2="effect1_dropShadow_4062_1545" result="shape"/>
</filter>
<filter id="filter15_d_4062_1545" x="7.67578" y="10.7238" width="10.3027" height="5.32812" filterUnits="userSpaceOnUse" color-interpolation-filters="sRGB">
<feFlood flood-opacity="0" result="BackgroundImageFix"/>
<feColorMatrix in="SourceAlpha" type="matrix" values="0 0 0 0 0 0 0 0 0 0 0 0 0 0 0 0 0 0 127 0" result="hardAlpha"/>
<feOffset/>
<feGaussianBlur stdDeviation="1"/>
<feComposite in2="hardAlpha" operator="out"/>
<feColorMatrix type="matrix" values="0 0 0 0 0.959115 0 0 0 0 0.959115 0 0 0 0 0.959115 0 0 0 1 0"/>
<feBlend mode="normal" in2="BackgroundImageFix" result="effect1_dropShadow_4062_1545"/>
<feBlend mode="normal" in="SourceGraphic" in2="effect1_dropShadow_4062_1545" result="shape"/>
</filter>
<filter id="filter16_d_4062_1545" x="15.4023" y="10.7238" width="12.4609" height="5.32812" filterUnits="userSpaceOnUse" color-interpolation-filters="sRGB">
<feFlood flood-opacity="0" result="BackgroundImageFix"/>
<feColorMatrix in="SourceAlpha" type="matrix" values="0 0 0 0 0 0 0 0 0 0 0 0 0 0 0 0 0 0 127 0" result="hardAlpha"/>
<feOffset/>
<feGaussianBlur stdDeviation="1"/>
<feComposite in2="hardAlpha" operator="out"/>
<feColorMatrix type="matrix" values="0 0 0 0 0.959115 0 0 0 0 0.959115 0 0 0 0 0.959115 0 0 0 1 0"/>
<feBlend mode="normal" in2="BackgroundImageFix" result="effect1_dropShadow_4062_1545"/>
<feBlend mode="normal" in="SourceGraphic" in2="effect1_dropShadow_4062_1545" result="shape"/>
</filter>
<filter id="filter17_d_4062_1545" x="9.14844" y="0.152649" width="6.06836" height="5.72632" filterUnits="userSpaceOnUse" color-interpolation-filters="sRGB">
<feFlood flood-opacity="0" result="BackgroundImageFix"/>
<feColorMatrix in="SourceAlpha" type="matrix" values="0 0 0 0 0 0 0 0 0 0 0 0 0 0 0 0 0 0 127 0" result="hardAlpha"/>
<feOffset/>
<feGaussianBlur stdDeviation="1"/>
<feComposite in2="hardAlpha" operator="out"/>
<feColorMatrix type="matrix" values="0 0 0 0 0.959115 0 0 0 0 0.959115 0 0 0 0 0.959115 0 0 0 1 0"/>
<feBlend mode="normal" in2="BackgroundImageFix" result="effect1_dropShadow_4062_1545"/>
<feBlend mode="normal" in="SourceGraphic" in2="effect1_dropShadow_4062_1545" result="shape"/>
</filter>
<filter id="filter18_d_4062_1545" x="11.7793" y="1.63489" width="9.07422" height="7.42017" filterUnits="userSpaceOnUse" color-interpolation-filters="sRGB">
<feFlood flood-opacity="0" result="BackgroundImageFix"/>
<feColorMatrix in="SourceAlpha" type="matrix" values="0 0 0 0 0 0 0 0 0 0 0 0 0 0 0 0 0 0 127 0" result="hardAlpha"/>
<feOffset/>
<feGaussianBlur stdDeviation="1"/>
<feComposite in2="hardAlpha" operator="out"/>
<feColorMatrix type="matrix" values="0 0 0 0 0.959115 0 0 0 0 0.959115 0 0 0 0 0.959115 0 0 0 1 0"/>
<feBlend mode="normal" in2="BackgroundImageFix" result="effect1_dropShadow_4062_1545"/>
<feBlend mode="normal" in="SourceGraphic" in2="effect1_dropShadow_4062_1545" result="shape"/>
</filter>
<filter id="filter19_d_4062_1545" x="17.6836" y="4.96228" width="10.9043" height="8.45099" filterUnits="userSpaceOnUse" color-interpolation-filters="sRGB">
<feFlood flood-opacity="0" result="BackgroundImageFix"/>
<feColorMatrix in="SourceAlpha" type="matrix" values="0 0 0 0 0 0 0 0 0 0 0 0 0 0 0 0 0 0 127 0" result="hardAlpha"/>
<feOffset/>
<feGaussianBlur stdDeviation="1"/>
<feComposite in2="hardAlpha" operator="out"/>
<feColorMatrix type="matrix" values="0 0 0 0 0.959115 0 0 0 0 0.959115 0 0 0 0 0.959115 0 0 0 1 0"/>
<feBlend mode="normal" in2="BackgroundImageFix" result="effect1_dropShadow_4062_1545"/>
<feBlend mode="normal" in="SourceGraphic" in2="effect1_dropShadow_4062_1545" result="shape"/>
</filter>
<filter id="filter20_d_4062_1545" x="12.6191" y="13.3621" width="15.9707" height="11.3052" filterUnits="userSpaceOnUse" color-interpolation-filters="sRGB">
<feFlood flood-opacity="0" result="BackgroundImageFix"/>
<feColorMatrix in="SourceAlpha" type="matrix" values="0 0 0 0 0 0 0 0 0 0 0 0 0 0 0 0 0 0 127 0" result="hardAlpha"/>
<feOffset/>
<feGaussianBlur stdDeviation="1"/>
<feComposite in2="hardAlpha" operator="out"/>
<feColorMatrix type="matrix" values="0 0 0 0 0.959115 0 0 0 0 0.959115 0 0 0 0 0.959115 0 0 0 1 0"/>
<feBlend mode="normal" in2="BackgroundImageFix" result="effect1_dropShadow_4062_1545"/>
<feBlend mode="normal" in="SourceGraphic" in2="effect1_dropShadow_4062_1545" result="shape"/>
</filter>
<filter id="filter21_d_4062_1545" x="8.89648" y="20.9214" width="6.27344" height="5.84253" filterUnits="userSpaceOnUse" color-interpolation-filters="sRGB">
<feFlood flood-opacity="0" result="BackgroundImageFix"/>
<feColorMatrix in="SourceAlpha" type="matrix" values="0 0 0 0 0 0 0 0 0 0 0 0 0 0 0 0 0 0 127 0" result="hardAlpha"/>
<feOffset/>
<feGaussianBlur stdDeviation="1"/>
<feComposite in2="hardAlpha" operator="out"/>
<feColorMatrix type="matrix" values="0 0 0 0 0.959115 0 0 0 0 0.959115 0 0 0 0 0.959115 0 0 0 1 0"/>
<feBlend mode="normal" in2="BackgroundImageFix" result="effect1_dropShadow_4062_1545"/>
<feBlend mode="normal" in="SourceGraphic" in2="effect1_dropShadow_4062_1545" result="shape"/>
</filter>
</defs>
</svg>
