<svg width="32" height="32" viewBox="0 0 32 32" fill="none" xmlns="http://www.w3.org/2000/svg">
<path d="M1 16C1 10.3435 1 7.5145 2.758 5.758C4.5145 4 7.3435 4 13 4H19C24.6565 4 27.4855 4 29.242 5.758C31 7.5145 31 10.3435 31 16V19C31 24.6565 31 27.4855 29.242 29.242C27.4855 31 24.6565 31 19 31H13C7.3435 31 4.5145 31 2.758 29.242C1 27.4855 1 24.6565 1 19V16Z" stroke="#FFD700" stroke-width="2"/>
<path d="M8.5 4V1.75M23.5 4V1.75M1.75 11.5H30.25" stroke="#FFD700" stroke-width="2" stroke-linecap="round"/>
<path d="M25 23.5C25 23.8978 24.842 24.2794 24.5607 24.5607C24.2794 24.842 23.8978 25 23.5 25C23.1022 25 22.7206 24.842 22.4393 24.5607C22.158 24.2794 22 23.8978 22 23.5C22 23.1022 22.158 22.7206 22.4393 22.4393C22.7206 22.158 23.1022 22 23.5 22C23.8978 22 24.2794 22.158 24.5607 22.4393C24.842 22.7206 25 23.1022 25 23.5ZM25 17.5C25 17.8978 24.842 18.2794 24.5607 18.5607C24.2794 18.842 23.8978 19 23.5 19C23.1022 19 22.7206 18.842 22.4393 18.5607C22.158 18.2794 22 17.8978 22 17.5C22 17.1022 22.158 16.7206 22.4393 16.4393C22.7206 16.158 23.1022 16 23.5 16C23.8978 16 24.2794 16.158 24.5607 16.4393C24.842 16.7206 25 17.1022 25 17.5ZM17.5 23.5C17.5 23.8978 17.342 24.2794 17.0607 24.5607C16.7794 24.842 16.3978 25 16 25C15.6022 25 15.2206 24.842 14.9393 24.5607C14.658 24.2794 14.5 23.8978 14.5 23.5C14.5 23.1022 14.658 22.7206 14.9393 22.4393C15.2206 22.158 15.6022 22 16 22C16.3978 22 16.7794 22.158 17.0607 22.4393C17.342 22.7206 17.5 23.1022 17.5 23.5ZM17.5 17.5C17.5 17.8978 17.342 18.2794 17.0607 18.5607C16.7794 18.842 16.3978 19 16 19C15.6022 19 15.2206 18.842 14.9393 18.5607C14.658 18.2794 14.5 17.8978 14.5 17.5C14.5 17.1022 14.658 16.7206 14.9393 16.4393C15.2206 16.158 15.6022 16 16 16C16.3978 16 16.7794 16.158 17.0607 16.4393C17.342 16.7206 17.5 17.1022 17.5 17.5ZM10 23.5C10 23.8978 9.84196 24.2794 9.56066 24.5607C9.27936 24.842 8.89782 25 8.5 25C8.10218 25 7.72064 24.842 7.43934 24.5607C7.15804 24.2794 7 23.8978 7 23.5C7 23.1022 7.15804 22.7206 7.43934 22.4393C7.72064 22.158 8.10218 22 8.5 22C8.89782 22 9.27936 22.158 9.56066 22.4393C9.84196 22.7206 10 23.1022 10 23.5ZM10 17.5C10 17.8978 9.84196 18.2794 9.56066 18.5607C9.27936 18.842 8.89782 19 8.5 19C8.10218 19 7.72064 18.842 7.43934 18.5607C7.15804 18.2794 7 17.8978 7 17.5C7 17.1022 7.15804 16.7206 7.43934 16.4393C7.72064 16.158 8.10218 16 8.5 16C8.89782 16 9.27936 16.158 9.56066 16.4393C9.84196 16.7206 10 17.1022 10 17.5Z" fill="#FFD700"/>
</svg>
