<svg width="48" height="48" viewBox="0 0 48 48" fill="none" xmlns="http://www.w3.org/2000/svg">
<path d="M33.9997 24C36.1744 23.9996 38.2897 23.2904 40.025 21.9797C41.7603 20.6691 43.0211 18.8285 43.6163 16.7369C44.2114 14.6452 44.1085 12.4166 43.3232 10.3887C42.5379 8.36081 41.1129 6.64419 39.2642 5.49898C37.4155 4.35377 35.2439 3.84241 33.0785 4.04238C30.913 4.24236 28.8718 5.14277 27.2641 6.60717C25.6564 8.07157 24.5699 10.0201 24.1693 12.1576C23.7686 14.295 24.0756 16.5048 25.0437 18.452C25.2268 18.8056 25.2744 19.2138 25.1777 19.6L24.5817 21.826C24.5227 22.0464 24.5228 22.2784 24.5818 22.4988C24.6409 22.7192 24.7569 22.9202 24.9183 23.0815C25.0796 23.2428 25.2806 23.3588 25.5009 23.4179C25.7213 23.477 25.9534 23.477 26.1737 23.418L28.3997 22.822C28.786 22.7253 29.1942 22.773 29.5477 22.956C30.9307 23.6446 32.4549 24.002 33.9997 24Z" stroke="#C5C5C5" stroke-width="3"/>
<path d="M16.0758 14.6324L17.3738 16.9584C18.5438 19.0584 18.0738 21.8104 16.2298 23.6564C16.2298 23.6564 13.9898 25.8944 18.0498 29.9524C22.1038 34.0064 24.3438 31.7724 24.3438 31.7724C26.1898 29.9264 28.9438 29.4564 31.0418 30.6264L33.3678 31.9264C36.5378 33.6944 36.9118 38.1384 34.1258 40.9264C32.4518 42.5984 30.3998 43.9024 28.1338 43.9864C24.3178 44.1324 17.8358 43.1664 11.3338 36.6664C4.83381 30.1644 3.86781 23.6824 4.01381 19.8664C4.09981 17.6004 5.40181 15.5484 7.07381 13.8744C9.86181 11.0884 14.3058 11.4624 16.0738 14.6344L16.0758 14.6324Z" stroke="#C5C5C5" stroke-width="3" stroke-linecap="round"/>
</svg>
