<svg width="36" height="36" viewBox="0 0 36 36" fill="none" xmlns="http://www.w3.org/2000/svg">
<path fill-rule="evenodd" clip-rule="evenodd" d="M7.61835 7.60353C13.3108 1.91853 22.5658 1.97853 28.2928 7.70703C34.0228 13.437 34.0828 22.6965 28.3888 28.389C22.6963 34.0815 13.4368 34.023 7.70685 28.293C6.0951 26.6879 4.87732 24.7311 4.14911 22.5761C3.4209 20.4212 3.20209 18.1268 3.50985 15.873C3.55023 15.5772 3.70645 15.3096 3.94415 15.129C4.18186 14.9484 4.48156 14.8697 4.77735 14.91C5.07313 14.9504 5.34076 15.1066 5.52135 15.3443C5.70195 15.582 5.78073 15.8818 5.74035 16.1775C5.47911 18.0875 5.66431 20.032 6.28141 21.8583C6.8985 23.6846 7.93068 25.343 9.29685 26.703C14.1643 31.569 21.9988 31.5975 26.7988 26.799C31.5973 21.999 31.5688 14.1645 26.7028 9.29703C21.8383 4.43403 14.0083 4.40253 9.20835 9.19503L10.3303 9.19953C10.4781 9.20022 10.6242 9.23 10.7605 9.28718C10.8967 9.34435 11.0203 9.4278 11.1243 9.53275C11.2283 9.6377 11.3106 9.76211 11.3665 9.89886C11.4224 10.0356 11.4508 10.182 11.4501 10.3298C11.4494 10.4775 11.4196 10.6237 11.3625 10.7599C11.3053 10.8961 11.2218 11.0198 11.1169 11.1237C11.0119 11.2277 10.8875 11.31 10.7508 11.3659C10.614 11.4218 10.4676 11.4502 10.3198 11.4495L6.50085 11.4315C6.2043 11.43 5.92036 11.3113 5.71081 11.1015C5.50126 10.8917 5.38303 10.6076 5.38185 10.311L5.36235 6.49503C5.36156 6.3473 5.38988 6.20085 5.44569 6.06406C5.50149 5.92726 5.5837 5.8028 5.68761 5.69778C5.79152 5.59276 5.91509 5.50923 6.05128 5.45196C6.18747 5.3947 6.33361 5.36482 6.48135 5.36403C6.62908 5.36324 6.77553 5.39156 6.91232 5.44737C7.04911 5.50318 7.17358 5.58539 7.2786 5.68929C7.38362 5.7932 7.46715 5.91678 7.52442 6.05297C7.58168 6.18916 7.61156 6.3353 7.61235 6.48303L7.61835 7.60503V7.60353ZM17.9983 10.8735C18.2967 10.8735 18.5829 10.9921 18.7938 11.203C19.0048 11.414 19.1233 11.7002 19.1233 11.9985V17.5335L22.5448 20.9535C22.6523 21.0573 22.7381 21.1814 22.7971 21.3186C22.8562 21.4558 22.8873 21.6034 22.8886 21.7528C22.89 21.9022 22.8616 22.0503 22.8051 22.1886C22.7486 22.3269 22.6651 22.4525 22.5595 22.5582C22.454 22.6639 22.3284 22.7475 22.1902 22.8041C22.0519 22.8608 21.9038 22.8893 21.7544 22.8881C21.6051 22.8868 21.4574 22.8559 21.3201 22.797C21.1829 22.7381 21.0587 22.6524 20.9548 22.545L16.8748 18.465V12C16.8748 11.7017 16.9934 11.4155 17.2044 11.2045C17.4153 10.9936 17.7015 10.875 17.9998 10.875L17.9983 10.8735Z" fill="#FFD700"/>
</svg>
