<svg width="48" height="48" viewBox="0 0 48 48" fill="none" xmlns="http://www.w3.org/2000/svg">
<path d="M17.636 15.5143L16.9284 16.2209C17.0221 16.3147 17.0747 16.4418 17.0747 16.5743C17.0747 16.7068 17.0221 16.8339 16.9284 16.9276L17.636 17.6343M17.636 15.5143L16.9293 16.2218C16.8356 16.1282 16.7085 16.0756 16.576 16.0756C16.4437 16.0756 16.3168 16.128 16.2231 16.2214C14.1604 18.2842 13.0016 21.082 13.0016 23.9993C13.0016 26.9092 14.1545 29.7002 16.2076 31.7616C16.3011 31.8442 16.4223 31.889 16.5474 31.8868C16.6769 31.8845 16.8005 31.832 16.8921 31.7404C16.9837 31.6488 17.0362 31.5252 17.0385 31.3957C17.0407 31.2703 16.9958 31.1489 16.9128 31.0553C15.9915 30.13 15.2603 29.0333 14.7604 27.8269C14.2577 26.6134 13.9989 25.3128 13.9989 23.9993C13.9989 22.6858 14.2577 21.3852 14.7604 20.1717C15.2632 18.9582 16.0001 17.8557 16.929 16.9271L17.636 17.6343M17.636 15.5143C17.9169 15.7955 18.0747 16.1768 18.0747 16.5743C18.0747 16.9718 17.9169 17.353 17.636 17.6343M17.636 15.5143C17.3547 15.2334 16.9735 15.0756 16.576 15.0756C16.1785 15.0756 15.7972 15.2334 15.516 15.5143C13.2657 17.7647 12.0016 20.8168 12.0016 23.9993C12.0016 27.1817 13.2657 30.2339 15.516 32.4843L17.636 30.3643C16.7999 29.5285 16.1368 28.5362 15.6843 27.4441C15.2318 26.352 14.9989 25.1814 14.9989 23.9993C14.9989 22.8171 15.2318 21.6466 15.6843 20.5544C16.1368 19.4623 16.7999 18.47 17.636 17.6343M37.4104 10.54L37.4224 10.5529L37.4349 10.5654C44.8491 17.9796 44.8544 29.9967 37.4505 37.4195C37.357 37.5022 37.2357 37.547 37.1106 37.5448C36.981 37.5425 36.8575 37.49 36.7659 37.3984C36.6742 37.3068 36.6218 37.1832 36.6195 37.0537C36.6173 36.9284 36.6622 36.807 36.7451 36.7134C38.4093 35.0453 39.7299 33.0665 40.6319 30.8894C41.5367 28.7053 42.0024 26.3644 42.0024 24.0003C42.0024 21.6362 41.5367 19.2952 40.6319 17.1112C39.727 14.9271 38.4009 12.9426 36.729 11.2711L36.7166 11.2587L36.7037 11.2467C36.6546 11.2009 36.6152 11.1457 36.5879 11.0844C36.5605 11.023 36.5458 10.9568 36.5446 10.8897C36.5435 10.8226 36.5558 10.7559 36.581 10.6936C36.6061 10.6313 36.6435 10.5748 36.691 10.5273C36.7385 10.4798 36.7951 10.4424 36.8573 10.4172C36.9196 10.3921 36.9863 10.3798 37.0534 10.3809C37.1205 10.3821 37.1867 10.3968 37.2481 10.4241C37.3094 10.4515 37.3646 10.4909 37.4104 10.54ZM31.8407 16.2837C33.8647 18.3404 35.0004 21.1113 35.0004 23.9993C35.0004 26.9165 33.8416 29.7143 31.7789 31.7772L31.7726 31.7835L31.7664 31.7899C31.7203 31.8377 31.6651 31.8758 31.6041 31.902L31.9993 32.8207L31.6041 31.902C31.5431 31.9283 31.4775 31.9421 31.4112 31.9427C31.3448 31.9433 31.2789 31.9307 31.2175 31.9056C31.156 31.8805 31.1002 31.8434 31.0532 31.7964C31.0062 31.7495 30.9691 31.6937 30.9439 31.6323L30.0185 32.0114L30.9439 31.6323C30.9187 31.5708 30.906 31.505 30.9066 31.4386C30.9071 31.3722 30.9209 31.3066 30.9471 31.2456C30.9732 31.1846 31.0113 31.1294 31.059 31.0832L31.0651 31.0774L31.0711 31.0714C31.9997 30.1428 32.7363 29.0404 33.2388 27.8271C33.7414 26.6139 34.0001 25.3135 34.0001 24.0003C34.0001 22.687 33.7414 21.3867 33.2388 20.1734C32.7392 18.9672 32.0082 17.8705 31.0872 16.9453C31.0042 16.8517 30.9593 16.7302 30.9615 16.6049C30.9638 16.4753 31.0162 16.3517 31.1079 16.2601C31.1995 16.1685 31.3231 16.1161 31.4526 16.1138C31.5821 16.1115 31.7075 16.1596 31.8023 16.2479L31.8407 16.2837ZM11.2729 10.5654C11.3662 10.6591 11.4187 10.786 11.4187 10.9183C11.4187 11.0508 11.3661 11.1779 11.2724 11.2716L11.98 11.9783L11.2729 11.2712C9.60138 12.9426 8.27546 14.927 7.37084 17.1108C6.46622 19.2947 6.00062 21.6354 6.00062 23.9993C6.00062 26.3631 6.46622 28.7038 7.37084 30.8877C8.274 33.0681 9.59709 35.0495 11.2648 36.7193C11.353 36.8131 11.4017 36.9375 11.4006 37.0664C11.3994 37.1975 11.3467 37.3229 11.254 37.4156C11.1612 37.5082 11.0358 37.5607 10.9047 37.5618C10.7757 37.5629 10.6513 37.514 10.5576 37.4257C3.14577 30.0057 3.14812 17.9828 10.5647 10.5658C10.6584 10.4722 10.7855 10.4196 10.918 10.4196C11.0517 10.4196 11.1802 10.473 11.2729 10.5654ZM24 22.0003C24.5304 22.0003 25.0391 22.211 25.4142 22.5861C25.7893 22.9611 26 23.4698 26 24.0003C26 24.5307 25.7893 25.0394 25.4142 25.4145C25.0391 25.7896 24.5304 26.0003 24 26.0003C23.4696 26.0003 22.9608 25.7896 22.5858 25.4145C22.2107 25.0394 22 24.5307 22 24.0003C22 23.4698 22.2107 22.9611 22.5858 22.5861C22.9608 22.211 23.4696 22.0003 24 22.0003Z" stroke="#C5C5C5" stroke-width="2"/>
</svg>
