<svg width="48" height="48" viewBox="0 0 48 48" fill="none" xmlns="http://www.w3.org/2000/svg">
<path d="M28 16V12C28 10.9391 27.5786 9.92172 26.8284 9.17157C26.0783 8.42143 25.0609 8 24 8H10C8.93913 8 7.92172 8.42143 7.17157 9.17157C6.42143 9.92172 6 10.9391 6 12V36C6 37.0609 6.42143 38.0783 7.17157 38.8284C7.92172 39.5786 8.93913 40 10 40H24C25.0609 40 26.0783 39.5786 26.8284 38.8284C27.5786 38.0783 28 37.0609 28 36V32" stroke="#F84141" stroke-width="3" stroke-linecap="round" stroke-linejoin="round"/>
<path d="M18 24H42M42 24L36 18M42 24L36 30" stroke="#F84141" stroke-width="3" stroke-linecap="round" stroke-linejoin="round"/>
</svg>
