<svg width="28" height="36" viewBox="0 0 28 36" fill="none" xmlns="http://www.w3.org/2000/svg">
<mask id="path-1-inside-1_804_2722" fill="white">
<path fill-rule="evenodd" clip-rule="evenodd" d="M3.57434 10.3111C3.69582 8.37571 4.5503 6.55942 5.96383 5.23193C7.37735 3.90444 9.24366 3.16555 11.1828 3.16567H12.1904V1.80896C12.1904 1.32919 12.381 0.869076 12.7202 0.529831C13.0595 0.190586 13.5196 0 13.9994 0C14.4791 0 14.9392 0.190586 15.2785 0.529831C15.6177 0.869076 15.8083 1.32919 15.8083 1.80896V3.16567H16.8159C18.755 3.16555 20.6213 3.90444 22.0349 5.23193C23.4484 6.55942 24.3029 8.37571 24.4244 10.3111L24.8241 16.7039C24.9765 19.1414 25.7949 21.4903 27.1903 23.4947C27.4785 23.9091 27.6547 24.391 27.7016 24.8936C27.7485 25.3962 27.6645 25.9024 27.4578 26.3629C27.2511 26.8235 26.9288 27.2227 26.5221 27.5217C26.1154 27.8208 25.6383 28.0095 25.1371 28.0696L18.974 28.8076V30.7523C18.974 32.0716 18.4499 33.3369 17.5169 34.2699C16.584 35.2028 15.3187 35.7269 13.9994 35.7269C12.68 35.7269 11.4147 35.2028 10.4818 34.2699C9.54883 33.3369 9.02472 32.0716 9.02472 30.7523V28.8076L2.86161 28.0678C2.3607 28.0076 1.88388 27.8188 1.47748 27.5199C1.07107 27.2209 0.748898 26.8219 0.542257 26.3617C0.335615 25.9014 0.251531 25.3955 0.298172 24.8932C0.344814 24.3908 0.520597 23.9091 0.808441 23.4947C2.20369 21.4903 3.02211 19.1414 3.17456 16.7039L3.57434 10.3129V10.3111ZM11.1828 5.87911C9.93386 5.87896 8.7318 6.35481 7.82136 7.20979C6.91093 8.06477 6.36058 9.2346 6.28234 10.4811L5.88437 16.8739C5.70048 19.8062 4.71564 22.6319 3.03708 25.0432C3.01622 25.0732 3.00346 25.108 3.00006 25.1444C2.99665 25.1807 3.00271 25.2173 3.01764 25.2507C3.03257 25.284 3.05586 25.3129 3.08526 25.3345C3.11466 25.3562 3.14916 25.3699 3.18541 25.3742L9.94548 26.1865C12.639 26.5084 15.3597 26.5084 18.0532 26.1865L24.8133 25.3742C24.8495 25.3699 24.884 25.3562 24.9134 25.3345C24.9428 25.3129 24.9661 25.284 24.9811 25.2507C24.996 25.2173 25.0021 25.1807 24.9986 25.1444C24.9952 25.108 24.9825 25.0732 24.9616 25.0432C23.2836 22.6317 22.2994 19.8061 22.1161 16.8739L21.7164 10.4811C21.6381 9.2346 21.0878 8.06477 20.1773 7.20979C19.2669 6.35481 18.0648 5.87896 16.8159 5.87911H11.1828ZM13.9994 33.0135C12.7512 33.0135 11.7382 32.0004 11.7382 30.7523V29.3955H16.2605V30.7523C16.2605 32.0004 15.2475 33.0135 13.9994 33.0135Z"/>
</mask>
<path d="M3.57434 10.3111L1.57826 10.1858L1.57434 10.2483V10.3111H3.57434ZM11.1828 3.16567L11.1827 5.16567H11.1828V3.16567ZM12.1904 3.16567V5.16567H14.1904V3.16567H12.1904ZM13.9994 0V-2V0ZM15.8083 3.16567H13.8083V5.16567H15.8083V3.16567ZM16.8159 3.16567V5.16567H16.816L16.8159 3.16567ZM24.4244 10.3111L26.4205 10.1862L26.4204 10.1858L24.4244 10.3111ZM24.8241 16.7039L26.8202 16.5791L26.8202 16.5791L24.8241 16.7039ZM27.1903 23.4947L28.832 22.3525L28.8317 22.3521L27.1903 23.4947ZM25.1371 28.0696L25.3749 30.0554L25.375 30.0554L25.1371 28.0696ZM18.974 28.8076L18.7362 26.8218L16.974 27.0328V28.8076H18.974ZM18.974 30.7523H16.974H18.974ZM9.02472 30.7523H11.0247H9.02472ZM9.02472 28.8076H11.0247V27.0334L9.2631 26.8219L9.02472 28.8076ZM2.86161 28.0678L2.6229 30.0535L2.62322 30.0535L2.86161 28.0678ZM0.808441 23.4947L-0.833044 22.3521L-0.834102 22.3537L0.808441 23.4947ZM3.17456 16.7039L1.17846 16.579L1.17846 16.5791L3.17456 16.7039ZM3.57434 10.3129L5.57043 10.4377L5.57434 10.3754V10.3129H3.57434ZM11.1828 5.87911L11.1826 7.87911H11.1828V5.87911ZM6.28234 10.4811L4.28627 10.3558L4.28621 10.3568L6.28234 10.4811ZM5.88437 16.8739L7.88045 16.9991L7.88051 16.9982L5.88437 16.8739ZM3.03708 25.0432L1.39562 23.9006L1.39561 23.9006L3.03708 25.0432ZM3.18541 25.3742L2.94566 27.3598L2.94683 27.36L3.18541 25.3742ZM9.94548 26.1865L9.7069 28.1722L9.70808 28.1723L9.94548 26.1865ZM18.0532 26.1865L18.2906 28.1723L18.2918 28.1722L18.0532 26.1865ZM24.8133 25.3742L25.0519 27.36L25.053 27.3598L24.8133 25.3742ZM24.9616 25.0432L23.32 26.1855L23.3202 26.1858L24.9616 25.0432ZM22.1161 16.8739L24.1122 16.7492L24.1122 16.7491L22.1161 16.8739ZM21.7164 10.4811L23.7125 10.3563L23.7124 10.3558L21.7164 10.4811ZM16.8159 5.87911V7.87911H16.8161L16.8159 5.87911ZM11.7382 29.3955V27.3955H9.73816V29.3955H11.7382ZM16.2605 29.3955H18.2605V27.3955H16.2605V29.3955ZM5.57041 10.4363C5.66002 9.00878 6.29031 7.66902 7.33298 6.68982L4.59468 3.77405C2.81029 5.44983 1.73162 7.74265 1.57826 10.1858L5.57041 10.4363ZM7.33298 6.68982C8.37564 5.71061 9.75229 5.16558 11.1827 5.16567L11.1829 1.16567C8.73503 1.16551 6.37906 2.09827 4.59468 3.77405L7.33298 6.68982ZM11.1828 5.16567H12.1904V1.16567H11.1828V5.16567ZM14.1904 3.16567V1.80896H10.1904V3.16567H14.1904ZM14.1904 1.80896C14.1904 1.85963 14.1703 1.90822 14.1344 1.94404L11.306 -0.884382C10.5917 -0.170065 10.1904 0.798758 10.1904 1.80896H14.1904ZM14.1344 1.94404C14.0986 1.97987 14.05 2 13.9994 2V-2C12.9892 -2 12.0203 -1.5987 11.306 -0.884382L14.1344 1.94404ZM13.9994 2C13.9487 2 13.9001 1.97987 13.8643 1.94404L16.6927 -0.884382C15.9784 -1.5987 15.0096 -2 13.9994 -2V2ZM13.8643 1.94404C13.8284 1.90822 13.8083 1.85963 13.8083 1.80896H17.8083C17.8083 0.798758 17.407 -0.170065 16.6927 -0.884382L13.8643 1.94404ZM13.8083 1.80896V3.16567H17.8083V1.80896H13.8083ZM15.8083 5.16567H16.8159V1.16567H15.8083V5.16567ZM16.816 5.16567C18.2464 5.16558 19.6231 5.71061 20.6657 6.68982L23.404 3.77405C21.6196 2.09827 19.2637 1.16551 16.8158 1.16567L16.816 5.16567ZM20.6657 6.68982C21.7084 7.66902 22.3387 9.00878 22.4283 10.4363L26.4204 10.1858C26.2671 7.74265 25.1884 5.44983 23.404 3.77405L20.6657 6.68982ZM22.4283 10.4359L22.828 16.8287L26.8202 16.5791L26.4205 10.1862L22.4283 10.4359ZM22.828 16.8287C23.0032 19.6315 23.9443 22.3325 25.5488 24.6374L28.8317 22.3521C27.6455 20.6481 26.9498 18.6513 26.8202 16.5791L22.828 16.8287ZM25.5485 24.6369C25.6397 24.768 25.6954 24.9204 25.7102 25.0794L29.6929 24.7079C29.614 23.8616 29.3174 23.0502 28.832 22.3525L25.5485 24.6369ZM25.7102 25.0794C25.725 25.2383 25.6985 25.3984 25.6331 25.544L29.2824 27.1818C29.6305 26.4064 29.7719 25.5541 29.6929 24.7079L25.7102 25.0794ZM25.6331 25.544C25.5678 25.6897 25.4658 25.8159 25.3372 25.9105L27.707 29.133C28.3917 28.6294 28.9344 27.9573 29.2824 27.1818L25.6331 25.544ZM25.3372 25.9105C25.2086 26.0051 25.0577 26.0648 24.8992 26.0838L25.375 30.0554C26.2189 29.9543 27.0223 29.6365 27.707 29.133L25.3372 25.9105ZM24.8993 26.0838L18.7362 26.8218L19.2118 30.7934L25.3749 30.0554L24.8993 26.0838ZM16.974 28.8076V30.7523H20.974V28.8076H16.974ZM16.974 30.7523C16.974 31.5412 16.6606 32.2978 16.1027 32.8556L18.9312 35.6841C20.2392 34.3761 20.974 32.602 20.974 30.7523H16.974ZM16.1027 32.8556C15.5449 33.4135 14.7883 33.7269 13.9994 33.7269V37.7269C15.8491 37.7269 17.6232 36.9921 18.9312 35.6841L16.1027 32.8556ZM13.9994 33.7269C13.2104 33.7269 12.4538 33.4135 11.896 32.8556L9.06754 35.6841C10.3755 36.9921 12.1496 37.7269 13.9994 37.7269V33.7269ZM11.896 32.8556C11.3381 32.2978 11.0247 31.5412 11.0247 30.7523H7.02472C7.02472 32.602 7.75955 34.3761 9.06754 35.6841L11.896 32.8556ZM11.0247 30.7523V28.8076H7.02472V30.7523H11.0247ZM9.2631 26.8219L3.09999 26.082L2.62322 30.0535L8.78634 30.7934L9.2631 26.8219ZM3.10032 26.0821C2.9419 26.063 2.79111 26.0033 2.66257 25.9088L0.292378 29.1309C0.976653 29.6343 1.77949 29.9521 2.6229 30.0535L3.10032 26.0821ZM2.66257 25.9088C2.53404 25.8142 2.43215 25.6881 2.3668 25.5425L-1.28229 27.1808C-0.934356 27.9558 -0.391899 28.6276 0.292378 29.1309L2.66257 25.9088ZM2.3668 25.5425C2.30145 25.3969 2.27486 25.2369 2.28961 25.0781L-1.69326 24.7083C-1.7718 25.5541 -1.63022 26.4059 -1.28229 27.1808L2.3668 25.5425ZM2.28961 25.0781C2.30436 24.9192 2.35995 24.7668 2.45098 24.6358L-0.834102 22.3537C-1.31876 23.0513 -1.61473 23.8624 -1.69326 24.7083L2.28961 25.0781ZM2.44993 24.6373C4.05428 22.3325 4.99536 19.6315 5.17066 16.8287L1.17846 16.5791C1.04886 18.6512 0.353095 20.6481 -0.833043 22.3521L2.44993 24.6373ZM5.17065 16.8288L5.57043 10.4377L1.57824 10.188L1.17846 16.579L5.17065 16.8288ZM5.57434 10.3129V10.3111H1.57434V10.3129H5.57434ZM11.183 3.87911C9.42531 3.8789 7.73357 4.5486 6.45225 5.75188L9.19048 8.66771C9.73003 8.16102 10.4424 7.87902 11.1826 7.87911L11.183 3.87911ZM6.45225 5.75188C5.17093 6.95515 4.39637 8.60153 4.28627 10.3558L8.27842 10.6064C8.32478 9.86766 8.65094 9.17439 9.19048 8.66771L6.45225 5.75188ZM4.28621 10.3568L3.88824 16.7497L7.88051 16.9982L8.27848 10.6054L4.28621 10.3568ZM3.88829 16.7488C3.72731 19.3158 2.86512 21.7895 1.39562 23.9006L4.67853 26.1858C6.56615 23.4742 7.67366 20.2966 7.88045 16.9991L3.88829 16.7488ZM1.39561 23.9006C1.17764 24.2137 1.04437 24.5779 1.00878 24.9578L4.99133 25.3309C4.96255 25.6381 4.85479 25.9326 4.67854 26.1858L1.39561 23.9006ZM1.00878 24.9578C0.973184 25.3377 1.03648 25.7203 1.19249 26.0685L4.84278 24.4328C4.96894 24.7144 5.02012 25.0238 4.99133 25.3309L1.00878 24.9578ZM1.19249 26.0685C1.34853 26.4167 1.59199 26.7186 1.89915 26.9448L4.27138 23.7242C4.51974 23.9071 4.71661 24.1512 4.84278 24.4328L1.19249 26.0685ZM1.89915 26.9448C2.20629 27.1711 2.56679 27.3141 2.94566 27.3598L3.42516 23.3887C3.73153 23.4256 4.02303 23.5413 4.27138 23.7242L1.89915 26.9448ZM2.94683 27.36L9.7069 28.1722L10.1841 24.2007L3.42399 23.3885L2.94683 27.36ZM9.70808 28.1723C12.5593 28.5132 15.4394 28.5132 18.2906 28.1723L17.8158 24.2006C15.28 24.5037 12.7187 24.5037 10.1829 24.2006L9.70808 28.1723ZM18.2918 28.1722L25.0519 27.36L24.5747 23.3885L17.8146 24.2007L18.2918 28.1722ZM25.053 27.3598C25.4319 27.3141 25.7924 27.1711 26.0996 26.9448L23.7273 23.7242C23.9756 23.5413 24.2671 23.4257 24.5735 23.3887L25.053 27.3598ZM26.0996 26.9448C26.4067 26.7186 26.6502 26.4167 26.8062 26.0685L23.1559 24.4328C23.2821 24.1512 23.479 23.9071 23.7273 23.7242L26.0996 26.9448ZM26.8062 26.0685C26.9623 25.7202 27.0255 25.3376 26.9899 24.9578L23.0074 25.3309C22.9786 25.0238 23.0297 24.7144 23.1559 24.4328L26.8062 26.0685ZM26.9899 24.9578C26.9543 24.5779 26.8211 24.2137 26.6031 23.9006L23.3202 26.1858C23.1439 25.9326 23.0361 25.6381 23.0074 25.3309L26.9899 24.9578ZM26.6033 23.9009C25.1343 21.7898 24.2727 19.3161 24.1122 16.7492L20.12 16.9987C20.3261 20.2961 21.4329 23.4737 23.32 26.1855L26.6033 23.9009ZM24.1122 16.7491L23.7125 10.3563L19.7203 10.6059L20.12 16.9988L24.1122 16.7491ZM23.7124 10.3558C23.6023 8.60153 22.8278 6.95515 21.5465 5.75188L18.8082 8.66771C19.3478 9.17439 19.6739 9.86766 19.7203 10.6064L23.7124 10.3558ZM21.5465 5.75188C20.2651 4.5486 18.5734 3.8789 16.8157 3.87911L16.8161 7.87911C17.5563 7.87902 18.2687 8.16102 18.8082 8.66771L21.5465 5.75188ZM16.8159 3.87911H11.1828V7.87911H16.8159V3.87911ZM13.9994 31.0135C13.8557 31.0135 13.7382 30.8959 13.7382 30.7523H9.73816C9.73816 33.105 11.6466 35.0135 13.9994 35.0135V31.0135ZM13.7382 30.7523V29.3955H9.73816V30.7523H13.7382ZM11.7382 31.3955H16.2605V27.3955H11.7382V31.3955ZM14.2605 29.3955V30.7523H18.2605V29.3955H14.2605ZM14.2605 30.7523C14.2605 30.8959 14.143 31.0135 13.9994 31.0135V35.0135C16.3521 35.0135 18.2605 33.105 18.2605 30.7523H14.2605Z" fill="#FFD700" mask="url(#path-1-inside-1_804_2722)"/>
</svg>
