<svg width="60" height="45" viewBox="0 0 60 45" fill="none" xmlns="http://www.w3.org/2000/svg">
<path d="M33.3435 31.6663H26.6769C25.7564 31.6663 25.0103 30.9201 25.0103 29.9996V23.3329C25.0103 22.4124 25.7564 21.6663 26.6769 21.6663H33.3435C34.264 21.6663 35.0102 22.4124 35.0102 23.3329V29.9996C35.0102 30.9201 34.264 31.6663 33.3435 31.6663Z" stroke="#97C3FF" stroke-width="4" stroke-linecap="round" stroke-linejoin="round"/>
<path d="M59.9991 16.6667V15H56.6658V16.6667H59.9991ZM35.4679 25H33.8013V28.3333H35.4679V25ZM48.3325 28.3333C54.7758 28.3333 59.9991 23.11 59.9991 16.6667H56.6658C56.6658 21.269 52.9348 25 48.3325 25V28.3333ZM35.4679 28.3333H48.3325V25H35.4679V28.3333Z" fill="#97C3FF"/>
<path d="M3.33331 16.6667V15H0V16.6667H3.33331ZM24.5832 28.3333H26.2498V25H24.5832V28.3333ZM11.6666 25C7.06425 25 3.33331 21.269 3.33331 16.6667H0C0 23.11 5.22332 28.3333 11.6666 28.3333V25ZM11.6666 28.3333H24.5832V25H11.6666V28.3333Z" fill="#97C3FF"/>
<path d="M0 39.9996C0 42.7611 2.23857 44.9996 4.99997 44.9996V41.6663C4.07951 41.6663 3.33331 40.9201 3.33331 39.9996H0ZM56.6663 39.9996C56.6663 40.9201 55.9201 41.6663 54.9996 41.6663V44.9996C57.7611 44.9996 59.9996 42.7611 59.9996 39.9996H56.6663ZM54.9996 9.99959C55.9201 9.99959 56.6663 10.7458 56.6663 11.6663H59.9996C59.9996 8.90484 57.7611 6.66626 54.9996 6.66626V9.99959ZM4.99997 6.66626C2.23857 6.66626 0 8.90484 0 11.6663H3.33331C3.33331 10.7458 4.07951 9.99959 4.99997 9.99959V6.66626ZM3.33331 39.9996V11.6663H0V39.9996H3.33331ZM56.6663 11.6663V39.9996H59.9996V11.6663H56.6663ZM54.9996 41.6663H4.99997V44.9996H54.9996V41.6663ZM4.99997 9.99959H54.9996V6.66626H4.99997V9.99959Z" fill="#97C3FF"/>
<path d="M21.6556 8.33333V5H18.3223V8.33333H21.6556ZM23.3222 3.33333H36.6555V0H23.3222V3.33333ZM38.3221 5V8.33333H41.6554V5H38.3221ZM36.6555 3.33333C37.576 3.33333 38.3221 4.07953 38.3221 5H41.6554C41.6554 2.23858 39.417 0 36.6555 0V3.33333ZM21.6556 5C21.6556 4.07953 22.4017 3.33333 23.3222 3.33333V0C20.5608 0 18.3223 2.23858 18.3223 5H21.6556Z" fill="#97C3FF"/>
</svg>
