<svg width="40" height="36" viewBox="0 0 40 36" fill="none" xmlns="http://www.w3.org/2000/svg">
<path d="M32.2226 0H7.77736C7.49957 0 7.23567 0.138894 7.08289 0.375013L0.138207 10.5976C-0.0631891 10.9032 -0.0423551 11.3059 0.186819 11.5837L19.3541 35.2512C19.6875 35.6609 20.3125 35.6609 20.6459 35.2512L39.8132 11.5837C40.0424 11.299 40.0632 10.9032 39.8618 10.5976L32.9241 0.375013C32.7643 0.138894 32.5074 0 32.2226 0ZM30.8823 3.33345L35.2783 10.0003H30.5281L26.9377 3.33345H30.8823ZM16.8471 3.33345H23.1459L26.7363 10.0003H13.2637L16.8471 3.33345ZM9.11768 3.33345H13.0623L9.47186 10.0003H4.7217L9.11768 3.33345ZM6.13147 13.3338H9.70104L14.4443 24.4453L6.13147 13.3338ZM13.2775 13.3338H26.7225L20 30.2302L13.2775 13.3338ZM25.5557 24.4453L30.292 13.3338H33.8616L25.5557 24.4453Z" fill="#FF0000"/>
</svg>
