<svg width="60" height="40" viewBox="0 0 60 40" fill="none" xmlns="http://www.w3.org/2000/svg">
<path d="M56.8965 0H3.10345C2.28064 0.00102141 1.49179 0.373197 0.909971 1.03487C0.328156 1.69654 0.000898133 2.59367 0 3.52941V36.4706C0.000898133 37.4063 0.328156 38.3035 0.909971 38.9651C1.49179 39.6268 2.28064 39.999 3.10345 40H56.8965C57.7194 39.999 58.5082 39.6268 59.09 38.9651C59.6718 38.3035 59.9991 37.4063 60 36.4706V3.52941C59.9991 2.59367 59.6718 1.69654 59.09 1.03487C58.5082 0.373197 57.7194 0.00102141 56.8965 0ZM17.975 37.6471L2.06897 21.819V18.181L17.975 2.35294H42.025L57.931 18.181V21.819L42.025 37.6471H17.975ZM57.931 3.52941V15.0543L45.1671 2.35294H56.8965C57.1708 2.35325 57.4338 2.4773 57.6277 2.69787C57.8217 2.91843 57.9308 3.21749 57.931 3.52941ZM3.10345 2.35294H14.8329L2.06897 15.0543V3.52941C2.06924 3.21749 2.17832 2.91843 2.37226 2.69787C2.5662 2.4773 2.82917 2.35325 3.10345 2.35294ZM2.06897 36.4706V24.9457L14.8329 37.6471H3.10345C2.82917 37.6468 2.5662 37.5227 2.37226 37.3021C2.17832 37.0816 2.06924 36.7825 2.06897 36.4706ZM56.8965 37.6471H45.1671L57.931 24.9457V36.4706C57.9308 36.7825 57.8217 37.0816 57.6277 37.3021C57.4338 37.5227 57.1708 37.6468 56.8965 37.6471ZM30 9.41177C28.1586 9.41177 26.3585 10.0328 24.8274 11.1962C23.2964 12.3597 22.103 14.0133 21.3984 15.9481C20.6937 17.8828 20.5093 20.0117 20.8685 22.0657C21.2278 24.1196 22.1145 26.0062 23.4166 27.487C24.7187 28.9678 26.3776 29.9762 28.1836 30.3848C29.9897 30.7933 31.8617 30.5837 33.5629 29.7823C35.2642 28.9809 36.7182 27.6237 37.7413 25.8825C38.7643 24.1413 39.3103 22.0942 39.3103 20C39.3076 17.1928 38.3258 14.5015 36.5803 12.5165C34.8349 10.5315 32.4684 9.41493 30 9.41177ZM30 28.2353C28.5678 28.2353 27.1677 27.7523 25.9769 26.8474C24.7861 25.9425 23.8579 24.6563 23.3098 23.1515C22.7618 21.6467 22.6183 19.9909 22.8978 18.3934C23.1772 16.7959 23.8668 15.3285 24.8796 14.1768C25.8923 13.025 27.1826 12.2407 28.5873 11.9229C29.992 11.6052 31.448 11.7683 32.7712 12.3916C34.0943 13.0149 35.2253 14.0704 36.021 15.4247C36.8167 16.779 37.2414 18.3712 37.2414 20C37.2392 22.1834 36.4756 24.2766 35.118 25.8205C33.7605 27.3644 31.9199 28.2328 30 28.2353Z" fill="#96FFB4"/>
</svg>
