<svg width="64" height="59" viewBox="0 0 64 59" fill="none" xmlns="http://www.w3.org/2000/svg">
<path d="M40.4006 29.6967C40.4006 24.0768 35.8282 19.521 30.1878 19.521C26.3041 19.521 22.9275 21.6812 21.2003 24.861C19.4733 21.6812 16.0965 19.521 12.2129 19.521C6.57244 19.521 2 24.0768 2 29.6967C2 32.1145 2.84997 34.3321 4.26348 36.0779L4.26 36.0807L21.2003 57L38.1406 36.0807L38.1372 36.0779C39.5507 34.332 40.4006 32.1143 40.4006 29.6967Z" stroke="#FF8C8C" stroke-width="4" stroke-miterlimit="10" stroke-linejoin="round"/>
<path d="M61.9999 7.4059C61.9999 4.42024 59.5709 2 56.5743 2C54.5111 2 52.7173 3.14759 51.7998 4.83693C50.8822 3.14759 49.0885 2 47.0253 2C44.0287 2 41.5996 4.42024 41.5996 7.4059C41.5996 8.69028 42.0512 9.86847 42.802 10.7959L42.8002 10.7974L51.7998 21.9107L60.7993 10.7974L60.7975 10.7959C61.5484 9.86847 61.9999 8.69028 61.9999 7.4059Z" stroke="#FF8C8C" stroke-width="4" stroke-miterlimit="10" stroke-linejoin="round"/>
</svg>
